%TF.GenerationSoftware,KiCad,Pcbnew,(6.0.7)*%
%TF.CreationDate,2022-10-05T08:11:46-05:00*%
%TF.ProjectId,FinaleBanger,46696e61-6c65-4426-916e-6765722e6b69,rev?*%
%TF.SameCoordinates,Original*%
%TF.FileFunction,AssemblyDrawing,Bot*%
%FSLAX46Y46*%
G04 Gerber Fmt 4.6, Leading zero omitted, Abs format (unit mm)*
G04 Created by KiCad (PCBNEW (6.0.7)) date 2022-10-05 08:11:46*
%MOMM*%
%LPD*%
G01*
G04 APERTURE LIST*
%ADD10C,0.150000*%
G04 APERTURE END LIST*
D10*
%TO.C,XA1*%
X116893166Y-31499952D02*
X116893166Y-31976142D01*
X117178880Y-31404714D02*
X116178880Y-31738047D01*
X117178880Y-32071380D01*
X117178880Y-32404714D02*
X116512214Y-32404714D01*
X116702690Y-32404714D02*
X116607452Y-32452333D01*
X116559833Y-32499952D01*
X116512214Y-32595190D01*
X116512214Y-32690428D01*
X117178880Y-33452333D02*
X116178880Y-33452333D01*
X117131261Y-33452333D02*
X117178880Y-33357095D01*
X117178880Y-33166619D01*
X117131261Y-33071380D01*
X117083642Y-33023761D01*
X116988404Y-32976142D01*
X116702690Y-32976142D01*
X116607452Y-33023761D01*
X116559833Y-33071380D01*
X116512214Y-33166619D01*
X116512214Y-33357095D01*
X116559833Y-33452333D01*
X116512214Y-34357095D02*
X117178880Y-34357095D01*
X116512214Y-33928523D02*
X117036023Y-33928523D01*
X117131261Y-33976142D01*
X117178880Y-34071380D01*
X117178880Y-34214238D01*
X117131261Y-34309476D01*
X117083642Y-34357095D01*
X117178880Y-34833285D02*
X116512214Y-34833285D01*
X116178880Y-34833285D02*
X116226500Y-34785666D01*
X116274119Y-34833285D01*
X116226500Y-34880904D01*
X116178880Y-34833285D01*
X116274119Y-34833285D01*
X116512214Y-35309476D02*
X117178880Y-35309476D01*
X116607452Y-35309476D02*
X116559833Y-35357095D01*
X116512214Y-35452333D01*
X116512214Y-35595190D01*
X116559833Y-35690428D01*
X116655071Y-35738047D01*
X117178880Y-35738047D01*
X117178880Y-36357095D02*
X117131261Y-36261857D01*
X117083642Y-36214238D01*
X116988404Y-36166619D01*
X116702690Y-36166619D01*
X116607452Y-36214238D01*
X116559833Y-36261857D01*
X116512214Y-36357095D01*
X116512214Y-36499952D01*
X116559833Y-36595190D01*
X116607452Y-36642809D01*
X116702690Y-36690428D01*
X116988404Y-36690428D01*
X117083642Y-36642809D01*
X117131261Y-36595190D01*
X117178880Y-36499952D01*
X117178880Y-36357095D01*
X117274119Y-36880904D02*
X117274119Y-37642809D01*
X117178880Y-37880904D02*
X116178880Y-37880904D01*
X116893166Y-38214238D01*
X116178880Y-38547571D01*
X117178880Y-38547571D01*
X117131261Y-39404714D02*
X117178880Y-39309476D01*
X117178880Y-39119000D01*
X117131261Y-39023761D01*
X117036023Y-38976142D01*
X116655071Y-38976142D01*
X116559833Y-39023761D01*
X116512214Y-39119000D01*
X116512214Y-39309476D01*
X116559833Y-39404714D01*
X116655071Y-39452333D01*
X116750309Y-39452333D01*
X116845547Y-38976142D01*
X116512214Y-40309476D02*
X117321738Y-40309476D01*
X117416976Y-40261857D01*
X117464595Y-40214238D01*
X117512214Y-40119000D01*
X117512214Y-39976142D01*
X117464595Y-39880904D01*
X117131261Y-40309476D02*
X117178880Y-40214238D01*
X117178880Y-40023761D01*
X117131261Y-39928523D01*
X117083642Y-39880904D01*
X116988404Y-39833285D01*
X116702690Y-39833285D01*
X116607452Y-39880904D01*
X116559833Y-39928523D01*
X116512214Y-40023761D01*
X116512214Y-40214238D01*
X116559833Y-40309476D01*
X117178880Y-41214238D02*
X116655071Y-41214238D01*
X116559833Y-41166619D01*
X116512214Y-41071380D01*
X116512214Y-40880904D01*
X116559833Y-40785666D01*
X117131261Y-41214238D02*
X117178880Y-41119000D01*
X117178880Y-40880904D01*
X117131261Y-40785666D01*
X117036023Y-40738047D01*
X116940785Y-40738047D01*
X116845547Y-40785666D01*
X116797928Y-40880904D01*
X116797928Y-41119000D01*
X116750309Y-41214238D01*
X117274119Y-41452333D02*
X117274119Y-42214238D01*
X116512214Y-42452333D02*
X117369357Y-42452333D01*
X117464595Y-42404714D01*
X117512214Y-42309476D01*
X117512214Y-42261857D01*
X116178880Y-42452333D02*
X116226500Y-42404714D01*
X116274119Y-42452333D01*
X116226500Y-42499952D01*
X116178880Y-42452333D01*
X116274119Y-42452333D01*
X116512214Y-42928523D02*
X117512214Y-42928523D01*
X116559833Y-42928523D02*
X116512214Y-43023761D01*
X116512214Y-43214238D01*
X116559833Y-43309476D01*
X116607452Y-43357095D01*
X116702690Y-43404714D01*
X116988404Y-43404714D01*
X117083642Y-43357095D01*
X117131261Y-43309476D01*
X117178880Y-43214238D01*
X117178880Y-43023761D01*
X117131261Y-42928523D01*
X117178880Y-43833285D02*
X116512214Y-43833285D01*
X116607452Y-43833285D02*
X116559833Y-43880904D01*
X116512214Y-43976142D01*
X116512214Y-44119000D01*
X116559833Y-44214238D01*
X116655071Y-44261857D01*
X117178880Y-44261857D01*
X116655071Y-44261857D02*
X116559833Y-44309476D01*
X116512214Y-44404714D01*
X116512214Y-44547571D01*
X116559833Y-44642809D01*
X116655071Y-44690428D01*
X117178880Y-44690428D01*
%TD*%
M02*
