%TF.GenerationSoftware,KiCad,Pcbnew,(6.0.7)*%
%TF.CreationDate,2022-10-05T08:11:49-05:00*%
%TF.ProjectId,FinaleBanger,46696e61-6c65-4426-916e-6765722e6b69,rev?*%
%TF.SameCoordinates,Original*%
%TF.FileFunction,Drillmap*%
%TF.FilePolarity,Positive*%
%FSLAX45Y45*%
G04 Gerber Fmt 4.5, Leading zero omitted, Abs format (unit mm)*
G04 Created by KiCad (PCBNEW (6.0.7)) date 2022-10-05 08:11:49*
%MOMM*%
%LPD*%
G01*
G04 APERTURE LIST*
%ADD10C,0.100000*%
%ADD11C,0.200000*%
%ADD12C,0.300000*%
%ADD13C,0.320000*%
%ADD14C,0.345000*%
G04 APERTURE END LIST*
D10*
X20650000Y-2200000D02*
X9900000Y-2200000D01*
X9900000Y-2200000D02*
X9900000Y-15600000D01*
X9900000Y-15600000D02*
X20650000Y-15600000D01*
X20650000Y-15600000D02*
X20650000Y-2200000D01*
D11*
D12*
X10100000Y-2400000D02*
X10400000Y-2700000D01*
X10400000Y-2400000D02*
X10100000Y-2700000D01*
X10100000Y-15100000D02*
X10400000Y-15400000D01*
X10400000Y-15100000D02*
X10100000Y-15400000D01*
X20150000Y-15100000D02*
X20450000Y-15400000D01*
X20450000Y-15100000D02*
X20150000Y-15400000D01*
D13*
X12188250Y-3786500D02*
G75*
G03*
X12188250Y-3786500I-160000J0D01*
G01*
X12188250Y-11279500D02*
G75*
G03*
X12188250Y-11279500I-160000J0D01*
G01*
X13712250Y-8866500D02*
G75*
G03*
X13712250Y-8866500I-160000J0D01*
G01*
X16506250Y-8866500D02*
G75*
G03*
X16506250Y-8866500I-160000J0D01*
G01*
X17014250Y-3659500D02*
G75*
G03*
X17014250Y-3659500I-160000J0D01*
G01*
X17014250Y-11914500D02*
G75*
G03*
X17014250Y-11914500I-160000J0D01*
G01*
D14*
X11986111Y-14327500D02*
X11986111Y-14672500D01*
X11813611Y-14500000D02*
X12158611Y-14500000D01*
X13129111Y-14327500D02*
X13129111Y-14672500D01*
X12956611Y-14500000D02*
X13301611Y-14500000D01*
X13871556Y-14327500D02*
X13871556Y-14672500D01*
X13699056Y-14500000D02*
X14044056Y-14500000D01*
X15014556Y-14327500D02*
X15014556Y-14672500D01*
X14842056Y-14500000D02*
X15187056Y-14500000D01*
X15757000Y-14327500D02*
X15757000Y-14672500D01*
X15584500Y-14500000D02*
X15929500Y-14500000D01*
X16900000Y-14327500D02*
X16900000Y-14672500D01*
X16727500Y-14500000D02*
X17072500Y-14500000D01*
X17642445Y-14327500D02*
X17642445Y-14672500D01*
X17469945Y-14500000D02*
X17814945Y-14500000D01*
X18785445Y-14327500D02*
X18785445Y-14672500D01*
X18612945Y-14500000D02*
X18957945Y-14500000D01*
D11*
X10152619Y-15915476D02*
X10152619Y-15715476D01*
X10200238Y-15715476D01*
X10228810Y-15725000D01*
X10247857Y-15744048D01*
X10257381Y-15763095D01*
X10266905Y-15801190D01*
X10266905Y-15829762D01*
X10257381Y-15867857D01*
X10247857Y-15886905D01*
X10228810Y-15905952D01*
X10200238Y-15915476D01*
X10152619Y-15915476D01*
X10352619Y-15915476D02*
X10352619Y-15782143D01*
X10352619Y-15820238D02*
X10362143Y-15801190D01*
X10371667Y-15791667D01*
X10390714Y-15782143D01*
X10409762Y-15782143D01*
X10476429Y-15915476D02*
X10476429Y-15782143D01*
X10476429Y-15715476D02*
X10466905Y-15725000D01*
X10476429Y-15734524D01*
X10485952Y-15725000D01*
X10476429Y-15715476D01*
X10476429Y-15734524D01*
X10600238Y-15915476D02*
X10581190Y-15905952D01*
X10571667Y-15886905D01*
X10571667Y-15715476D01*
X10705000Y-15915476D02*
X10685952Y-15905952D01*
X10676429Y-15886905D01*
X10676429Y-15715476D01*
X10933571Y-15915476D02*
X10933571Y-15715476D01*
X11000238Y-15858333D01*
X11066905Y-15715476D01*
X11066905Y-15915476D01*
X11247857Y-15915476D02*
X11247857Y-15810714D01*
X11238333Y-15791667D01*
X11219286Y-15782143D01*
X11181190Y-15782143D01*
X11162143Y-15791667D01*
X11247857Y-15905952D02*
X11228809Y-15915476D01*
X11181190Y-15915476D01*
X11162143Y-15905952D01*
X11152619Y-15886905D01*
X11152619Y-15867857D01*
X11162143Y-15848809D01*
X11181190Y-15839286D01*
X11228809Y-15839286D01*
X11247857Y-15829762D01*
X11343095Y-15782143D02*
X11343095Y-15982143D01*
X11343095Y-15791667D02*
X11362143Y-15782143D01*
X11400238Y-15782143D01*
X11419286Y-15791667D01*
X11428809Y-15801190D01*
X11438333Y-15820238D01*
X11438333Y-15877381D01*
X11428809Y-15896428D01*
X11419286Y-15905952D01*
X11400238Y-15915476D01*
X11362143Y-15915476D01*
X11343095Y-15905952D01*
X11524048Y-15896428D02*
X11533571Y-15905952D01*
X11524048Y-15915476D01*
X11514524Y-15905952D01*
X11524048Y-15896428D01*
X11524048Y-15915476D01*
X11524048Y-15791667D02*
X11533571Y-15801190D01*
X11524048Y-15810714D01*
X11514524Y-15801190D01*
X11524048Y-15791667D01*
X11524048Y-15810714D01*
X9695000Y-16145000D02*
X9895000Y-16345000D01*
X9895000Y-16145000D02*
X9695000Y-16345000D01*
X10133571Y-16135476D02*
X10257381Y-16135476D01*
X10190714Y-16211667D01*
X10219286Y-16211667D01*
X10238333Y-16221190D01*
X10247857Y-16230714D01*
X10257381Y-16249762D01*
X10257381Y-16297381D01*
X10247857Y-16316428D01*
X10238333Y-16325952D01*
X10219286Y-16335476D01*
X10162143Y-16335476D01*
X10143095Y-16325952D01*
X10133571Y-16316428D01*
X10343095Y-16316428D02*
X10352619Y-16325952D01*
X10343095Y-16335476D01*
X10333571Y-16325952D01*
X10343095Y-16316428D01*
X10343095Y-16335476D01*
X10476429Y-16135476D02*
X10495476Y-16135476D01*
X10514524Y-16145000D01*
X10524048Y-16154524D01*
X10533571Y-16173571D01*
X10543095Y-16211667D01*
X10543095Y-16259286D01*
X10533571Y-16297381D01*
X10524048Y-16316428D01*
X10514524Y-16325952D01*
X10495476Y-16335476D01*
X10476429Y-16335476D01*
X10457381Y-16325952D01*
X10447857Y-16316428D01*
X10438333Y-16297381D01*
X10428810Y-16259286D01*
X10428810Y-16211667D01*
X10438333Y-16173571D01*
X10447857Y-16154524D01*
X10457381Y-16145000D01*
X10476429Y-16135476D01*
X10666905Y-16135476D02*
X10685952Y-16135476D01*
X10705000Y-16145000D01*
X10714524Y-16154524D01*
X10724048Y-16173571D01*
X10733571Y-16211667D01*
X10733571Y-16259286D01*
X10724048Y-16297381D01*
X10714524Y-16316428D01*
X10705000Y-16325952D01*
X10685952Y-16335476D01*
X10666905Y-16335476D01*
X10647857Y-16325952D01*
X10638333Y-16316428D01*
X10628810Y-16297381D01*
X10619286Y-16259286D01*
X10619286Y-16211667D01*
X10628810Y-16173571D01*
X10638333Y-16154524D01*
X10647857Y-16145000D01*
X10666905Y-16135476D01*
X10857381Y-16135476D02*
X10876429Y-16135476D01*
X10895476Y-16145000D01*
X10905000Y-16154524D01*
X10914524Y-16173571D01*
X10924048Y-16211667D01*
X10924048Y-16259286D01*
X10914524Y-16297381D01*
X10905000Y-16316428D01*
X10895476Y-16325952D01*
X10876429Y-16335476D01*
X10857381Y-16335476D01*
X10838333Y-16325952D01*
X10828810Y-16316428D01*
X10819286Y-16297381D01*
X10809762Y-16259286D01*
X10809762Y-16211667D01*
X10819286Y-16173571D01*
X10828810Y-16154524D01*
X10838333Y-16145000D01*
X10857381Y-16135476D01*
X11009762Y-16335476D02*
X11009762Y-16202143D01*
X11009762Y-16221190D02*
X11019286Y-16211667D01*
X11038333Y-16202143D01*
X11066905Y-16202143D01*
X11085952Y-16211667D01*
X11095476Y-16230714D01*
X11095476Y-16335476D01*
X11095476Y-16230714D02*
X11105000Y-16211667D01*
X11124048Y-16202143D01*
X11152619Y-16202143D01*
X11171667Y-16211667D01*
X11181190Y-16230714D01*
X11181190Y-16335476D01*
X11276428Y-16335476D02*
X11276428Y-16202143D01*
X11276428Y-16221190D02*
X11285952Y-16211667D01*
X11305000Y-16202143D01*
X11333571Y-16202143D01*
X11352619Y-16211667D01*
X11362143Y-16230714D01*
X11362143Y-16335476D01*
X11362143Y-16230714D02*
X11371667Y-16211667D01*
X11390714Y-16202143D01*
X11419286Y-16202143D01*
X11438333Y-16211667D01*
X11447857Y-16230714D01*
X11447857Y-16335476D01*
X11838333Y-16125952D02*
X11666905Y-16383095D01*
X12095476Y-16135476D02*
X12114524Y-16135476D01*
X12133571Y-16145000D01*
X12143095Y-16154524D01*
X12152619Y-16173571D01*
X12162143Y-16211667D01*
X12162143Y-16259286D01*
X12152619Y-16297381D01*
X12143095Y-16316428D01*
X12133571Y-16325952D01*
X12114524Y-16335476D01*
X12095476Y-16335476D01*
X12076428Y-16325952D01*
X12066905Y-16316428D01*
X12057381Y-16297381D01*
X12047857Y-16259286D01*
X12047857Y-16211667D01*
X12057381Y-16173571D01*
X12066905Y-16154524D01*
X12076428Y-16145000D01*
X12095476Y-16135476D01*
X12247857Y-16316428D02*
X12257381Y-16325952D01*
X12247857Y-16335476D01*
X12238333Y-16325952D01*
X12247857Y-16316428D01*
X12247857Y-16335476D01*
X12447857Y-16335476D02*
X12333571Y-16335476D01*
X12390714Y-16335476D02*
X12390714Y-16135476D01*
X12371667Y-16164048D01*
X12352619Y-16183095D01*
X12333571Y-16192619D01*
X12638333Y-16335476D02*
X12524048Y-16335476D01*
X12581190Y-16335476D02*
X12581190Y-16135476D01*
X12562143Y-16164048D01*
X12543095Y-16183095D01*
X12524048Y-16192619D01*
X12752619Y-16221190D02*
X12733571Y-16211667D01*
X12724048Y-16202143D01*
X12714524Y-16183095D01*
X12714524Y-16173571D01*
X12724048Y-16154524D01*
X12733571Y-16145000D01*
X12752619Y-16135476D01*
X12790714Y-16135476D01*
X12809762Y-16145000D01*
X12819286Y-16154524D01*
X12828809Y-16173571D01*
X12828809Y-16183095D01*
X12819286Y-16202143D01*
X12809762Y-16211667D01*
X12790714Y-16221190D01*
X12752619Y-16221190D01*
X12733571Y-16230714D01*
X12724048Y-16240238D01*
X12714524Y-16259286D01*
X12714524Y-16297381D01*
X12724048Y-16316428D01*
X12733571Y-16325952D01*
X12752619Y-16335476D01*
X12790714Y-16335476D01*
X12809762Y-16325952D01*
X12819286Y-16316428D01*
X12828809Y-16297381D01*
X12828809Y-16259286D01*
X12819286Y-16240238D01*
X12809762Y-16230714D01*
X12790714Y-16221190D01*
X13019286Y-16335476D02*
X12905000Y-16335476D01*
X12962143Y-16335476D02*
X12962143Y-16135476D01*
X12943095Y-16164048D01*
X12924048Y-16183095D01*
X12905000Y-16192619D01*
X13095476Y-16135476D02*
X13095476Y-16173571D01*
X13171667Y-16135476D02*
X13171667Y-16173571D01*
X13466905Y-16411667D02*
X13457381Y-16402143D01*
X13438333Y-16373571D01*
X13428809Y-16354524D01*
X13419286Y-16325952D01*
X13409762Y-16278333D01*
X13409762Y-16240238D01*
X13419286Y-16192619D01*
X13428809Y-16164048D01*
X13438333Y-16145000D01*
X13457381Y-16116428D01*
X13466905Y-16106905D01*
X13524048Y-16135476D02*
X13647857Y-16135476D01*
X13581190Y-16211667D01*
X13609762Y-16211667D01*
X13628809Y-16221190D01*
X13638333Y-16230714D01*
X13647857Y-16249762D01*
X13647857Y-16297381D01*
X13638333Y-16316428D01*
X13628809Y-16325952D01*
X13609762Y-16335476D01*
X13552619Y-16335476D01*
X13533571Y-16325952D01*
X13524048Y-16316428D01*
X13885952Y-16335476D02*
X13885952Y-16135476D01*
X13971667Y-16335476D02*
X13971667Y-16230714D01*
X13962143Y-16211667D01*
X13943095Y-16202143D01*
X13914524Y-16202143D01*
X13895476Y-16211667D01*
X13885952Y-16221190D01*
X14095476Y-16335476D02*
X14076428Y-16325952D01*
X14066905Y-16316428D01*
X14057381Y-16297381D01*
X14057381Y-16240238D01*
X14066905Y-16221190D01*
X14076428Y-16211667D01*
X14095476Y-16202143D01*
X14124048Y-16202143D01*
X14143095Y-16211667D01*
X14152619Y-16221190D01*
X14162143Y-16240238D01*
X14162143Y-16297381D01*
X14152619Y-16316428D01*
X14143095Y-16325952D01*
X14124048Y-16335476D01*
X14095476Y-16335476D01*
X14276428Y-16335476D02*
X14257381Y-16325952D01*
X14247857Y-16306905D01*
X14247857Y-16135476D01*
X14428809Y-16325952D02*
X14409762Y-16335476D01*
X14371667Y-16335476D01*
X14352619Y-16325952D01*
X14343095Y-16306905D01*
X14343095Y-16230714D01*
X14352619Y-16211667D01*
X14371667Y-16202143D01*
X14409762Y-16202143D01*
X14428809Y-16211667D01*
X14438333Y-16230714D01*
X14438333Y-16249762D01*
X14343095Y-16268809D01*
X14514524Y-16325952D02*
X14533571Y-16335476D01*
X14571667Y-16335476D01*
X14590714Y-16325952D01*
X14600238Y-16306905D01*
X14600238Y-16297381D01*
X14590714Y-16278333D01*
X14571667Y-16268809D01*
X14543095Y-16268809D01*
X14524048Y-16259286D01*
X14514524Y-16240238D01*
X14514524Y-16230714D01*
X14524048Y-16211667D01*
X14543095Y-16202143D01*
X14571667Y-16202143D01*
X14590714Y-16211667D01*
X14666905Y-16411667D02*
X14676428Y-16402143D01*
X14695476Y-16373571D01*
X14705000Y-16354524D01*
X14714524Y-16325952D01*
X14724048Y-16278333D01*
X14724048Y-16240238D01*
X14714524Y-16192619D01*
X14705000Y-16164048D01*
X14695476Y-16145000D01*
X14676428Y-16116428D01*
X14666905Y-16106905D01*
X15028809Y-16411667D02*
X15019286Y-16402143D01*
X15000238Y-16373571D01*
X14990714Y-16354524D01*
X14981190Y-16325952D01*
X14971667Y-16278333D01*
X14971667Y-16240238D01*
X14981190Y-16192619D01*
X14990714Y-16164048D01*
X15000238Y-16145000D01*
X15019286Y-16116428D01*
X15028809Y-16106905D01*
X15105000Y-16202143D02*
X15105000Y-16335476D01*
X15105000Y-16221190D02*
X15114524Y-16211667D01*
X15133571Y-16202143D01*
X15162143Y-16202143D01*
X15181190Y-16211667D01*
X15190714Y-16230714D01*
X15190714Y-16335476D01*
X15314524Y-16335476D02*
X15295476Y-16325952D01*
X15285952Y-16316428D01*
X15276428Y-16297381D01*
X15276428Y-16240238D01*
X15285952Y-16221190D01*
X15295476Y-16211667D01*
X15314524Y-16202143D01*
X15343095Y-16202143D01*
X15362143Y-16211667D01*
X15371667Y-16221190D01*
X15381190Y-16240238D01*
X15381190Y-16297381D01*
X15371667Y-16316428D01*
X15362143Y-16325952D01*
X15343095Y-16335476D01*
X15314524Y-16335476D01*
X15438333Y-16202143D02*
X15514524Y-16202143D01*
X15466905Y-16135476D02*
X15466905Y-16306905D01*
X15476428Y-16325952D01*
X15495476Y-16335476D01*
X15514524Y-16335476D01*
X15733571Y-16202143D02*
X15733571Y-16402143D01*
X15733571Y-16211667D02*
X15752619Y-16202143D01*
X15790714Y-16202143D01*
X15809762Y-16211667D01*
X15819286Y-16221190D01*
X15828809Y-16240238D01*
X15828809Y-16297381D01*
X15819286Y-16316428D01*
X15809762Y-16325952D01*
X15790714Y-16335476D01*
X15752619Y-16335476D01*
X15733571Y-16325952D01*
X15943095Y-16335476D02*
X15924048Y-16325952D01*
X15914524Y-16306905D01*
X15914524Y-16135476D01*
X16105000Y-16335476D02*
X16105000Y-16230714D01*
X16095476Y-16211667D01*
X16076428Y-16202143D01*
X16038333Y-16202143D01*
X16019286Y-16211667D01*
X16105000Y-16325952D02*
X16085952Y-16335476D01*
X16038333Y-16335476D01*
X16019286Y-16325952D01*
X16009762Y-16306905D01*
X16009762Y-16287857D01*
X16019286Y-16268809D01*
X16038333Y-16259286D01*
X16085952Y-16259286D01*
X16105000Y-16249762D01*
X16171667Y-16202143D02*
X16247857Y-16202143D01*
X16200238Y-16135476D02*
X16200238Y-16306905D01*
X16209762Y-16325952D01*
X16228809Y-16335476D01*
X16247857Y-16335476D01*
X16390714Y-16325952D02*
X16371667Y-16335476D01*
X16333571Y-16335476D01*
X16314524Y-16325952D01*
X16305000Y-16306905D01*
X16305000Y-16230714D01*
X16314524Y-16211667D01*
X16333571Y-16202143D01*
X16371667Y-16202143D01*
X16390714Y-16211667D01*
X16400238Y-16230714D01*
X16400238Y-16249762D01*
X16305000Y-16268809D01*
X16571667Y-16335476D02*
X16571667Y-16135476D01*
X16571667Y-16325952D02*
X16552619Y-16335476D01*
X16514524Y-16335476D01*
X16495476Y-16325952D01*
X16485952Y-16316428D01*
X16476428Y-16297381D01*
X16476428Y-16240238D01*
X16485952Y-16221190D01*
X16495476Y-16211667D01*
X16514524Y-16202143D01*
X16552619Y-16202143D01*
X16571667Y-16211667D01*
X16647857Y-16411667D02*
X16657381Y-16402143D01*
X16676428Y-16373571D01*
X16685952Y-16354524D01*
X16695476Y-16325952D01*
X16705000Y-16278333D01*
X16705000Y-16240238D01*
X16695476Y-16192619D01*
X16685952Y-16164048D01*
X16676428Y-16145000D01*
X16657381Y-16116428D01*
X16647857Y-16106905D01*
X9895000Y-16565000D02*
G75*
G03*
X9895000Y-16565000I-100000J0D01*
G01*
X10133571Y-16455476D02*
X10257381Y-16455476D01*
X10190714Y-16531667D01*
X10219286Y-16531667D01*
X10238333Y-16541190D01*
X10247857Y-16550714D01*
X10257381Y-16569762D01*
X10257381Y-16617381D01*
X10247857Y-16636428D01*
X10238333Y-16645952D01*
X10219286Y-16655476D01*
X10162143Y-16655476D01*
X10143095Y-16645952D01*
X10133571Y-16636428D01*
X10343095Y-16636428D02*
X10352619Y-16645952D01*
X10343095Y-16655476D01*
X10333571Y-16645952D01*
X10343095Y-16636428D01*
X10343095Y-16655476D01*
X10428810Y-16474524D02*
X10438333Y-16465000D01*
X10457381Y-16455476D01*
X10505000Y-16455476D01*
X10524048Y-16465000D01*
X10533571Y-16474524D01*
X10543095Y-16493571D01*
X10543095Y-16512619D01*
X10533571Y-16541190D01*
X10419286Y-16655476D01*
X10543095Y-16655476D01*
X10666905Y-16455476D02*
X10685952Y-16455476D01*
X10705000Y-16465000D01*
X10714524Y-16474524D01*
X10724048Y-16493571D01*
X10733571Y-16531667D01*
X10733571Y-16579286D01*
X10724048Y-16617381D01*
X10714524Y-16636428D01*
X10705000Y-16645952D01*
X10685952Y-16655476D01*
X10666905Y-16655476D01*
X10647857Y-16645952D01*
X10638333Y-16636428D01*
X10628810Y-16617381D01*
X10619286Y-16579286D01*
X10619286Y-16531667D01*
X10628810Y-16493571D01*
X10638333Y-16474524D01*
X10647857Y-16465000D01*
X10666905Y-16455476D01*
X10857381Y-16455476D02*
X10876429Y-16455476D01*
X10895476Y-16465000D01*
X10905000Y-16474524D01*
X10914524Y-16493571D01*
X10924048Y-16531667D01*
X10924048Y-16579286D01*
X10914524Y-16617381D01*
X10905000Y-16636428D01*
X10895476Y-16645952D01*
X10876429Y-16655476D01*
X10857381Y-16655476D01*
X10838333Y-16645952D01*
X10828810Y-16636428D01*
X10819286Y-16617381D01*
X10809762Y-16579286D01*
X10809762Y-16531667D01*
X10819286Y-16493571D01*
X10828810Y-16474524D01*
X10838333Y-16465000D01*
X10857381Y-16455476D01*
X11009762Y-16655476D02*
X11009762Y-16522143D01*
X11009762Y-16541190D02*
X11019286Y-16531667D01*
X11038333Y-16522143D01*
X11066905Y-16522143D01*
X11085952Y-16531667D01*
X11095476Y-16550714D01*
X11095476Y-16655476D01*
X11095476Y-16550714D02*
X11105000Y-16531667D01*
X11124048Y-16522143D01*
X11152619Y-16522143D01*
X11171667Y-16531667D01*
X11181190Y-16550714D01*
X11181190Y-16655476D01*
X11276428Y-16655476D02*
X11276428Y-16522143D01*
X11276428Y-16541190D02*
X11285952Y-16531667D01*
X11305000Y-16522143D01*
X11333571Y-16522143D01*
X11352619Y-16531667D01*
X11362143Y-16550714D01*
X11362143Y-16655476D01*
X11362143Y-16550714D02*
X11371667Y-16531667D01*
X11390714Y-16522143D01*
X11419286Y-16522143D01*
X11438333Y-16531667D01*
X11447857Y-16550714D01*
X11447857Y-16655476D01*
X11838333Y-16445952D02*
X11666905Y-16703095D01*
X12095476Y-16455476D02*
X12114524Y-16455476D01*
X12133571Y-16465000D01*
X12143095Y-16474524D01*
X12152619Y-16493571D01*
X12162143Y-16531667D01*
X12162143Y-16579286D01*
X12152619Y-16617381D01*
X12143095Y-16636428D01*
X12133571Y-16645952D01*
X12114524Y-16655476D01*
X12095476Y-16655476D01*
X12076428Y-16645952D01*
X12066905Y-16636428D01*
X12057381Y-16617381D01*
X12047857Y-16579286D01*
X12047857Y-16531667D01*
X12057381Y-16493571D01*
X12066905Y-16474524D01*
X12076428Y-16465000D01*
X12095476Y-16455476D01*
X12247857Y-16636428D02*
X12257381Y-16645952D01*
X12247857Y-16655476D01*
X12238333Y-16645952D01*
X12247857Y-16636428D01*
X12247857Y-16655476D01*
X12447857Y-16655476D02*
X12333571Y-16655476D01*
X12390714Y-16655476D02*
X12390714Y-16455476D01*
X12371667Y-16484048D01*
X12352619Y-16503095D01*
X12333571Y-16512619D01*
X12524048Y-16474524D02*
X12533571Y-16465000D01*
X12552619Y-16455476D01*
X12600238Y-16455476D01*
X12619286Y-16465000D01*
X12628809Y-16474524D01*
X12638333Y-16493571D01*
X12638333Y-16512619D01*
X12628809Y-16541190D01*
X12514524Y-16655476D01*
X12638333Y-16655476D01*
X12809762Y-16455476D02*
X12771667Y-16455476D01*
X12752619Y-16465000D01*
X12743095Y-16474524D01*
X12724048Y-16503095D01*
X12714524Y-16541190D01*
X12714524Y-16617381D01*
X12724048Y-16636428D01*
X12733571Y-16645952D01*
X12752619Y-16655476D01*
X12790714Y-16655476D01*
X12809762Y-16645952D01*
X12819286Y-16636428D01*
X12828809Y-16617381D01*
X12828809Y-16569762D01*
X12819286Y-16550714D01*
X12809762Y-16541190D01*
X12790714Y-16531667D01*
X12752619Y-16531667D01*
X12733571Y-16541190D01*
X12724048Y-16550714D01*
X12714524Y-16569762D01*
X12952619Y-16455476D02*
X12971667Y-16455476D01*
X12990714Y-16465000D01*
X13000238Y-16474524D01*
X13009762Y-16493571D01*
X13019286Y-16531667D01*
X13019286Y-16579286D01*
X13009762Y-16617381D01*
X13000238Y-16636428D01*
X12990714Y-16645952D01*
X12971667Y-16655476D01*
X12952619Y-16655476D01*
X12933571Y-16645952D01*
X12924048Y-16636428D01*
X12914524Y-16617381D01*
X12905000Y-16579286D01*
X12905000Y-16531667D01*
X12914524Y-16493571D01*
X12924048Y-16474524D01*
X12933571Y-16465000D01*
X12952619Y-16455476D01*
X13095476Y-16455476D02*
X13095476Y-16493571D01*
X13171667Y-16455476D02*
X13171667Y-16493571D01*
X13466905Y-16731667D02*
X13457381Y-16722143D01*
X13438333Y-16693571D01*
X13428809Y-16674524D01*
X13419286Y-16645952D01*
X13409762Y-16598333D01*
X13409762Y-16560238D01*
X13419286Y-16512619D01*
X13428809Y-16484048D01*
X13438333Y-16465000D01*
X13457381Y-16436428D01*
X13466905Y-16426905D01*
X13628809Y-16455476D02*
X13590714Y-16455476D01*
X13571667Y-16465000D01*
X13562143Y-16474524D01*
X13543095Y-16503095D01*
X13533571Y-16541190D01*
X13533571Y-16617381D01*
X13543095Y-16636428D01*
X13552619Y-16645952D01*
X13571667Y-16655476D01*
X13609762Y-16655476D01*
X13628809Y-16645952D01*
X13638333Y-16636428D01*
X13647857Y-16617381D01*
X13647857Y-16569762D01*
X13638333Y-16550714D01*
X13628809Y-16541190D01*
X13609762Y-16531667D01*
X13571667Y-16531667D01*
X13552619Y-16541190D01*
X13543095Y-16550714D01*
X13533571Y-16569762D01*
X13885952Y-16655476D02*
X13885952Y-16455476D01*
X13971667Y-16655476D02*
X13971667Y-16550714D01*
X13962143Y-16531667D01*
X13943095Y-16522143D01*
X13914524Y-16522143D01*
X13895476Y-16531667D01*
X13885952Y-16541190D01*
X14095476Y-16655476D02*
X14076428Y-16645952D01*
X14066905Y-16636428D01*
X14057381Y-16617381D01*
X14057381Y-16560238D01*
X14066905Y-16541190D01*
X14076428Y-16531667D01*
X14095476Y-16522143D01*
X14124048Y-16522143D01*
X14143095Y-16531667D01*
X14152619Y-16541190D01*
X14162143Y-16560238D01*
X14162143Y-16617381D01*
X14152619Y-16636428D01*
X14143095Y-16645952D01*
X14124048Y-16655476D01*
X14095476Y-16655476D01*
X14276428Y-16655476D02*
X14257381Y-16645952D01*
X14247857Y-16626905D01*
X14247857Y-16455476D01*
X14428809Y-16645952D02*
X14409762Y-16655476D01*
X14371667Y-16655476D01*
X14352619Y-16645952D01*
X14343095Y-16626905D01*
X14343095Y-16550714D01*
X14352619Y-16531667D01*
X14371667Y-16522143D01*
X14409762Y-16522143D01*
X14428809Y-16531667D01*
X14438333Y-16550714D01*
X14438333Y-16569762D01*
X14343095Y-16588809D01*
X14514524Y-16645952D02*
X14533571Y-16655476D01*
X14571667Y-16655476D01*
X14590714Y-16645952D01*
X14600238Y-16626905D01*
X14600238Y-16617381D01*
X14590714Y-16598333D01*
X14571667Y-16588809D01*
X14543095Y-16588809D01*
X14524048Y-16579286D01*
X14514524Y-16560238D01*
X14514524Y-16550714D01*
X14524048Y-16531667D01*
X14543095Y-16522143D01*
X14571667Y-16522143D01*
X14590714Y-16531667D01*
X14666905Y-16731667D02*
X14676428Y-16722143D01*
X14695476Y-16693571D01*
X14705000Y-16674524D01*
X14714524Y-16645952D01*
X14724048Y-16598333D01*
X14724048Y-16560238D01*
X14714524Y-16512619D01*
X14705000Y-16484048D01*
X14695476Y-16465000D01*
X14676428Y-16436428D01*
X14666905Y-16426905D01*
X15028809Y-16731667D02*
X15019286Y-16722143D01*
X15000238Y-16693571D01*
X14990714Y-16674524D01*
X14981190Y-16645952D01*
X14971667Y-16598333D01*
X14971667Y-16560238D01*
X14981190Y-16512619D01*
X14990714Y-16484048D01*
X15000238Y-16465000D01*
X15019286Y-16436428D01*
X15028809Y-16426905D01*
X15105000Y-16522143D02*
X15105000Y-16655476D01*
X15105000Y-16541190D02*
X15114524Y-16531667D01*
X15133571Y-16522143D01*
X15162143Y-16522143D01*
X15181190Y-16531667D01*
X15190714Y-16550714D01*
X15190714Y-16655476D01*
X15314524Y-16655476D02*
X15295476Y-16645952D01*
X15285952Y-16636428D01*
X15276428Y-16617381D01*
X15276428Y-16560238D01*
X15285952Y-16541190D01*
X15295476Y-16531667D01*
X15314524Y-16522143D01*
X15343095Y-16522143D01*
X15362143Y-16531667D01*
X15371667Y-16541190D01*
X15381190Y-16560238D01*
X15381190Y-16617381D01*
X15371667Y-16636428D01*
X15362143Y-16645952D01*
X15343095Y-16655476D01*
X15314524Y-16655476D01*
X15438333Y-16522143D02*
X15514524Y-16522143D01*
X15466905Y-16455476D02*
X15466905Y-16626905D01*
X15476428Y-16645952D01*
X15495476Y-16655476D01*
X15514524Y-16655476D01*
X15733571Y-16522143D02*
X15733571Y-16722143D01*
X15733571Y-16531667D02*
X15752619Y-16522143D01*
X15790714Y-16522143D01*
X15809762Y-16531667D01*
X15819286Y-16541190D01*
X15828809Y-16560238D01*
X15828809Y-16617381D01*
X15819286Y-16636428D01*
X15809762Y-16645952D01*
X15790714Y-16655476D01*
X15752619Y-16655476D01*
X15733571Y-16645952D01*
X15943095Y-16655476D02*
X15924048Y-16645952D01*
X15914524Y-16626905D01*
X15914524Y-16455476D01*
X16105000Y-16655476D02*
X16105000Y-16550714D01*
X16095476Y-16531667D01*
X16076428Y-16522143D01*
X16038333Y-16522143D01*
X16019286Y-16531667D01*
X16105000Y-16645952D02*
X16085952Y-16655476D01*
X16038333Y-16655476D01*
X16019286Y-16645952D01*
X16009762Y-16626905D01*
X16009762Y-16607857D01*
X16019286Y-16588809D01*
X16038333Y-16579286D01*
X16085952Y-16579286D01*
X16105000Y-16569762D01*
X16171667Y-16522143D02*
X16247857Y-16522143D01*
X16200238Y-16455476D02*
X16200238Y-16626905D01*
X16209762Y-16645952D01*
X16228809Y-16655476D01*
X16247857Y-16655476D01*
X16390714Y-16645952D02*
X16371667Y-16655476D01*
X16333571Y-16655476D01*
X16314524Y-16645952D01*
X16305000Y-16626905D01*
X16305000Y-16550714D01*
X16314524Y-16531667D01*
X16333571Y-16522143D01*
X16371667Y-16522143D01*
X16390714Y-16531667D01*
X16400238Y-16550714D01*
X16400238Y-16569762D01*
X16305000Y-16588809D01*
X16571667Y-16655476D02*
X16571667Y-16455476D01*
X16571667Y-16645952D02*
X16552619Y-16655476D01*
X16514524Y-16655476D01*
X16495476Y-16645952D01*
X16485952Y-16636428D01*
X16476428Y-16617381D01*
X16476428Y-16560238D01*
X16485952Y-16541190D01*
X16495476Y-16531667D01*
X16514524Y-16522143D01*
X16552619Y-16522143D01*
X16571667Y-16531667D01*
X16647857Y-16731667D02*
X16657381Y-16722143D01*
X16676428Y-16693571D01*
X16685952Y-16674524D01*
X16695476Y-16645952D01*
X16705000Y-16598333D01*
X16705000Y-16560238D01*
X16695476Y-16512619D01*
X16685952Y-16484048D01*
X16676428Y-16465000D01*
X16657381Y-16436428D01*
X16647857Y-16426905D01*
X9795000Y-16785000D02*
X9795000Y-16985000D01*
X9695000Y-16885000D02*
X9895000Y-16885000D01*
X10133571Y-16775476D02*
X10257381Y-16775476D01*
X10190714Y-16851667D01*
X10219286Y-16851667D01*
X10238333Y-16861190D01*
X10247857Y-16870714D01*
X10257381Y-16889762D01*
X10257381Y-16937381D01*
X10247857Y-16956429D01*
X10238333Y-16965952D01*
X10219286Y-16975476D01*
X10162143Y-16975476D01*
X10143095Y-16965952D01*
X10133571Y-16956429D01*
X10343095Y-16956429D02*
X10352619Y-16965952D01*
X10343095Y-16975476D01*
X10333571Y-16965952D01*
X10343095Y-16956429D01*
X10343095Y-16975476D01*
X10524048Y-16842143D02*
X10524048Y-16975476D01*
X10476429Y-16765952D02*
X10428810Y-16908810D01*
X10552619Y-16908810D01*
X10724048Y-16775476D02*
X10628810Y-16775476D01*
X10619286Y-16870714D01*
X10628810Y-16861190D01*
X10647857Y-16851667D01*
X10695476Y-16851667D01*
X10714524Y-16861190D01*
X10724048Y-16870714D01*
X10733571Y-16889762D01*
X10733571Y-16937381D01*
X10724048Y-16956429D01*
X10714524Y-16965952D01*
X10695476Y-16975476D01*
X10647857Y-16975476D01*
X10628810Y-16965952D01*
X10619286Y-16956429D01*
X10857381Y-16775476D02*
X10876429Y-16775476D01*
X10895476Y-16785000D01*
X10905000Y-16794524D01*
X10914524Y-16813571D01*
X10924048Y-16851667D01*
X10924048Y-16899286D01*
X10914524Y-16937381D01*
X10905000Y-16956429D01*
X10895476Y-16965952D01*
X10876429Y-16975476D01*
X10857381Y-16975476D01*
X10838333Y-16965952D01*
X10828810Y-16956429D01*
X10819286Y-16937381D01*
X10809762Y-16899286D01*
X10809762Y-16851667D01*
X10819286Y-16813571D01*
X10828810Y-16794524D01*
X10838333Y-16785000D01*
X10857381Y-16775476D01*
X11009762Y-16975476D02*
X11009762Y-16842143D01*
X11009762Y-16861190D02*
X11019286Y-16851667D01*
X11038333Y-16842143D01*
X11066905Y-16842143D01*
X11085952Y-16851667D01*
X11095476Y-16870714D01*
X11095476Y-16975476D01*
X11095476Y-16870714D02*
X11105000Y-16851667D01*
X11124048Y-16842143D01*
X11152619Y-16842143D01*
X11171667Y-16851667D01*
X11181190Y-16870714D01*
X11181190Y-16975476D01*
X11276428Y-16975476D02*
X11276428Y-16842143D01*
X11276428Y-16861190D02*
X11285952Y-16851667D01*
X11305000Y-16842143D01*
X11333571Y-16842143D01*
X11352619Y-16851667D01*
X11362143Y-16870714D01*
X11362143Y-16975476D01*
X11362143Y-16870714D02*
X11371667Y-16851667D01*
X11390714Y-16842143D01*
X11419286Y-16842143D01*
X11438333Y-16851667D01*
X11447857Y-16870714D01*
X11447857Y-16975476D01*
X11838333Y-16765952D02*
X11666905Y-17023095D01*
X12095476Y-16775476D02*
X12114524Y-16775476D01*
X12133571Y-16785000D01*
X12143095Y-16794524D01*
X12152619Y-16813571D01*
X12162143Y-16851667D01*
X12162143Y-16899286D01*
X12152619Y-16937381D01*
X12143095Y-16956429D01*
X12133571Y-16965952D01*
X12114524Y-16975476D01*
X12095476Y-16975476D01*
X12076428Y-16965952D01*
X12066905Y-16956429D01*
X12057381Y-16937381D01*
X12047857Y-16899286D01*
X12047857Y-16851667D01*
X12057381Y-16813571D01*
X12066905Y-16794524D01*
X12076428Y-16785000D01*
X12095476Y-16775476D01*
X12247857Y-16956429D02*
X12257381Y-16965952D01*
X12247857Y-16975476D01*
X12238333Y-16965952D01*
X12247857Y-16956429D01*
X12247857Y-16975476D01*
X12447857Y-16975476D02*
X12333571Y-16975476D01*
X12390714Y-16975476D02*
X12390714Y-16775476D01*
X12371667Y-16804048D01*
X12352619Y-16823095D01*
X12333571Y-16832619D01*
X12514524Y-16775476D02*
X12638333Y-16775476D01*
X12571667Y-16851667D01*
X12600238Y-16851667D01*
X12619286Y-16861190D01*
X12628809Y-16870714D01*
X12638333Y-16889762D01*
X12638333Y-16937381D01*
X12628809Y-16956429D01*
X12619286Y-16965952D01*
X12600238Y-16975476D01*
X12543095Y-16975476D01*
X12524048Y-16965952D01*
X12514524Y-16956429D01*
X12819286Y-16775476D02*
X12724048Y-16775476D01*
X12714524Y-16870714D01*
X12724048Y-16861190D01*
X12743095Y-16851667D01*
X12790714Y-16851667D01*
X12809762Y-16861190D01*
X12819286Y-16870714D01*
X12828809Y-16889762D01*
X12828809Y-16937381D01*
X12819286Y-16956429D01*
X12809762Y-16965952D01*
X12790714Y-16975476D01*
X12743095Y-16975476D01*
X12724048Y-16965952D01*
X12714524Y-16956429D01*
X12943095Y-16861190D02*
X12924048Y-16851667D01*
X12914524Y-16842143D01*
X12905000Y-16823095D01*
X12905000Y-16813571D01*
X12914524Y-16794524D01*
X12924048Y-16785000D01*
X12943095Y-16775476D01*
X12981190Y-16775476D01*
X13000238Y-16785000D01*
X13009762Y-16794524D01*
X13019286Y-16813571D01*
X13019286Y-16823095D01*
X13009762Y-16842143D01*
X13000238Y-16851667D01*
X12981190Y-16861190D01*
X12943095Y-16861190D01*
X12924048Y-16870714D01*
X12914524Y-16880238D01*
X12905000Y-16899286D01*
X12905000Y-16937381D01*
X12914524Y-16956429D01*
X12924048Y-16965952D01*
X12943095Y-16975476D01*
X12981190Y-16975476D01*
X13000238Y-16965952D01*
X13009762Y-16956429D01*
X13019286Y-16937381D01*
X13019286Y-16899286D01*
X13009762Y-16880238D01*
X13000238Y-16870714D01*
X12981190Y-16861190D01*
X13095476Y-16775476D02*
X13095476Y-16813571D01*
X13171667Y-16775476D02*
X13171667Y-16813571D01*
X13466905Y-17051667D02*
X13457381Y-17042143D01*
X13438333Y-17013571D01*
X13428809Y-16994524D01*
X13419286Y-16965952D01*
X13409762Y-16918333D01*
X13409762Y-16880238D01*
X13419286Y-16832619D01*
X13428809Y-16804048D01*
X13438333Y-16785000D01*
X13457381Y-16756428D01*
X13466905Y-16746905D01*
X13571667Y-16861190D02*
X13552619Y-16851667D01*
X13543095Y-16842143D01*
X13533571Y-16823095D01*
X13533571Y-16813571D01*
X13543095Y-16794524D01*
X13552619Y-16785000D01*
X13571667Y-16775476D01*
X13609762Y-16775476D01*
X13628809Y-16785000D01*
X13638333Y-16794524D01*
X13647857Y-16813571D01*
X13647857Y-16823095D01*
X13638333Y-16842143D01*
X13628809Y-16851667D01*
X13609762Y-16861190D01*
X13571667Y-16861190D01*
X13552619Y-16870714D01*
X13543095Y-16880238D01*
X13533571Y-16899286D01*
X13533571Y-16937381D01*
X13543095Y-16956429D01*
X13552619Y-16965952D01*
X13571667Y-16975476D01*
X13609762Y-16975476D01*
X13628809Y-16965952D01*
X13638333Y-16956429D01*
X13647857Y-16937381D01*
X13647857Y-16899286D01*
X13638333Y-16880238D01*
X13628809Y-16870714D01*
X13609762Y-16861190D01*
X13885952Y-16975476D02*
X13885952Y-16775476D01*
X13971667Y-16975476D02*
X13971667Y-16870714D01*
X13962143Y-16851667D01*
X13943095Y-16842143D01*
X13914524Y-16842143D01*
X13895476Y-16851667D01*
X13885952Y-16861190D01*
X14095476Y-16975476D02*
X14076428Y-16965952D01*
X14066905Y-16956429D01*
X14057381Y-16937381D01*
X14057381Y-16880238D01*
X14066905Y-16861190D01*
X14076428Y-16851667D01*
X14095476Y-16842143D01*
X14124048Y-16842143D01*
X14143095Y-16851667D01*
X14152619Y-16861190D01*
X14162143Y-16880238D01*
X14162143Y-16937381D01*
X14152619Y-16956429D01*
X14143095Y-16965952D01*
X14124048Y-16975476D01*
X14095476Y-16975476D01*
X14276428Y-16975476D02*
X14257381Y-16965952D01*
X14247857Y-16946905D01*
X14247857Y-16775476D01*
X14428809Y-16965952D02*
X14409762Y-16975476D01*
X14371667Y-16975476D01*
X14352619Y-16965952D01*
X14343095Y-16946905D01*
X14343095Y-16870714D01*
X14352619Y-16851667D01*
X14371667Y-16842143D01*
X14409762Y-16842143D01*
X14428809Y-16851667D01*
X14438333Y-16870714D01*
X14438333Y-16889762D01*
X14343095Y-16908810D01*
X14514524Y-16965952D02*
X14533571Y-16975476D01*
X14571667Y-16975476D01*
X14590714Y-16965952D01*
X14600238Y-16946905D01*
X14600238Y-16937381D01*
X14590714Y-16918333D01*
X14571667Y-16908810D01*
X14543095Y-16908810D01*
X14524048Y-16899286D01*
X14514524Y-16880238D01*
X14514524Y-16870714D01*
X14524048Y-16851667D01*
X14543095Y-16842143D01*
X14571667Y-16842143D01*
X14590714Y-16851667D01*
X14666905Y-17051667D02*
X14676428Y-17042143D01*
X14695476Y-17013571D01*
X14705000Y-16994524D01*
X14714524Y-16965952D01*
X14724048Y-16918333D01*
X14724048Y-16880238D01*
X14714524Y-16832619D01*
X14705000Y-16804048D01*
X14695476Y-16785000D01*
X14676428Y-16756428D01*
X14666905Y-16746905D01*
X15028809Y-17051667D02*
X15019286Y-17042143D01*
X15000238Y-17013571D01*
X14990714Y-16994524D01*
X14981190Y-16965952D01*
X14971667Y-16918333D01*
X14971667Y-16880238D01*
X14981190Y-16832619D01*
X14990714Y-16804048D01*
X15000238Y-16785000D01*
X15019286Y-16756428D01*
X15028809Y-16746905D01*
X15105000Y-16842143D02*
X15105000Y-16975476D01*
X15105000Y-16861190D02*
X15114524Y-16851667D01*
X15133571Y-16842143D01*
X15162143Y-16842143D01*
X15181190Y-16851667D01*
X15190714Y-16870714D01*
X15190714Y-16975476D01*
X15314524Y-16975476D02*
X15295476Y-16965952D01*
X15285952Y-16956429D01*
X15276428Y-16937381D01*
X15276428Y-16880238D01*
X15285952Y-16861190D01*
X15295476Y-16851667D01*
X15314524Y-16842143D01*
X15343095Y-16842143D01*
X15362143Y-16851667D01*
X15371667Y-16861190D01*
X15381190Y-16880238D01*
X15381190Y-16937381D01*
X15371667Y-16956429D01*
X15362143Y-16965952D01*
X15343095Y-16975476D01*
X15314524Y-16975476D01*
X15438333Y-16842143D02*
X15514524Y-16842143D01*
X15466905Y-16775476D02*
X15466905Y-16946905D01*
X15476428Y-16965952D01*
X15495476Y-16975476D01*
X15514524Y-16975476D01*
X15733571Y-16842143D02*
X15733571Y-17042143D01*
X15733571Y-16851667D02*
X15752619Y-16842143D01*
X15790714Y-16842143D01*
X15809762Y-16851667D01*
X15819286Y-16861190D01*
X15828809Y-16880238D01*
X15828809Y-16937381D01*
X15819286Y-16956429D01*
X15809762Y-16965952D01*
X15790714Y-16975476D01*
X15752619Y-16975476D01*
X15733571Y-16965952D01*
X15943095Y-16975476D02*
X15924048Y-16965952D01*
X15914524Y-16946905D01*
X15914524Y-16775476D01*
X16105000Y-16975476D02*
X16105000Y-16870714D01*
X16095476Y-16851667D01*
X16076428Y-16842143D01*
X16038333Y-16842143D01*
X16019286Y-16851667D01*
X16105000Y-16965952D02*
X16085952Y-16975476D01*
X16038333Y-16975476D01*
X16019286Y-16965952D01*
X16009762Y-16946905D01*
X16009762Y-16927857D01*
X16019286Y-16908810D01*
X16038333Y-16899286D01*
X16085952Y-16899286D01*
X16105000Y-16889762D01*
X16171667Y-16842143D02*
X16247857Y-16842143D01*
X16200238Y-16775476D02*
X16200238Y-16946905D01*
X16209762Y-16965952D01*
X16228809Y-16975476D01*
X16247857Y-16975476D01*
X16390714Y-16965952D02*
X16371667Y-16975476D01*
X16333571Y-16975476D01*
X16314524Y-16965952D01*
X16305000Y-16946905D01*
X16305000Y-16870714D01*
X16314524Y-16851667D01*
X16333571Y-16842143D01*
X16371667Y-16842143D01*
X16390714Y-16851667D01*
X16400238Y-16870714D01*
X16400238Y-16889762D01*
X16305000Y-16908810D01*
X16571667Y-16975476D02*
X16571667Y-16775476D01*
X16571667Y-16965952D02*
X16552619Y-16975476D01*
X16514524Y-16975476D01*
X16495476Y-16965952D01*
X16485952Y-16956429D01*
X16476428Y-16937381D01*
X16476428Y-16880238D01*
X16485952Y-16861190D01*
X16495476Y-16851667D01*
X16514524Y-16842143D01*
X16552619Y-16842143D01*
X16571667Y-16851667D01*
X16647857Y-17051667D02*
X16657381Y-17042143D01*
X16676428Y-17013571D01*
X16685952Y-16994524D01*
X16695476Y-16965952D01*
X16705000Y-16918333D01*
X16705000Y-16880238D01*
X16695476Y-16832619D01*
X16685952Y-16804048D01*
X16676428Y-16785000D01*
X16657381Y-16756428D01*
X16647857Y-16746905D01*
M02*
