M48
; DRILL file {KiCad (6.0.7)} date Wed Oct  5 08:11:49 2022
; FORMAT={-:-/ absolute / inch / decimal}
; #@! TF.CreationDate,2022-10-05T08:11:49-05:00
; #@! TF.GenerationSoftware,Kicad,Pcbnew,(6.0.7)
; #@! TF.FileFunction,Plated,1,2,PTH
FMAT,2
INCH
; #@! TA.AperFunction,Plated,PTH,ViaDrill
T1C0.0157
; #@! TA.AperFunction,Plated,PTH,ComponentDrill
T2C0.0276
; #@! TA.AperFunction,Plated,PTH,ComponentDrill
T3C0.0315
; #@! TA.AperFunction,Plated,PTH,ComponentDrill
T4C0.0354
; #@! TA.AperFunction,Plated,PTH,ComponentDrill
T5C0.0394
; #@! TA.AperFunction,Plated,PTH,ComponentDrill
T6C0.0400
; #@! TA.AperFunction,Plated,PTH,ComponentDrill
T7C0.0433
; #@! TA.AperFunction,Plated,PTH,ComponentDrill
T8C0.0591
; #@! TA.AperFunction,Plated,PTH,ComponentDrill
T9C0.0630
%
G90
G05
T1
X4.562Y-4.1978
X4.5669Y-4.1043
X4.5669Y-4.311
X4.626Y-3.7402
X4.6358Y-3.9665
X4.7244Y-4.7736
X4.7244Y-4.9213
X4.7244Y-5.0295
X4.7343Y-4.8327
X4.7835Y-5.1772
X4.8228Y-2.7362
X4.8228Y-2.815
X4.9114Y-4.4488
X4.9213Y-4.8228
X4.9213Y-4.8622
X4.9213Y-4.9016
X4.9213Y-4.9508
X4.9409Y-3.3268
X4.9508Y-4.0354
X5.0Y-2.7756
X5.0197Y-5.6201
X5.0394Y-2.874
X5.1132Y-3.3022
X5.1181Y-5.2165
X5.1378Y-5.8465
X5.1476Y-4.8819
X5.1772Y-3.5236
X5.2165Y-4.1535
X5.2362Y-3.3858
X5.2362Y-5.2756
X5.2461Y-4.9213
X5.2739Y-4.8934
X5.2756Y-4.8031
X5.2756Y-4.8524
X5.2756Y-5.4528
X5.2854Y-4.7638
X5.374Y-5.3543
X5.4109Y-4.8238
X5.4134Y-4.7638
X5.4208Y-4.8779
X5.4486Y-4.9057
X5.4528Y-4.813
X5.4921Y-3.6417
X5.5217Y-4.872
X5.5512Y-4.9114
X5.5529Y-4.9518
X5.5807Y-4.3504
X5.5807Y-4.9803
X5.5906Y-2.7953
X5.5906Y-5.561
X5.6102Y-4.4291
X5.6299Y-5.6102
X5.6299Y-5.6102
X5.689Y-5.6299
X5.7087Y-5.689
X5.9252Y-3.3858
X5.9252Y-3.5039
X5.9252Y-3.5728
X5.9252Y-3.5728
X5.9252Y-3.6417
X5.9252Y-3.7008
X5.9252Y-3.7795
X5.9252Y-3.878
X5.9252Y-3.9764
X5.9252Y-4.0551
X5.9646Y-5.4724
X6.0039Y-5.4724
X6.0433Y-5.4528
X6.1024Y-4.1929
X6.1024Y-4.1929
X6.1417Y-4.1535
X6.2008Y-5.1772
X6.2795Y-4.3701
X6.2992Y-4.2717
X6.3091Y-3.5039
X6.3091Y-3.5728
X6.3101Y-3.6417
X6.3101Y-3.7008
X6.3101Y-3.7992
X6.3101Y-3.878
X6.3101Y-3.9764
X6.3101Y-4.0551
X6.3337Y-4.7982
X6.437Y-5.6398
X6.4764Y-4.9409
X6.4961Y-4.7638
X6.6339Y-5.4626
X6.6831Y-5.6004
X6.7126Y-4.9606
X6.7224Y-4.813
X6.7224Y-4.8622
X6.7913Y-5.4528
X6.8701Y-5.4528
X6.8898Y-4.8031
X6.8898Y-5.0394
X6.9488Y-1.4764
X6.9488Y-1.5157
X6.9488Y-1.5551
X6.9488Y-1.5945
X6.9587Y-5.0787
X7.0472Y-5.1378
X7.0472Y-5.1378
X7.0669Y-5.6102
X7.0965Y-5.6496
X7.126Y-4.5571
X7.126Y-4.7736
X7.5295Y-0.9646
T2
X7.6575Y-0.9402
X7.6575Y-1.2402
T4
X4.7689Y-5.4587
X4.8189Y-5.3587
X4.8689Y-5.4587
X4.9189Y-5.3587
X4.9689Y-5.4587
X5.0189Y-5.3587
X5.0689Y-5.4587
X5.1189Y-5.3587
X5.5112Y-5.4587
X5.5612Y-5.3587
X5.6112Y-5.4587
X5.6612Y-5.3587
X5.7112Y-5.4587
X5.7612Y-5.3587
X5.8112Y-5.4587
X5.8612Y-5.3587
X6.2535Y-5.4587
X6.3035Y-5.3587
X6.3535Y-5.4587
X6.4035Y-5.3587
X6.4535Y-5.4587
X6.5035Y-5.3587
X6.5535Y-5.4587
X6.6035Y-5.3587
X6.9958Y-5.4587
X7.0458Y-5.3587
X7.0958Y-5.4587
X7.1458Y-5.3587
X7.1958Y-5.4587
X7.2458Y-5.3587
X7.2958Y-5.4587
X7.3458Y-5.3587
T6
X4.7355Y-1.6307
X4.7355Y-1.7307
X4.7355Y-1.8307
X4.7355Y-1.9307
X4.7355Y-2.0307
X4.7355Y-2.1307
X4.7355Y-2.2307
X4.7355Y-2.3307
X4.7355Y-2.4307
X4.7355Y-2.5307
X4.7355Y-2.6907
X4.7355Y-2.7907
X4.7355Y-2.8907
X4.7355Y-2.9907
X4.7355Y-3.0907
X4.7355Y-3.1907
X4.7355Y-3.2907
X4.7355Y-3.3907
X4.7355Y-3.5907
X4.7355Y-3.6907
X4.7355Y-3.7907
X4.7355Y-3.8907
X4.7355Y-3.9907
X4.7355Y-4.0907
X4.7355Y-4.1907
X4.7355Y-4.2907
X4.7355Y-4.5907
X4.7355Y-4.6907
X4.8355Y-4.5907
X4.8355Y-4.6907
X4.9355Y-4.5907
X4.9355Y-4.6907
X5.0355Y-4.5907
X5.0355Y-4.6907
X5.1355Y-4.5907
X5.1355Y-4.6907
X5.2355Y-4.5907
X5.2355Y-4.6907
X5.3355Y-4.5907
X5.3355Y-4.6907
X5.4355Y-4.5907
X5.4355Y-4.6907
X5.5355Y-3.3957
X5.5355Y-3.4957
X5.5355Y-4.5907
X5.5355Y-4.6907
X5.6355Y-3.3957
X5.6355Y-3.4957
X5.6355Y-4.5907
X5.6355Y-4.6907
X5.7355Y-3.3957
X5.7355Y-3.4957
X5.7355Y-4.5907
X5.7355Y-4.6907
X5.8355Y-4.5907
X5.8355Y-4.6907
X5.9355Y-4.5907
X5.9355Y-4.6907
X6.0355Y-4.5907
X6.0355Y-4.6907
X6.1355Y-4.5907
X6.1355Y-4.6907
X6.2355Y-4.5907
X6.2355Y-4.6907
X6.3355Y-4.5907
X6.3355Y-4.6907
X6.4355Y-4.5907
X6.4355Y-4.6907
X6.6355Y-1.9907
X6.6355Y-2.0907
X6.6355Y-2.1907
X6.6355Y-2.2907
X6.6355Y-2.3907
X6.6355Y-2.4907
X6.6355Y-2.5907
X6.6355Y-2.6907
X6.6355Y-2.8907
X6.6355Y-2.9907
X6.6355Y-3.0907
X6.6355Y-3.1907
X6.6355Y-3.2907
X6.6355Y-3.3907
X6.6355Y-3.4907
X6.6355Y-3.5907
X6.6355Y-3.7907
X6.6355Y-3.8907
X6.6355Y-3.9907
X6.6355Y-4.0907
X6.6355Y-4.1907
X6.6355Y-4.2907
X6.6355Y-4.3907
X6.6355Y-4.4907
T7
X4.378Y-1.0197
X4.378Y-1.2165
X4.378Y-1.4134
X4.378Y-1.6102
X4.378Y-1.8071
X4.378Y-2.0039
X4.378Y-2.2894
X4.378Y-2.4862
X4.378Y-2.6831
X4.378Y-2.8799
X4.378Y-3.0768
X4.378Y-3.2736
X4.378Y-3.4705
X4.378Y-3.6673
X4.378Y-3.9567
X4.378Y-4.1535
X4.378Y-4.3504
X4.378Y-4.5472
X4.378Y-4.7441
X4.378Y-4.9409
X4.378Y-5.1378
X4.378Y-5.3346
X5.2756Y-5.0787
X5.4724Y-5.0787
X5.6693Y-5.0787
X5.8661Y-5.0787
X6.063Y-5.0787
X6.2598Y-5.0787
X6.4567Y-5.0787
X6.6535Y-5.0787
X6.8996Y-4.9016
X7.0295Y-1.5453
X7.0295Y-1.7421
X7.0295Y-1.939
X7.0295Y-2.1358
X7.0295Y-2.3327
X7.0295Y-2.5295
X7.0295Y-2.7264
X7.0295Y-2.9232
X7.0295Y-3.2087
X7.0295Y-3.4055
X7.0295Y-3.6024
X7.0295Y-3.7992
X7.0295Y-3.9961
X7.0295Y-4.1929
X7.0295Y-4.3898
X7.0295Y-4.5866
X7.0965Y-4.9016
X7.2933Y-4.9016
X7.4902Y-4.9016
X7.687Y-1.5059
X7.687Y-1.7028
X7.687Y-1.8996
X7.687Y-2.0965
X7.687Y-2.2933
X7.687Y-2.4902
X7.687Y-2.687
X7.687Y-2.8839
X7.6969Y-3.189
X7.6969Y-3.3858
X7.6969Y-3.5827
X7.6969Y-3.7795
X7.6969Y-3.9764
X7.6969Y-4.1732
X7.6969Y-4.3701
X7.6969Y-4.5669
T8
X3.9518Y-1.7624
X3.9518Y-1.9593
X3.9518Y-2.1561
X3.9518Y-2.353
X3.9518Y-2.5498
X3.9518Y-2.7467
X3.9518Y-2.9435
X3.9518Y-3.1404
X3.9518Y-3.3372
X3.9518Y-3.5341
X5.187Y-6.0827
X5.3839Y-6.0827
X5.5807Y-6.0827
X5.7776Y-6.0827
X5.9744Y-6.0827
X6.1713Y-6.0827
X6.3681Y-6.0827
X6.565Y-6.0827
X6.7618Y-6.0827
X6.9587Y-6.0827
X8.0709Y-1.7415
X8.0709Y-1.9384
X8.0709Y-2.1352
X8.0709Y-2.3321
X8.0709Y-2.5289
X8.0709Y-2.7258
X8.0709Y-2.9226
X8.0709Y-3.1195
X8.0709Y-3.3163
X8.0709Y-3.5132
T9
X7.8819Y-4.8787
X7.8819Y-5.0787
X7.8819Y-5.2787
X7.8819Y-5.4787
X7.8819Y-5.6787
T3
G00X7.0217Y-1.0827
M15
G01X6.9547Y-1.0827
M16
G05
G00X7.1457Y-0.9724
M15
G01X7.0472Y-0.9724
M16
G05
G00X7.878Y-1.0728
M15
G01X7.811Y-1.0728
M16
G05
G00X8.002Y-0.9626
M15
G01X7.9035Y-0.9626
M16
G05
T5
G00X7.1457Y-1.1161
M15
G01X7.1457Y-1.2461
M16
G05
G00X8.002Y-1.1063
M15
G01X8.002Y-1.2362
M16
G05
T0
M30
