%TF.GenerationSoftware,KiCad,Pcbnew,(6.0.7)*%
%TF.CreationDate,2022-10-05T08:11:49-05:00*%
%TF.ProjectId,FinaleBanger,46696e61-6c65-4426-916e-6765722e6b69,rev?*%
%TF.SameCoordinates,Original*%
%TF.FileFunction,Drillmap*%
%TF.FilePolarity,Positive*%
%FSLAX45Y45*%
G04 Gerber Fmt 4.5, Leading zero omitted, Abs format (unit mm)*
G04 Created by KiCad (PCBNEW (6.0.7)) date 2022-10-05 08:11:49*
%MOMM*%
%LPD*%
G01*
G04 APERTURE LIST*
%ADD10C,0.100000*%
%ADD11C,0.200000*%
%ADD12C,0.040000*%
%ADD13C,0.070000*%
%ADD14C,0.080000*%
%ADD15C,0.090000*%
%ADD16C,0.101600*%
%ADD17C,0.110000*%
%ADD18C,0.150000*%
%ADD19C,0.160000*%
G04 APERTURE END LIST*
D10*
X20650000Y-2200000D02*
X9900000Y-2200000D01*
X9900000Y-2200000D02*
X9900000Y-15600000D01*
X9900000Y-15600000D02*
X20650000Y-15600000D01*
X20650000Y-15600000D02*
X20650000Y-2200000D01*
D11*
D12*
X11567500Y-10642500D02*
X11607500Y-10682500D01*
X11607500Y-10642500D02*
X11567500Y-10682500D01*
X11580000Y-10405000D02*
X11620000Y-10445000D01*
X11620000Y-10405000D02*
X11580000Y-10445000D01*
X11580000Y-10930000D02*
X11620000Y-10970000D01*
X11620000Y-10930000D02*
X11580000Y-10970000D01*
X11730000Y-9480000D02*
X11770000Y-9520000D01*
X11770000Y-9480000D02*
X11730000Y-9520000D01*
X11755000Y-10055000D02*
X11795000Y-10095000D01*
X11795000Y-10055000D02*
X11755000Y-10095000D01*
X11980000Y-12105000D02*
X12020000Y-12145000D01*
X12020000Y-12105000D02*
X11980000Y-12145000D01*
X11980000Y-12480000D02*
X12020000Y-12520000D01*
X12020000Y-12480000D02*
X11980000Y-12520000D01*
X11980000Y-12755000D02*
X12020000Y-12795000D01*
X12020000Y-12755000D02*
X11980000Y-12795000D01*
X12005000Y-12255000D02*
X12045000Y-12295000D01*
X12045000Y-12255000D02*
X12005000Y-12295000D01*
X12130000Y-13130000D02*
X12170000Y-13170000D01*
X12170000Y-13130000D02*
X12130000Y-13170000D01*
X12230000Y-6930000D02*
X12270000Y-6970000D01*
X12270000Y-6930000D02*
X12230000Y-6970000D01*
X12230000Y-7130000D02*
X12270000Y-7170000D01*
X12270000Y-7130000D02*
X12230000Y-7170000D01*
X12455000Y-11280000D02*
X12495000Y-11320000D01*
X12495000Y-11280000D02*
X12455000Y-11320000D01*
X12480000Y-12230000D02*
X12520000Y-12270000D01*
X12520000Y-12230000D02*
X12480000Y-12270000D01*
X12480000Y-12330000D02*
X12520000Y-12370000D01*
X12520000Y-12330000D02*
X12480000Y-12370000D01*
X12480000Y-12430000D02*
X12520000Y-12470000D01*
X12520000Y-12430000D02*
X12480000Y-12470000D01*
X12480000Y-12555000D02*
X12520000Y-12595000D01*
X12520000Y-12555000D02*
X12480000Y-12595000D01*
X12530000Y-8430000D02*
X12570000Y-8470000D01*
X12570000Y-8430000D02*
X12530000Y-8470000D01*
X12555000Y-10230000D02*
X12595000Y-10270000D01*
X12595000Y-10230000D02*
X12555000Y-10270000D01*
X12680000Y-7030000D02*
X12720000Y-7070000D01*
X12720000Y-7030000D02*
X12680000Y-7070000D01*
X12730000Y-14255000D02*
X12770000Y-14295000D01*
X12770000Y-14255000D02*
X12730000Y-14295000D01*
X12780000Y-7280000D02*
X12820000Y-7320000D01*
X12820000Y-7280000D02*
X12780000Y-7320000D01*
X12967500Y-8367500D02*
X13007500Y-8407500D01*
X13007500Y-8367500D02*
X12967500Y-8407500D01*
X12980000Y-13230000D02*
X13020000Y-13270000D01*
X13020000Y-13230000D02*
X12980000Y-13270000D01*
X13030000Y-14830000D02*
X13070000Y-14870000D01*
X13070000Y-14830000D02*
X13030000Y-14870000D01*
X13055000Y-12380000D02*
X13095000Y-12420000D01*
X13095000Y-12380000D02*
X13055000Y-12420000D01*
X13130000Y-8930000D02*
X13170000Y-8970000D01*
X13170000Y-8930000D02*
X13130000Y-8970000D01*
X13230000Y-10530000D02*
X13270000Y-10570000D01*
X13270000Y-10530000D02*
X13230000Y-10570000D01*
X13280000Y-8580000D02*
X13320000Y-8620000D01*
X13320000Y-8580000D02*
X13280000Y-8620000D01*
X13280000Y-13380000D02*
X13320000Y-13420000D01*
X13320000Y-13380000D02*
X13280000Y-13420000D01*
X13305000Y-12480000D02*
X13345000Y-12520000D01*
X13345000Y-12480000D02*
X13305000Y-12520000D01*
X13375675Y-12409324D02*
X13415675Y-12449324D01*
X13415675Y-12409324D02*
X13375675Y-12449324D01*
X13380000Y-12180000D02*
X13420000Y-12220000D01*
X13420000Y-12180000D02*
X13380000Y-12220000D01*
X13380000Y-12305000D02*
X13420000Y-12345000D01*
X13420000Y-12305000D02*
X13380000Y-12345000D01*
X13380000Y-13830000D02*
X13420000Y-13870000D01*
X13420000Y-13830000D02*
X13380000Y-13870000D01*
X13405000Y-12080000D02*
X13445000Y-12120000D01*
X13445000Y-12080000D02*
X13405000Y-12120000D01*
X13630000Y-13580000D02*
X13670000Y-13620000D01*
X13670000Y-13580000D02*
X13630000Y-13620000D01*
X13723630Y-12232550D02*
X13763630Y-12272550D01*
X13763630Y-12232550D02*
X13723630Y-12272550D01*
X13730000Y-12080000D02*
X13770000Y-12120000D01*
X13770000Y-12080000D02*
X13730000Y-12120000D01*
X13748832Y-12369817D02*
X13788832Y-12409817D01*
X13788832Y-12369817D02*
X13748832Y-12409817D01*
X13819508Y-12440492D02*
X13859508Y-12480492D01*
X13859508Y-12440492D02*
X13819508Y-12480492D01*
X13830000Y-12205000D02*
X13870000Y-12245000D01*
X13870000Y-12205000D02*
X13830000Y-12245000D01*
X13930000Y-9230000D02*
X13970000Y-9270000D01*
X13970000Y-9230000D02*
X13930000Y-9270000D01*
X14005000Y-12355000D02*
X14045000Y-12395000D01*
X14045000Y-12355000D02*
X14005000Y-12395000D01*
X14080000Y-12455000D02*
X14120000Y-12495000D01*
X14120000Y-12455000D02*
X14080000Y-12495000D01*
X14084324Y-12557550D02*
X14124324Y-12597550D01*
X14124324Y-12557550D02*
X14084324Y-12597550D01*
X14155000Y-11030000D02*
X14195000Y-11070000D01*
X14195000Y-11030000D02*
X14155000Y-11070000D01*
X14155000Y-12630000D02*
X14195000Y-12670000D01*
X14195000Y-12630000D02*
X14155000Y-12670000D01*
X14180000Y-7080000D02*
X14220000Y-7120000D01*
X14220000Y-7080000D02*
X14180000Y-7120000D01*
X14180000Y-14105000D02*
X14220000Y-14145000D01*
X14220000Y-14105000D02*
X14180000Y-14145000D01*
X14230000Y-11230000D02*
X14270000Y-11270000D01*
X14270000Y-11230000D02*
X14230000Y-11270000D01*
X14280000Y-14230000D02*
X14320000Y-14270000D01*
X14320000Y-14230000D02*
X14280000Y-14270000D01*
X14280000Y-14230000D02*
X14320000Y-14270000D01*
X14320000Y-14230000D02*
X14280000Y-14270000D01*
X14430000Y-14280000D02*
X14470000Y-14320000D01*
X14470000Y-14280000D02*
X14430000Y-14320000D01*
X14480000Y-14430000D02*
X14520000Y-14470000D01*
X14520000Y-14430000D02*
X14480000Y-14470000D01*
X15030000Y-8580000D02*
X15070000Y-8620000D01*
X15070000Y-8580000D02*
X15030000Y-8620000D01*
X15030000Y-8880000D02*
X15070000Y-8920000D01*
X15070000Y-8880000D02*
X15030000Y-8920000D01*
X15030000Y-9055000D02*
X15070000Y-9095000D01*
X15070000Y-9055000D02*
X15030000Y-9095000D01*
X15030000Y-9055000D02*
X15070000Y-9095000D01*
X15070000Y-9055000D02*
X15030000Y-9095000D01*
X15030000Y-9230000D02*
X15070000Y-9270000D01*
X15070000Y-9230000D02*
X15030000Y-9270000D01*
X15030000Y-9380000D02*
X15070000Y-9420000D01*
X15070000Y-9380000D02*
X15030000Y-9420000D01*
X15030000Y-9580000D02*
X15070000Y-9620000D01*
X15070000Y-9580000D02*
X15030000Y-9620000D01*
X15030000Y-9830000D02*
X15070000Y-9870000D01*
X15070000Y-9830000D02*
X15030000Y-9870000D01*
X15030000Y-10080000D02*
X15070000Y-10120000D01*
X15070000Y-10080000D02*
X15030000Y-10120000D01*
X15030000Y-10280000D02*
X15070000Y-10320000D01*
X15070000Y-10280000D02*
X15030000Y-10320000D01*
X15130000Y-13880000D02*
X15170000Y-13920000D01*
X15170000Y-13880000D02*
X15130000Y-13920000D01*
X15230000Y-13880000D02*
X15270000Y-13920000D01*
X15270000Y-13880000D02*
X15230000Y-13920000D01*
X15330000Y-13830000D02*
X15370000Y-13870000D01*
X15370000Y-13830000D02*
X15330000Y-13870000D01*
X15480000Y-10630000D02*
X15520000Y-10670000D01*
X15520000Y-10630000D02*
X15480000Y-10670000D01*
X15480000Y-10630000D02*
X15520000Y-10670000D01*
X15520000Y-10630000D02*
X15480000Y-10670000D01*
X15580000Y-10530000D02*
X15620000Y-10570000D01*
X15620000Y-10530000D02*
X15580000Y-10570000D01*
X15730000Y-13130000D02*
X15770000Y-13170000D01*
X15770000Y-13130000D02*
X15730000Y-13170000D01*
X15930000Y-11080000D02*
X15970000Y-11120000D01*
X15970000Y-11080000D02*
X15930000Y-11120000D01*
X15980000Y-10830000D02*
X16020000Y-10870000D01*
X16020000Y-10830000D02*
X15980000Y-10870000D01*
X16005000Y-8880000D02*
X16045000Y-8920000D01*
X16045000Y-8880000D02*
X16005000Y-8920000D01*
X16005000Y-9055000D02*
X16045000Y-9095000D01*
X16045000Y-9055000D02*
X16005000Y-9095000D01*
X16007550Y-9230000D02*
X16047550Y-9270000D01*
X16047550Y-9230000D02*
X16007550Y-9270000D01*
X16007550Y-9380000D02*
X16047550Y-9420000D01*
X16047550Y-9380000D02*
X16007550Y-9420000D01*
X16007550Y-9630000D02*
X16047550Y-9670000D01*
X16047550Y-9630000D02*
X16007550Y-9670000D01*
X16007550Y-9830000D02*
X16047550Y-9870000D01*
X16047550Y-9830000D02*
X16007550Y-9870000D01*
X16007550Y-10080000D02*
X16047550Y-10120000D01*
X16047550Y-10080000D02*
X16007550Y-10120000D01*
X16007550Y-10280000D02*
X16047550Y-10320000D01*
X16047550Y-10280000D02*
X16007550Y-10320000D01*
X16067500Y-12167500D02*
X16107500Y-12207500D01*
X16107500Y-12167500D02*
X16067500Y-12207500D01*
X16330000Y-14305000D02*
X16370000Y-14345000D01*
X16370000Y-14305000D02*
X16330000Y-14345000D01*
X16430000Y-12530000D02*
X16470000Y-12570000D01*
X16470000Y-12530000D02*
X16430000Y-12570000D01*
X16480000Y-12080000D02*
X16520000Y-12120000D01*
X16520000Y-12080000D02*
X16480000Y-12120000D01*
X16830000Y-13855000D02*
X16870000Y-13895000D01*
X16870000Y-13855000D02*
X16830000Y-13895000D01*
X16955000Y-14205000D02*
X16995000Y-14245000D01*
X16995000Y-14205000D02*
X16955000Y-14245000D01*
X17030000Y-12580000D02*
X17070000Y-12620000D01*
X17070000Y-12580000D02*
X17030000Y-12620000D01*
X17055000Y-12205000D02*
X17095000Y-12245000D01*
X17095000Y-12205000D02*
X17055000Y-12245000D01*
X17055000Y-12330000D02*
X17095000Y-12370000D01*
X17095000Y-12330000D02*
X17055000Y-12370000D01*
X17230000Y-13830000D02*
X17270000Y-13870000D01*
X17270000Y-13830000D02*
X17230000Y-13870000D01*
X17430000Y-13830000D02*
X17470000Y-13870000D01*
X17470000Y-13830000D02*
X17430000Y-13870000D01*
X17480000Y-12180000D02*
X17520000Y-12220000D01*
X17520000Y-12180000D02*
X17480000Y-12220000D01*
X17480000Y-12780000D02*
X17520000Y-12820000D01*
X17520000Y-12780000D02*
X17480000Y-12820000D01*
X17630000Y-3730000D02*
X17670000Y-3770000D01*
X17670000Y-3730000D02*
X17630000Y-3770000D01*
X17630000Y-3830000D02*
X17670000Y-3870000D01*
X17670000Y-3830000D02*
X17630000Y-3870000D01*
X17630000Y-3930000D02*
X17670000Y-3970000D01*
X17670000Y-3930000D02*
X17630000Y-3970000D01*
X17630000Y-4030000D02*
X17670000Y-4070000D01*
X17670000Y-4030000D02*
X17630000Y-4070000D01*
X17655000Y-12880000D02*
X17695000Y-12920000D01*
X17695000Y-12880000D02*
X17655000Y-12920000D01*
X17880000Y-13030000D02*
X17920000Y-13070000D01*
X17920000Y-13030000D02*
X17880000Y-13070000D01*
X17880000Y-13030000D02*
X17920000Y-13070000D01*
X17920000Y-13030000D02*
X17880000Y-13070000D01*
X17930000Y-14230000D02*
X17970000Y-14270000D01*
X17970000Y-14230000D02*
X17930000Y-14270000D01*
X18005000Y-14330000D02*
X18045000Y-14370000D01*
X18045000Y-14330000D02*
X18005000Y-14370000D01*
X18080000Y-11555000D02*
X18120000Y-11595000D01*
X18120000Y-11555000D02*
X18080000Y-11595000D01*
X18080000Y-12105000D02*
X18120000Y-12145000D01*
X18120000Y-12105000D02*
X18080000Y-12145000D01*
X19105000Y-2430000D02*
X19145000Y-2470000D01*
X19145000Y-2430000D02*
X19105000Y-2470000D01*
D13*
X19485000Y-2388000D02*
G75*
G03*
X19485000Y-2388000I-35000J0D01*
G01*
X19485000Y-3150000D02*
G75*
G03*
X19485000Y-3150000I-35000J0D01*
G01*
D14*
X17750000Y-2710000D02*
X17750000Y-2790000D01*
X17710000Y-2750000D02*
X17790000Y-2750000D01*
D11*
X17835000Y-2710000D02*
X17665000Y-2710000D01*
X17835000Y-2790000D02*
X17665000Y-2790000D01*
X17665000Y-2710000D02*
G75*
G03*
X17665000Y-2790000I0J-40000D01*
G01*
X17835000Y-2790000D02*
G75*
G03*
X17835000Y-2710000I0J40000D01*
G01*
D14*
X18025000Y-2430000D02*
X18025000Y-2510000D01*
X17985000Y-2470000D02*
X18065000Y-2470000D01*
D11*
X18150000Y-2430000D02*
X17900000Y-2430000D01*
X18150000Y-2510000D02*
X17900000Y-2510000D01*
X17900000Y-2430000D02*
G75*
G03*
X17900000Y-2510000I0J-40000D01*
G01*
X18150000Y-2510000D02*
G75*
G03*
X18150000Y-2430000I0J40000D01*
G01*
D14*
X19925000Y-2685000D02*
X19925000Y-2765000D01*
X19885000Y-2725000D02*
X19965000Y-2725000D01*
D11*
X20010000Y-2685000D02*
X19840000Y-2685000D01*
X20010000Y-2765000D02*
X19840000Y-2765000D01*
X19840000Y-2685000D02*
G75*
G03*
X19840000Y-2765000I0J-40000D01*
G01*
X20010000Y-2765000D02*
G75*
G03*
X20010000Y-2685000I0J40000D01*
G01*
D14*
X20200000Y-2405000D02*
X20200000Y-2485000D01*
X20160000Y-2445000D02*
X20240000Y-2445000D01*
D11*
X20325000Y-2405000D02*
X20075000Y-2405000D01*
X20325000Y-2485000D02*
X20075000Y-2485000D01*
X20075000Y-2405000D02*
G75*
G03*
X20075000Y-2485000I0J-40000D01*
G01*
X20325000Y-2485000D02*
G75*
G03*
X20325000Y-2405000I0J40000D01*
G01*
D15*
X12144931Y-13896820D02*
X12144931Y-13833180D01*
X12081291Y-13833180D01*
X12081291Y-13896820D01*
X12144931Y-13896820D01*
X12271931Y-13642820D02*
X12271931Y-13579180D01*
X12208291Y-13579180D01*
X12208291Y-13642820D01*
X12271931Y-13642820D01*
X12398931Y-13896820D02*
X12398931Y-13833180D01*
X12335291Y-13833180D01*
X12335291Y-13896820D01*
X12398931Y-13896820D01*
X12525931Y-13642820D02*
X12525931Y-13579180D01*
X12462291Y-13579180D01*
X12462291Y-13642820D01*
X12525931Y-13642820D01*
X12652931Y-13896820D02*
X12652931Y-13833180D01*
X12589291Y-13833180D01*
X12589291Y-13896820D01*
X12652931Y-13896820D01*
X12779931Y-13642820D02*
X12779931Y-13579180D01*
X12716291Y-13579180D01*
X12716291Y-13642820D01*
X12779931Y-13642820D01*
X12906931Y-13896820D02*
X12906931Y-13833180D01*
X12843291Y-13833180D01*
X12843291Y-13896820D01*
X12906931Y-13896820D01*
X13033931Y-13642820D02*
X13033931Y-13579180D01*
X12970291Y-13579180D01*
X12970291Y-13642820D01*
X13033931Y-13642820D01*
X14030376Y-13896820D02*
X14030376Y-13833180D01*
X13966735Y-13833180D01*
X13966735Y-13896820D01*
X14030376Y-13896820D01*
X14157376Y-13642820D02*
X14157376Y-13579180D01*
X14093735Y-13579180D01*
X14093735Y-13642820D01*
X14157376Y-13642820D01*
X14284376Y-13896820D02*
X14284376Y-13833180D01*
X14220735Y-13833180D01*
X14220735Y-13896820D01*
X14284376Y-13896820D01*
X14411376Y-13642820D02*
X14411376Y-13579180D01*
X14347735Y-13579180D01*
X14347735Y-13642820D01*
X14411376Y-13642820D01*
X14538376Y-13896820D02*
X14538376Y-13833180D01*
X14474735Y-13833180D01*
X14474735Y-13896820D01*
X14538376Y-13896820D01*
X14665376Y-13642820D02*
X14665376Y-13579180D01*
X14601735Y-13579180D01*
X14601735Y-13642820D01*
X14665376Y-13642820D01*
X14792376Y-13896820D02*
X14792376Y-13833180D01*
X14728735Y-13833180D01*
X14728735Y-13896820D01*
X14792376Y-13896820D01*
X14919376Y-13642820D02*
X14919376Y-13579180D01*
X14855735Y-13579180D01*
X14855735Y-13642820D01*
X14919376Y-13642820D01*
X15915820Y-13896820D02*
X15915820Y-13833180D01*
X15852180Y-13833180D01*
X15852180Y-13896820D01*
X15915820Y-13896820D01*
X16042820Y-13642820D02*
X16042820Y-13579180D01*
X15979180Y-13579180D01*
X15979180Y-13642820D01*
X16042820Y-13642820D01*
X16169820Y-13896820D02*
X16169820Y-13833180D01*
X16106180Y-13833180D01*
X16106180Y-13896820D01*
X16169820Y-13896820D01*
X16296820Y-13642820D02*
X16296820Y-13579180D01*
X16233180Y-13579180D01*
X16233180Y-13642820D01*
X16296820Y-13642820D01*
X16423820Y-13896820D02*
X16423820Y-13833180D01*
X16360180Y-13833180D01*
X16360180Y-13896820D01*
X16423820Y-13896820D01*
X16550820Y-13642820D02*
X16550820Y-13579180D01*
X16487180Y-13579180D01*
X16487180Y-13642820D01*
X16550820Y-13642820D01*
X16677820Y-13896820D02*
X16677820Y-13833180D01*
X16614180Y-13833180D01*
X16614180Y-13896820D01*
X16677820Y-13896820D01*
X16804820Y-13642820D02*
X16804820Y-13579180D01*
X16741180Y-13579180D01*
X16741180Y-13642820D01*
X16804820Y-13642820D01*
X17801265Y-13896820D02*
X17801265Y-13833180D01*
X17737624Y-13833180D01*
X17737624Y-13896820D01*
X17801265Y-13896820D01*
X17928265Y-13642820D02*
X17928265Y-13579180D01*
X17864624Y-13579180D01*
X17864624Y-13642820D01*
X17928265Y-13642820D01*
X18055265Y-13896820D02*
X18055265Y-13833180D01*
X17991624Y-13833180D01*
X17991624Y-13896820D01*
X18055265Y-13896820D01*
X18182265Y-13642820D02*
X18182265Y-13579180D01*
X18118624Y-13579180D01*
X18118624Y-13642820D01*
X18182265Y-13642820D01*
X18309265Y-13896820D02*
X18309265Y-13833180D01*
X18245624Y-13833180D01*
X18245624Y-13896820D01*
X18309265Y-13896820D01*
X18436265Y-13642820D02*
X18436265Y-13579180D01*
X18372624Y-13579180D01*
X18372624Y-13642820D01*
X18436265Y-13642820D01*
X18563265Y-13896820D02*
X18563265Y-13833180D01*
X18499624Y-13833180D01*
X18499624Y-13896820D01*
X18563265Y-13896820D01*
X18690265Y-13642820D02*
X18690265Y-13579180D01*
X18626624Y-13579180D01*
X18626624Y-13642820D01*
X18690265Y-13642820D01*
D10*
X18150000Y-3050000D02*
X18200000Y-3000000D01*
X18150000Y-2950000D01*
X18100000Y-3000000D01*
X18150000Y-3050000D01*
D11*
X18100000Y-2835000D02*
X18100000Y-3165000D01*
X18200000Y-2835000D02*
X18200000Y-3165000D01*
X18100000Y-3165000D02*
G75*
G03*
X18200000Y-3165000I50000J0D01*
G01*
X18200000Y-2835000D02*
G75*
G03*
X18100000Y-2835000I-50000J0D01*
G01*
D10*
X20325000Y-3025000D02*
X20375000Y-2975000D01*
X20325000Y-2925000D01*
X20275000Y-2975000D01*
X20325000Y-3025000D01*
D11*
X20275000Y-2810000D02*
X20275000Y-3140000D01*
X20375000Y-2810000D02*
X20375000Y-3140000D01*
X20275000Y-3140000D02*
G75*
G03*
X20375000Y-3140000I50000J0D01*
G01*
X20375000Y-2810000D02*
G75*
G03*
X20275000Y-2810000I-50000J0D01*
G01*
D16*
X11977450Y-4091300D02*
X12079050Y-4192900D01*
X12079050Y-4091300D02*
X11977450Y-4192900D01*
X12079050Y-4142100D02*
G75*
G03*
X12079050Y-4142100I-50800J0D01*
G01*
X11977450Y-4345300D02*
X12079050Y-4446900D01*
X12079050Y-4345300D02*
X11977450Y-4446900D01*
X12079050Y-4396100D02*
G75*
G03*
X12079050Y-4396100I-50800J0D01*
G01*
X11977450Y-4599300D02*
X12079050Y-4700900D01*
X12079050Y-4599300D02*
X11977450Y-4700900D01*
X12079050Y-4650100D02*
G75*
G03*
X12079050Y-4650100I-50800J0D01*
G01*
X11977450Y-4853300D02*
X12079050Y-4954900D01*
X12079050Y-4853300D02*
X11977450Y-4954900D01*
X12079050Y-4904100D02*
G75*
G03*
X12079050Y-4904100I-50800J0D01*
G01*
X11977450Y-5107300D02*
X12079050Y-5208900D01*
X12079050Y-5107300D02*
X11977450Y-5208900D01*
X12079050Y-5158100D02*
G75*
G03*
X12079050Y-5158100I-50800J0D01*
G01*
X11977450Y-5361300D02*
X12079050Y-5462900D01*
X12079050Y-5361300D02*
X11977450Y-5462900D01*
X12079050Y-5412100D02*
G75*
G03*
X12079050Y-5412100I-50800J0D01*
G01*
X11977450Y-5615300D02*
X12079050Y-5716900D01*
X12079050Y-5615300D02*
X11977450Y-5716900D01*
X12079050Y-5666100D02*
G75*
G03*
X12079050Y-5666100I-50800J0D01*
G01*
X11977450Y-5869300D02*
X12079050Y-5970900D01*
X12079050Y-5869300D02*
X11977450Y-5970900D01*
X12079050Y-5920100D02*
G75*
G03*
X12079050Y-5920100I-50800J0D01*
G01*
X11977450Y-6123300D02*
X12079050Y-6224900D01*
X12079050Y-6123300D02*
X11977450Y-6224900D01*
X12079050Y-6174100D02*
G75*
G03*
X12079050Y-6174100I-50800J0D01*
G01*
X11977450Y-6377300D02*
X12079050Y-6478900D01*
X12079050Y-6377300D02*
X11977450Y-6478900D01*
X12079050Y-6428100D02*
G75*
G03*
X12079050Y-6428100I-50800J0D01*
G01*
X11977450Y-6783700D02*
X12079050Y-6885300D01*
X12079050Y-6783700D02*
X11977450Y-6885300D01*
X12079050Y-6834500D02*
G75*
G03*
X12079050Y-6834500I-50800J0D01*
G01*
X11977450Y-7037700D02*
X12079050Y-7139300D01*
X12079050Y-7037700D02*
X11977450Y-7139300D01*
X12079050Y-7088500D02*
G75*
G03*
X12079050Y-7088500I-50800J0D01*
G01*
X11977450Y-7291700D02*
X12079050Y-7393300D01*
X12079050Y-7291700D02*
X11977450Y-7393300D01*
X12079050Y-7342500D02*
G75*
G03*
X12079050Y-7342500I-50800J0D01*
G01*
X11977450Y-7545700D02*
X12079050Y-7647300D01*
X12079050Y-7545700D02*
X11977450Y-7647300D01*
X12079050Y-7596500D02*
G75*
G03*
X12079050Y-7596500I-50800J0D01*
G01*
X11977450Y-7799700D02*
X12079050Y-7901300D01*
X12079050Y-7799700D02*
X11977450Y-7901300D01*
X12079050Y-7850500D02*
G75*
G03*
X12079050Y-7850500I-50800J0D01*
G01*
X11977450Y-8053700D02*
X12079050Y-8155300D01*
X12079050Y-8053700D02*
X11977450Y-8155300D01*
X12079050Y-8104500D02*
G75*
G03*
X12079050Y-8104500I-50800J0D01*
G01*
X11977450Y-8307700D02*
X12079050Y-8409300D01*
X12079050Y-8307700D02*
X11977450Y-8409300D01*
X12079050Y-8358500D02*
G75*
G03*
X12079050Y-8358500I-50800J0D01*
G01*
X11977450Y-8561700D02*
X12079050Y-8663300D01*
X12079050Y-8561700D02*
X11977450Y-8663300D01*
X12079050Y-8612500D02*
G75*
G03*
X12079050Y-8612500I-50800J0D01*
G01*
X11977450Y-9069700D02*
X12079050Y-9171300D01*
X12079050Y-9069700D02*
X11977450Y-9171300D01*
X12079050Y-9120500D02*
G75*
G03*
X12079050Y-9120500I-50800J0D01*
G01*
X11977450Y-9323700D02*
X12079050Y-9425300D01*
X12079050Y-9323700D02*
X11977450Y-9425300D01*
X12079050Y-9374500D02*
G75*
G03*
X12079050Y-9374500I-50800J0D01*
G01*
X11977450Y-9577700D02*
X12079050Y-9679300D01*
X12079050Y-9577700D02*
X11977450Y-9679300D01*
X12079050Y-9628500D02*
G75*
G03*
X12079050Y-9628500I-50800J0D01*
G01*
X11977450Y-9831700D02*
X12079050Y-9933300D01*
X12079050Y-9831700D02*
X11977450Y-9933300D01*
X12079050Y-9882500D02*
G75*
G03*
X12079050Y-9882500I-50800J0D01*
G01*
X11977450Y-10085700D02*
X12079050Y-10187300D01*
X12079050Y-10085700D02*
X11977450Y-10187300D01*
X12079050Y-10136500D02*
G75*
G03*
X12079050Y-10136500I-50800J0D01*
G01*
X11977450Y-10339700D02*
X12079050Y-10441300D01*
X12079050Y-10339700D02*
X11977450Y-10441300D01*
X12079050Y-10390500D02*
G75*
G03*
X12079050Y-10390500I-50800J0D01*
G01*
X11977450Y-10593700D02*
X12079050Y-10695300D01*
X12079050Y-10593700D02*
X11977450Y-10695300D01*
X12079050Y-10644500D02*
G75*
G03*
X12079050Y-10644500I-50800J0D01*
G01*
X11977450Y-10847700D02*
X12079050Y-10949300D01*
X12079050Y-10847700D02*
X11977450Y-10949300D01*
X12079050Y-10898500D02*
G75*
G03*
X12079050Y-10898500I-50800J0D01*
G01*
X11977450Y-11609700D02*
X12079050Y-11711300D01*
X12079050Y-11609700D02*
X11977450Y-11711300D01*
X12079050Y-11660500D02*
G75*
G03*
X12079050Y-11660500I-50800J0D01*
G01*
X11977450Y-11863700D02*
X12079050Y-11965300D01*
X12079050Y-11863700D02*
X11977450Y-11965300D01*
X12079050Y-11914500D02*
G75*
G03*
X12079050Y-11914500I-50800J0D01*
G01*
X12231450Y-11609700D02*
X12333050Y-11711300D01*
X12333050Y-11609700D02*
X12231450Y-11711300D01*
X12333050Y-11660500D02*
G75*
G03*
X12333050Y-11660500I-50800J0D01*
G01*
X12231450Y-11863700D02*
X12333050Y-11965300D01*
X12333050Y-11863700D02*
X12231450Y-11965300D01*
X12333050Y-11914500D02*
G75*
G03*
X12333050Y-11914500I-50800J0D01*
G01*
X12485450Y-11609700D02*
X12587050Y-11711300D01*
X12587050Y-11609700D02*
X12485450Y-11711300D01*
X12587050Y-11660500D02*
G75*
G03*
X12587050Y-11660500I-50800J0D01*
G01*
X12485450Y-11863700D02*
X12587050Y-11965300D01*
X12587050Y-11863700D02*
X12485450Y-11965300D01*
X12587050Y-11914500D02*
G75*
G03*
X12587050Y-11914500I-50800J0D01*
G01*
X12739450Y-11609700D02*
X12841050Y-11711300D01*
X12841050Y-11609700D02*
X12739450Y-11711300D01*
X12841050Y-11660500D02*
G75*
G03*
X12841050Y-11660500I-50800J0D01*
G01*
X12739450Y-11863700D02*
X12841050Y-11965300D01*
X12841050Y-11863700D02*
X12739450Y-11965300D01*
X12841050Y-11914500D02*
G75*
G03*
X12841050Y-11914500I-50800J0D01*
G01*
X12993450Y-11609700D02*
X13095050Y-11711300D01*
X13095050Y-11609700D02*
X12993450Y-11711300D01*
X13095050Y-11660500D02*
G75*
G03*
X13095050Y-11660500I-50800J0D01*
G01*
X12993450Y-11863700D02*
X13095050Y-11965300D01*
X13095050Y-11863700D02*
X12993450Y-11965300D01*
X13095050Y-11914500D02*
G75*
G03*
X13095050Y-11914500I-50800J0D01*
G01*
X13247450Y-11609700D02*
X13349050Y-11711300D01*
X13349050Y-11609700D02*
X13247450Y-11711300D01*
X13349050Y-11660500D02*
G75*
G03*
X13349050Y-11660500I-50800J0D01*
G01*
X13247450Y-11863700D02*
X13349050Y-11965300D01*
X13349050Y-11863700D02*
X13247450Y-11965300D01*
X13349050Y-11914500D02*
G75*
G03*
X13349050Y-11914500I-50800J0D01*
G01*
X13501450Y-11609700D02*
X13603050Y-11711300D01*
X13603050Y-11609700D02*
X13501450Y-11711300D01*
X13603050Y-11660500D02*
G75*
G03*
X13603050Y-11660500I-50800J0D01*
G01*
X13501450Y-11863700D02*
X13603050Y-11965300D01*
X13603050Y-11863700D02*
X13501450Y-11965300D01*
X13603050Y-11914500D02*
G75*
G03*
X13603050Y-11914500I-50800J0D01*
G01*
X13755450Y-11609700D02*
X13857050Y-11711300D01*
X13857050Y-11609700D02*
X13755450Y-11711300D01*
X13857050Y-11660500D02*
G75*
G03*
X13857050Y-11660500I-50800J0D01*
G01*
X13755450Y-11863700D02*
X13857050Y-11965300D01*
X13857050Y-11863700D02*
X13755450Y-11965300D01*
X13857050Y-11914500D02*
G75*
G03*
X13857050Y-11914500I-50800J0D01*
G01*
X14009450Y-8574400D02*
X14111050Y-8676000D01*
X14111050Y-8574400D02*
X14009450Y-8676000D01*
X14111050Y-8625200D02*
G75*
G03*
X14111050Y-8625200I-50800J0D01*
G01*
X14009450Y-8828400D02*
X14111050Y-8930000D01*
X14111050Y-8828400D02*
X14009450Y-8930000D01*
X14111050Y-8879200D02*
G75*
G03*
X14111050Y-8879200I-50800J0D01*
G01*
X14009450Y-11609700D02*
X14111050Y-11711300D01*
X14111050Y-11609700D02*
X14009450Y-11711300D01*
X14111050Y-11660500D02*
G75*
G03*
X14111050Y-11660500I-50800J0D01*
G01*
X14009450Y-11863700D02*
X14111050Y-11965300D01*
X14111050Y-11863700D02*
X14009450Y-11965300D01*
X14111050Y-11914500D02*
G75*
G03*
X14111050Y-11914500I-50800J0D01*
G01*
X14263450Y-8574400D02*
X14365050Y-8676000D01*
X14365050Y-8574400D02*
X14263450Y-8676000D01*
X14365050Y-8625200D02*
G75*
G03*
X14365050Y-8625200I-50800J0D01*
G01*
X14263450Y-8828400D02*
X14365050Y-8930000D01*
X14365050Y-8828400D02*
X14263450Y-8930000D01*
X14365050Y-8879200D02*
G75*
G03*
X14365050Y-8879200I-50800J0D01*
G01*
X14263450Y-11609700D02*
X14365050Y-11711300D01*
X14365050Y-11609700D02*
X14263450Y-11711300D01*
X14365050Y-11660500D02*
G75*
G03*
X14365050Y-11660500I-50800J0D01*
G01*
X14263450Y-11863700D02*
X14365050Y-11965300D01*
X14365050Y-11863700D02*
X14263450Y-11965300D01*
X14365050Y-11914500D02*
G75*
G03*
X14365050Y-11914500I-50800J0D01*
G01*
X14517450Y-8574400D02*
X14619050Y-8676000D01*
X14619050Y-8574400D02*
X14517450Y-8676000D01*
X14619050Y-8625200D02*
G75*
G03*
X14619050Y-8625200I-50800J0D01*
G01*
X14517450Y-8828400D02*
X14619050Y-8930000D01*
X14619050Y-8828400D02*
X14517450Y-8930000D01*
X14619050Y-8879200D02*
G75*
G03*
X14619050Y-8879200I-50800J0D01*
G01*
X14517450Y-11609700D02*
X14619050Y-11711300D01*
X14619050Y-11609700D02*
X14517450Y-11711300D01*
X14619050Y-11660500D02*
G75*
G03*
X14619050Y-11660500I-50800J0D01*
G01*
X14517450Y-11863700D02*
X14619050Y-11965300D01*
X14619050Y-11863700D02*
X14517450Y-11965300D01*
X14619050Y-11914500D02*
G75*
G03*
X14619050Y-11914500I-50800J0D01*
G01*
X14771450Y-11609700D02*
X14873050Y-11711300D01*
X14873050Y-11609700D02*
X14771450Y-11711300D01*
X14873050Y-11660500D02*
G75*
G03*
X14873050Y-11660500I-50800J0D01*
G01*
X14771450Y-11863700D02*
X14873050Y-11965300D01*
X14873050Y-11863700D02*
X14771450Y-11965300D01*
X14873050Y-11914500D02*
G75*
G03*
X14873050Y-11914500I-50800J0D01*
G01*
X15025450Y-11609700D02*
X15127050Y-11711300D01*
X15127050Y-11609700D02*
X15025450Y-11711300D01*
X15127050Y-11660500D02*
G75*
G03*
X15127050Y-11660500I-50800J0D01*
G01*
X15025450Y-11863700D02*
X15127050Y-11965300D01*
X15127050Y-11863700D02*
X15025450Y-11965300D01*
X15127050Y-11914500D02*
G75*
G03*
X15127050Y-11914500I-50800J0D01*
G01*
X15279450Y-11609700D02*
X15381050Y-11711300D01*
X15381050Y-11609700D02*
X15279450Y-11711300D01*
X15381050Y-11660500D02*
G75*
G03*
X15381050Y-11660500I-50800J0D01*
G01*
X15279450Y-11863700D02*
X15381050Y-11965300D01*
X15381050Y-11863700D02*
X15279450Y-11965300D01*
X15381050Y-11914500D02*
G75*
G03*
X15381050Y-11914500I-50800J0D01*
G01*
X15533450Y-11609700D02*
X15635050Y-11711300D01*
X15635050Y-11609700D02*
X15533450Y-11711300D01*
X15635050Y-11660500D02*
G75*
G03*
X15635050Y-11660500I-50800J0D01*
G01*
X15533450Y-11863700D02*
X15635050Y-11965300D01*
X15635050Y-11863700D02*
X15533450Y-11965300D01*
X15635050Y-11914500D02*
G75*
G03*
X15635050Y-11914500I-50800J0D01*
G01*
X15787450Y-11609700D02*
X15889050Y-11711300D01*
X15889050Y-11609700D02*
X15787450Y-11711300D01*
X15889050Y-11660500D02*
G75*
G03*
X15889050Y-11660500I-50800J0D01*
G01*
X15787450Y-11863700D02*
X15889050Y-11965300D01*
X15889050Y-11863700D02*
X15787450Y-11965300D01*
X15889050Y-11914500D02*
G75*
G03*
X15889050Y-11914500I-50800J0D01*
G01*
X16041450Y-11609700D02*
X16143050Y-11711300D01*
X16143050Y-11609700D02*
X16041450Y-11711300D01*
X16143050Y-11660500D02*
G75*
G03*
X16143050Y-11660500I-50800J0D01*
G01*
X16041450Y-11863700D02*
X16143050Y-11965300D01*
X16143050Y-11863700D02*
X16041450Y-11965300D01*
X16143050Y-11914500D02*
G75*
G03*
X16143050Y-11914500I-50800J0D01*
G01*
X16295450Y-11609700D02*
X16397050Y-11711300D01*
X16397050Y-11609700D02*
X16295450Y-11711300D01*
X16397050Y-11660500D02*
G75*
G03*
X16397050Y-11660500I-50800J0D01*
G01*
X16295450Y-11863700D02*
X16397050Y-11965300D01*
X16397050Y-11863700D02*
X16295450Y-11965300D01*
X16397050Y-11914500D02*
G75*
G03*
X16397050Y-11914500I-50800J0D01*
G01*
X16803450Y-5005700D02*
X16905050Y-5107300D01*
X16905050Y-5005700D02*
X16803450Y-5107300D01*
X16905050Y-5056500D02*
G75*
G03*
X16905050Y-5056500I-50800J0D01*
G01*
X16803450Y-5259700D02*
X16905050Y-5361300D01*
X16905050Y-5259700D02*
X16803450Y-5361300D01*
X16905050Y-5310500D02*
G75*
G03*
X16905050Y-5310500I-50800J0D01*
G01*
X16803450Y-5513700D02*
X16905050Y-5615300D01*
X16905050Y-5513700D02*
X16803450Y-5615300D01*
X16905050Y-5564500D02*
G75*
G03*
X16905050Y-5564500I-50800J0D01*
G01*
X16803450Y-5767700D02*
X16905050Y-5869300D01*
X16905050Y-5767700D02*
X16803450Y-5869300D01*
X16905050Y-5818500D02*
G75*
G03*
X16905050Y-5818500I-50800J0D01*
G01*
X16803450Y-6021700D02*
X16905050Y-6123300D01*
X16905050Y-6021700D02*
X16803450Y-6123300D01*
X16905050Y-6072500D02*
G75*
G03*
X16905050Y-6072500I-50800J0D01*
G01*
X16803450Y-6275700D02*
X16905050Y-6377300D01*
X16905050Y-6275700D02*
X16803450Y-6377300D01*
X16905050Y-6326500D02*
G75*
G03*
X16905050Y-6326500I-50800J0D01*
G01*
X16803450Y-6529700D02*
X16905050Y-6631300D01*
X16905050Y-6529700D02*
X16803450Y-6631300D01*
X16905050Y-6580500D02*
G75*
G03*
X16905050Y-6580500I-50800J0D01*
G01*
X16803450Y-6783700D02*
X16905050Y-6885300D01*
X16905050Y-6783700D02*
X16803450Y-6885300D01*
X16905050Y-6834500D02*
G75*
G03*
X16905050Y-6834500I-50800J0D01*
G01*
X16803450Y-7291700D02*
X16905050Y-7393300D01*
X16905050Y-7291700D02*
X16803450Y-7393300D01*
X16905050Y-7342500D02*
G75*
G03*
X16905050Y-7342500I-50800J0D01*
G01*
X16803450Y-7545700D02*
X16905050Y-7647300D01*
X16905050Y-7545700D02*
X16803450Y-7647300D01*
X16905050Y-7596500D02*
G75*
G03*
X16905050Y-7596500I-50800J0D01*
G01*
X16803450Y-7799700D02*
X16905050Y-7901300D01*
X16905050Y-7799700D02*
X16803450Y-7901300D01*
X16905050Y-7850500D02*
G75*
G03*
X16905050Y-7850500I-50800J0D01*
G01*
X16803450Y-8053700D02*
X16905050Y-8155300D01*
X16905050Y-8053700D02*
X16803450Y-8155300D01*
X16905050Y-8104500D02*
G75*
G03*
X16905050Y-8104500I-50800J0D01*
G01*
X16803450Y-8307700D02*
X16905050Y-8409300D01*
X16905050Y-8307700D02*
X16803450Y-8409300D01*
X16905050Y-8358500D02*
G75*
G03*
X16905050Y-8358500I-50800J0D01*
G01*
X16803450Y-8561700D02*
X16905050Y-8663300D01*
X16905050Y-8561700D02*
X16803450Y-8663300D01*
X16905050Y-8612500D02*
G75*
G03*
X16905050Y-8612500I-50800J0D01*
G01*
X16803450Y-8815700D02*
X16905050Y-8917300D01*
X16905050Y-8815700D02*
X16803450Y-8917300D01*
X16905050Y-8866500D02*
G75*
G03*
X16905050Y-8866500I-50800J0D01*
G01*
X16803450Y-9069700D02*
X16905050Y-9171300D01*
X16905050Y-9069700D02*
X16803450Y-9171300D01*
X16905050Y-9120500D02*
G75*
G03*
X16905050Y-9120500I-50800J0D01*
G01*
X16803450Y-9577700D02*
X16905050Y-9679300D01*
X16905050Y-9577700D02*
X16803450Y-9679300D01*
X16905050Y-9628500D02*
G75*
G03*
X16905050Y-9628500I-50800J0D01*
G01*
X16803450Y-9831700D02*
X16905050Y-9933300D01*
X16905050Y-9831700D02*
X16803450Y-9933300D01*
X16905050Y-9882500D02*
G75*
G03*
X16905050Y-9882500I-50800J0D01*
G01*
X16803450Y-10085700D02*
X16905050Y-10187300D01*
X16905050Y-10085700D02*
X16803450Y-10187300D01*
X16905050Y-10136500D02*
G75*
G03*
X16905050Y-10136500I-50800J0D01*
G01*
X16803450Y-10339700D02*
X16905050Y-10441300D01*
X16905050Y-10339700D02*
X16803450Y-10441300D01*
X16905050Y-10390500D02*
G75*
G03*
X16905050Y-10390500I-50800J0D01*
G01*
X16803450Y-10593700D02*
X16905050Y-10695300D01*
X16905050Y-10593700D02*
X16803450Y-10695300D01*
X16905050Y-10644500D02*
G75*
G03*
X16905050Y-10644500I-50800J0D01*
G01*
X16803450Y-10847700D02*
X16905050Y-10949300D01*
X16905050Y-10847700D02*
X16803450Y-10949300D01*
X16905050Y-10898500D02*
G75*
G03*
X16905050Y-10898500I-50800J0D01*
G01*
X16803450Y-11101700D02*
X16905050Y-11203300D01*
X16905050Y-11101700D02*
X16803450Y-11203300D01*
X16905050Y-11152500D02*
G75*
G03*
X16905050Y-11152500I-50800J0D01*
G01*
X16803450Y-11355700D02*
X16905050Y-11457300D01*
X16905050Y-11355700D02*
X16803450Y-11457300D01*
X16905050Y-11406500D02*
G75*
G03*
X16905050Y-11406500I-50800J0D01*
G01*
D17*
X11065000Y-2535000D02*
X11175000Y-2645000D01*
X11175000Y-2535000D02*
X11065000Y-2645000D01*
X11120000Y-2535000D02*
X11120000Y-2645000D01*
X11065000Y-2590000D02*
X11175000Y-2590000D01*
X11065000Y-3035000D02*
X11175000Y-3145000D01*
X11175000Y-3035000D02*
X11065000Y-3145000D01*
X11120000Y-3035000D02*
X11120000Y-3145000D01*
X11065000Y-3090000D02*
X11175000Y-3090000D01*
X11065000Y-3535000D02*
X11175000Y-3645000D01*
X11175000Y-3535000D02*
X11065000Y-3645000D01*
X11120000Y-3535000D02*
X11120000Y-3645000D01*
X11065000Y-3590000D02*
X11175000Y-3590000D01*
X11065000Y-4035000D02*
X11175000Y-4145000D01*
X11175000Y-4035000D02*
X11065000Y-4145000D01*
X11120000Y-4035000D02*
X11120000Y-4145000D01*
X11065000Y-4090000D02*
X11175000Y-4090000D01*
X11065000Y-4535000D02*
X11175000Y-4645000D01*
X11175000Y-4535000D02*
X11065000Y-4645000D01*
X11120000Y-4535000D02*
X11120000Y-4645000D01*
X11065000Y-4590000D02*
X11175000Y-4590000D01*
X11065000Y-5035000D02*
X11175000Y-5145000D01*
X11175000Y-5035000D02*
X11065000Y-5145000D01*
X11120000Y-5035000D02*
X11120000Y-5145000D01*
X11065000Y-5090000D02*
X11175000Y-5090000D01*
X11065000Y-5760000D02*
X11175000Y-5870000D01*
X11175000Y-5760000D02*
X11065000Y-5870000D01*
X11120000Y-5760000D02*
X11120000Y-5870000D01*
X11065000Y-5815000D02*
X11175000Y-5815000D01*
X11065000Y-6260000D02*
X11175000Y-6370000D01*
X11175000Y-6260000D02*
X11065000Y-6370000D01*
X11120000Y-6260000D02*
X11120000Y-6370000D01*
X11065000Y-6315000D02*
X11175000Y-6315000D01*
X11065000Y-6760000D02*
X11175000Y-6870000D01*
X11175000Y-6760000D02*
X11065000Y-6870000D01*
X11120000Y-6760000D02*
X11120000Y-6870000D01*
X11065000Y-6815000D02*
X11175000Y-6815000D01*
X11065000Y-7260000D02*
X11175000Y-7370000D01*
X11175000Y-7260000D02*
X11065000Y-7370000D01*
X11120000Y-7260000D02*
X11120000Y-7370000D01*
X11065000Y-7315000D02*
X11175000Y-7315000D01*
X11065000Y-7760000D02*
X11175000Y-7870000D01*
X11175000Y-7760000D02*
X11065000Y-7870000D01*
X11120000Y-7760000D02*
X11120000Y-7870000D01*
X11065000Y-7815000D02*
X11175000Y-7815000D01*
X11065000Y-8260000D02*
X11175000Y-8370000D01*
X11175000Y-8260000D02*
X11065000Y-8370000D01*
X11120000Y-8260000D02*
X11120000Y-8370000D01*
X11065000Y-8315000D02*
X11175000Y-8315000D01*
X11065000Y-8760000D02*
X11175000Y-8870000D01*
X11175000Y-8760000D02*
X11065000Y-8870000D01*
X11120000Y-8760000D02*
X11120000Y-8870000D01*
X11065000Y-8815000D02*
X11175000Y-8815000D01*
X11065000Y-9260000D02*
X11175000Y-9370000D01*
X11175000Y-9260000D02*
X11065000Y-9370000D01*
X11120000Y-9260000D02*
X11120000Y-9370000D01*
X11065000Y-9315000D02*
X11175000Y-9315000D01*
X11065000Y-9995000D02*
X11175000Y-10105000D01*
X11175000Y-9995000D02*
X11065000Y-10105000D01*
X11120000Y-9995000D02*
X11120000Y-10105000D01*
X11065000Y-10050000D02*
X11175000Y-10050000D01*
X11065000Y-10495000D02*
X11175000Y-10605000D01*
X11175000Y-10495000D02*
X11065000Y-10605000D01*
X11120000Y-10495000D02*
X11120000Y-10605000D01*
X11065000Y-10550000D02*
X11175000Y-10550000D01*
X11065000Y-10995000D02*
X11175000Y-11105000D01*
X11175000Y-10995000D02*
X11065000Y-11105000D01*
X11120000Y-10995000D02*
X11120000Y-11105000D01*
X11065000Y-11050000D02*
X11175000Y-11050000D01*
X11065000Y-11495000D02*
X11175000Y-11605000D01*
X11175000Y-11495000D02*
X11065000Y-11605000D01*
X11120000Y-11495000D02*
X11120000Y-11605000D01*
X11065000Y-11550000D02*
X11175000Y-11550000D01*
X11065000Y-11995000D02*
X11175000Y-12105000D01*
X11175000Y-11995000D02*
X11065000Y-12105000D01*
X11120000Y-11995000D02*
X11120000Y-12105000D01*
X11065000Y-12050000D02*
X11175000Y-12050000D01*
X11065000Y-12495000D02*
X11175000Y-12605000D01*
X11175000Y-12495000D02*
X11065000Y-12605000D01*
X11120000Y-12495000D02*
X11120000Y-12605000D01*
X11065000Y-12550000D02*
X11175000Y-12550000D01*
X11065000Y-12995000D02*
X11175000Y-13105000D01*
X11175000Y-12995000D02*
X11065000Y-13105000D01*
X11120000Y-12995000D02*
X11120000Y-13105000D01*
X11065000Y-13050000D02*
X11175000Y-13050000D01*
X11065000Y-13495000D02*
X11175000Y-13605000D01*
X11175000Y-13495000D02*
X11065000Y-13605000D01*
X11120000Y-13495000D02*
X11120000Y-13605000D01*
X11065000Y-13550000D02*
X11175000Y-13550000D01*
X13345000Y-12845000D02*
X13455000Y-12955000D01*
X13455000Y-12845000D02*
X13345000Y-12955000D01*
X13400000Y-12845000D02*
X13400000Y-12955000D01*
X13345000Y-12900000D02*
X13455000Y-12900000D01*
X13845000Y-12845000D02*
X13955000Y-12955000D01*
X13955000Y-12845000D02*
X13845000Y-12955000D01*
X13900000Y-12845000D02*
X13900000Y-12955000D01*
X13845000Y-12900000D02*
X13955000Y-12900000D01*
X14345000Y-12845000D02*
X14455000Y-12955000D01*
X14455000Y-12845000D02*
X14345000Y-12955000D01*
X14400000Y-12845000D02*
X14400000Y-12955000D01*
X14345000Y-12900000D02*
X14455000Y-12900000D01*
X14845000Y-12845000D02*
X14955000Y-12955000D01*
X14955000Y-12845000D02*
X14845000Y-12955000D01*
X14900000Y-12845000D02*
X14900000Y-12955000D01*
X14845000Y-12900000D02*
X14955000Y-12900000D01*
X15345000Y-12845000D02*
X15455000Y-12955000D01*
X15455000Y-12845000D02*
X15345000Y-12955000D01*
X15400000Y-12845000D02*
X15400000Y-12955000D01*
X15345000Y-12900000D02*
X15455000Y-12900000D01*
X15845000Y-12845000D02*
X15955000Y-12955000D01*
X15955000Y-12845000D02*
X15845000Y-12955000D01*
X15900000Y-12845000D02*
X15900000Y-12955000D01*
X15845000Y-12900000D02*
X15955000Y-12900000D01*
X16345000Y-12845000D02*
X16455000Y-12955000D01*
X16455000Y-12845000D02*
X16345000Y-12955000D01*
X16400000Y-12845000D02*
X16400000Y-12955000D01*
X16345000Y-12900000D02*
X16455000Y-12900000D01*
X16845000Y-12845000D02*
X16955000Y-12955000D01*
X16955000Y-12845000D02*
X16845000Y-12955000D01*
X16900000Y-12845000D02*
X16900000Y-12955000D01*
X16845000Y-12900000D02*
X16955000Y-12900000D01*
X17470000Y-12395000D02*
X17580000Y-12505000D01*
X17580000Y-12395000D02*
X17470000Y-12505000D01*
X17525000Y-12395000D02*
X17525000Y-12505000D01*
X17470000Y-12450000D02*
X17580000Y-12450000D01*
X17800000Y-3870000D02*
X17910000Y-3980000D01*
X17910000Y-3870000D02*
X17800000Y-3980000D01*
X17855000Y-3870000D02*
X17855000Y-3980000D01*
X17800000Y-3925000D02*
X17910000Y-3925000D01*
X17800000Y-4370000D02*
X17910000Y-4480000D01*
X17910000Y-4370000D02*
X17800000Y-4480000D01*
X17855000Y-4370000D02*
X17855000Y-4480000D01*
X17800000Y-4425000D02*
X17910000Y-4425000D01*
X17800000Y-4870000D02*
X17910000Y-4980000D01*
X17910000Y-4870000D02*
X17800000Y-4980000D01*
X17855000Y-4870000D02*
X17855000Y-4980000D01*
X17800000Y-4925000D02*
X17910000Y-4925000D01*
X17800000Y-5370000D02*
X17910000Y-5480000D01*
X17910000Y-5370000D02*
X17800000Y-5480000D01*
X17855000Y-5370000D02*
X17855000Y-5480000D01*
X17800000Y-5425000D02*
X17910000Y-5425000D01*
X17800000Y-5870000D02*
X17910000Y-5980000D01*
X17910000Y-5870000D02*
X17800000Y-5980000D01*
X17855000Y-5870000D02*
X17855000Y-5980000D01*
X17800000Y-5925000D02*
X17910000Y-5925000D01*
X17800000Y-6370000D02*
X17910000Y-6480000D01*
X17910000Y-6370000D02*
X17800000Y-6480000D01*
X17855000Y-6370000D02*
X17855000Y-6480000D01*
X17800000Y-6425000D02*
X17910000Y-6425000D01*
X17800000Y-6870000D02*
X17910000Y-6980000D01*
X17910000Y-6870000D02*
X17800000Y-6980000D01*
X17855000Y-6870000D02*
X17855000Y-6980000D01*
X17800000Y-6925000D02*
X17910000Y-6925000D01*
X17800000Y-7370000D02*
X17910000Y-7480000D01*
X17910000Y-7370000D02*
X17800000Y-7480000D01*
X17855000Y-7370000D02*
X17855000Y-7480000D01*
X17800000Y-7425000D02*
X17910000Y-7425000D01*
X17800000Y-8095000D02*
X17910000Y-8205000D01*
X17910000Y-8095000D02*
X17800000Y-8205000D01*
X17855000Y-8095000D02*
X17855000Y-8205000D01*
X17800000Y-8150000D02*
X17910000Y-8150000D01*
X17800000Y-8595000D02*
X17910000Y-8705000D01*
X17910000Y-8595000D02*
X17800000Y-8705000D01*
X17855000Y-8595000D02*
X17855000Y-8705000D01*
X17800000Y-8650000D02*
X17910000Y-8650000D01*
X17800000Y-9095000D02*
X17910000Y-9205000D01*
X17910000Y-9095000D02*
X17800000Y-9205000D01*
X17855000Y-9095000D02*
X17855000Y-9205000D01*
X17800000Y-9150000D02*
X17910000Y-9150000D01*
X17800000Y-9595000D02*
X17910000Y-9705000D01*
X17910000Y-9595000D02*
X17800000Y-9705000D01*
X17855000Y-9595000D02*
X17855000Y-9705000D01*
X17800000Y-9650000D02*
X17910000Y-9650000D01*
X17800000Y-10095000D02*
X17910000Y-10205000D01*
X17910000Y-10095000D02*
X17800000Y-10205000D01*
X17855000Y-10095000D02*
X17855000Y-10205000D01*
X17800000Y-10150000D02*
X17910000Y-10150000D01*
X17800000Y-10595000D02*
X17910000Y-10705000D01*
X17910000Y-10595000D02*
X17800000Y-10705000D01*
X17855000Y-10595000D02*
X17855000Y-10705000D01*
X17800000Y-10650000D02*
X17910000Y-10650000D01*
X17800000Y-11095000D02*
X17910000Y-11205000D01*
X17910000Y-11095000D02*
X17800000Y-11205000D01*
X17855000Y-11095000D02*
X17855000Y-11205000D01*
X17800000Y-11150000D02*
X17910000Y-11150000D01*
X17800000Y-11595000D02*
X17910000Y-11705000D01*
X17910000Y-11595000D02*
X17800000Y-11705000D01*
X17855000Y-11595000D02*
X17855000Y-11705000D01*
X17800000Y-11650000D02*
X17910000Y-11650000D01*
X17970000Y-12395000D02*
X18080000Y-12505000D01*
X18080000Y-12395000D02*
X17970000Y-12505000D01*
X18025000Y-12395000D02*
X18025000Y-12505000D01*
X17970000Y-12450000D02*
X18080000Y-12450000D01*
X18470000Y-12395000D02*
X18580000Y-12505000D01*
X18580000Y-12395000D02*
X18470000Y-12505000D01*
X18525000Y-12395000D02*
X18525000Y-12505000D01*
X18470000Y-12450000D02*
X18580000Y-12450000D01*
X18970000Y-12395000D02*
X19080000Y-12505000D01*
X19080000Y-12395000D02*
X18970000Y-12505000D01*
X19025000Y-12395000D02*
X19025000Y-12505000D01*
X18970000Y-12450000D02*
X19080000Y-12450000D01*
X19470000Y-3770000D02*
X19580000Y-3880000D01*
X19580000Y-3770000D02*
X19470000Y-3880000D01*
X19525000Y-3770000D02*
X19525000Y-3880000D01*
X19470000Y-3825000D02*
X19580000Y-3825000D01*
X19470000Y-4270000D02*
X19580000Y-4380000D01*
X19580000Y-4270000D02*
X19470000Y-4380000D01*
X19525000Y-4270000D02*
X19525000Y-4380000D01*
X19470000Y-4325000D02*
X19580000Y-4325000D01*
X19470000Y-4770000D02*
X19580000Y-4880000D01*
X19580000Y-4770000D02*
X19470000Y-4880000D01*
X19525000Y-4770000D02*
X19525000Y-4880000D01*
X19470000Y-4825000D02*
X19580000Y-4825000D01*
X19470000Y-5270000D02*
X19580000Y-5380000D01*
X19580000Y-5270000D02*
X19470000Y-5380000D01*
X19525000Y-5270000D02*
X19525000Y-5380000D01*
X19470000Y-5325000D02*
X19580000Y-5325000D01*
X19470000Y-5770000D02*
X19580000Y-5880000D01*
X19580000Y-5770000D02*
X19470000Y-5880000D01*
X19525000Y-5770000D02*
X19525000Y-5880000D01*
X19470000Y-5825000D02*
X19580000Y-5825000D01*
X19470000Y-6270000D02*
X19580000Y-6380000D01*
X19580000Y-6270000D02*
X19470000Y-6380000D01*
X19525000Y-6270000D02*
X19525000Y-6380000D01*
X19470000Y-6325000D02*
X19580000Y-6325000D01*
X19470000Y-6770000D02*
X19580000Y-6880000D01*
X19580000Y-6770000D02*
X19470000Y-6880000D01*
X19525000Y-6770000D02*
X19525000Y-6880000D01*
X19470000Y-6825000D02*
X19580000Y-6825000D01*
X19470000Y-7270000D02*
X19580000Y-7380000D01*
X19580000Y-7270000D02*
X19470000Y-7380000D01*
X19525000Y-7270000D02*
X19525000Y-7380000D01*
X19470000Y-7325000D02*
X19580000Y-7325000D01*
X19495000Y-8045000D02*
X19605000Y-8155000D01*
X19605000Y-8045000D02*
X19495000Y-8155000D01*
X19550000Y-8045000D02*
X19550000Y-8155000D01*
X19495000Y-8100000D02*
X19605000Y-8100000D01*
X19495000Y-8545000D02*
X19605000Y-8655000D01*
X19605000Y-8545000D02*
X19495000Y-8655000D01*
X19550000Y-8545000D02*
X19550000Y-8655000D01*
X19495000Y-8600000D02*
X19605000Y-8600000D01*
X19495000Y-9045000D02*
X19605000Y-9155000D01*
X19605000Y-9045000D02*
X19495000Y-9155000D01*
X19550000Y-9045000D02*
X19550000Y-9155000D01*
X19495000Y-9100000D02*
X19605000Y-9100000D01*
X19495000Y-9545000D02*
X19605000Y-9655000D01*
X19605000Y-9545000D02*
X19495000Y-9655000D01*
X19550000Y-9545000D02*
X19550000Y-9655000D01*
X19495000Y-9600000D02*
X19605000Y-9600000D01*
X19495000Y-10045000D02*
X19605000Y-10155000D01*
X19605000Y-10045000D02*
X19495000Y-10155000D01*
X19550000Y-10045000D02*
X19550000Y-10155000D01*
X19495000Y-10100000D02*
X19605000Y-10100000D01*
X19495000Y-10545000D02*
X19605000Y-10655000D01*
X19605000Y-10545000D02*
X19495000Y-10655000D01*
X19550000Y-10545000D02*
X19550000Y-10655000D01*
X19495000Y-10600000D02*
X19605000Y-10600000D01*
X19495000Y-11045000D02*
X19605000Y-11155000D01*
X19605000Y-11045000D02*
X19495000Y-11155000D01*
X19550000Y-11045000D02*
X19550000Y-11155000D01*
X19495000Y-11100000D02*
X19605000Y-11100000D01*
X19495000Y-11545000D02*
X19605000Y-11655000D01*
X19605000Y-11545000D02*
X19495000Y-11655000D01*
X19550000Y-11545000D02*
X19550000Y-11655000D01*
X19495000Y-11600000D02*
X19605000Y-11600000D01*
D18*
X9962500Y-4401500D02*
X10112500Y-4551500D01*
X10112500Y-4401500D02*
X9962500Y-4551500D01*
X10090534Y-4529534D02*
X10090534Y-4423467D01*
X9984467Y-4423467D01*
X9984467Y-4529534D01*
X10090534Y-4529534D01*
X9962500Y-4901500D02*
X10112500Y-5051500D01*
X10112500Y-4901500D02*
X9962500Y-5051500D01*
X10090534Y-5029534D02*
X10090534Y-4923467D01*
X9984467Y-4923467D01*
X9984467Y-5029534D01*
X10090534Y-5029534D01*
X9962500Y-5401500D02*
X10112500Y-5551500D01*
X10112500Y-5401500D02*
X9962500Y-5551500D01*
X10090534Y-5529534D02*
X10090534Y-5423467D01*
X9984467Y-5423467D01*
X9984467Y-5529534D01*
X10090534Y-5529534D01*
X9962500Y-5901500D02*
X10112500Y-6051500D01*
X10112500Y-5901500D02*
X9962500Y-6051500D01*
X10090534Y-6029533D02*
X10090534Y-5923466D01*
X9984467Y-5923466D01*
X9984467Y-6029533D01*
X10090534Y-6029533D01*
X9962500Y-6401500D02*
X10112500Y-6551500D01*
X10112500Y-6401500D02*
X9962500Y-6551500D01*
X10090534Y-6529533D02*
X10090534Y-6423466D01*
X9984467Y-6423466D01*
X9984467Y-6529533D01*
X10090534Y-6529533D01*
X9962500Y-6901500D02*
X10112500Y-7051500D01*
X10112500Y-6901500D02*
X9962500Y-7051500D01*
X10090534Y-7029533D02*
X10090534Y-6923466D01*
X9984467Y-6923466D01*
X9984467Y-7029533D01*
X10090534Y-7029533D01*
X9962500Y-7401500D02*
X10112500Y-7551500D01*
X10112500Y-7401500D02*
X9962500Y-7551500D01*
X10090534Y-7529533D02*
X10090534Y-7423466D01*
X9984467Y-7423466D01*
X9984467Y-7529533D01*
X10090534Y-7529533D01*
X9962500Y-7901500D02*
X10112500Y-8051500D01*
X10112500Y-7901500D02*
X9962500Y-8051500D01*
X10090534Y-8029533D02*
X10090534Y-7923466D01*
X9984467Y-7923466D01*
X9984467Y-8029533D01*
X10090534Y-8029533D01*
X9962500Y-8401500D02*
X10112500Y-8551500D01*
X10112500Y-8401500D02*
X9962500Y-8551500D01*
X10090534Y-8529534D02*
X10090534Y-8423467D01*
X9984467Y-8423467D01*
X9984467Y-8529534D01*
X10090534Y-8529534D01*
X9962500Y-8901500D02*
X10112500Y-9051500D01*
X10112500Y-8901500D02*
X9962500Y-9051500D01*
X10090534Y-9029534D02*
X10090534Y-8923467D01*
X9984467Y-8923467D01*
X9984467Y-9029534D01*
X10090534Y-9029534D01*
X13100000Y-15375000D02*
X13250000Y-15525000D01*
X13250000Y-15375000D02*
X13100000Y-15525000D01*
X13228033Y-15503033D02*
X13228033Y-15396966D01*
X13121966Y-15396966D01*
X13121966Y-15503033D01*
X13228033Y-15503033D01*
X13600000Y-15375000D02*
X13750000Y-15525000D01*
X13750000Y-15375000D02*
X13600000Y-15525000D01*
X13728033Y-15503033D02*
X13728033Y-15396966D01*
X13621966Y-15396966D01*
X13621966Y-15503033D01*
X13728033Y-15503033D01*
X14100000Y-15375000D02*
X14250000Y-15525000D01*
X14250000Y-15375000D02*
X14100000Y-15525000D01*
X14228033Y-15503033D02*
X14228033Y-15396966D01*
X14121966Y-15396966D01*
X14121966Y-15503033D01*
X14228033Y-15503033D01*
X14600000Y-15375000D02*
X14750000Y-15525000D01*
X14750000Y-15375000D02*
X14600000Y-15525000D01*
X14728033Y-15503033D02*
X14728033Y-15396966D01*
X14621966Y-15396966D01*
X14621966Y-15503033D01*
X14728033Y-15503033D01*
X15100000Y-15375000D02*
X15250000Y-15525000D01*
X15250000Y-15375000D02*
X15100000Y-15525000D01*
X15228033Y-15503033D02*
X15228033Y-15396966D01*
X15121966Y-15396966D01*
X15121966Y-15503033D01*
X15228033Y-15503033D01*
X15600000Y-15375000D02*
X15750000Y-15525000D01*
X15750000Y-15375000D02*
X15600000Y-15525000D01*
X15728033Y-15503033D02*
X15728033Y-15396966D01*
X15621966Y-15396966D01*
X15621966Y-15503033D01*
X15728033Y-15503033D01*
X16100000Y-15375000D02*
X16250000Y-15525000D01*
X16250000Y-15375000D02*
X16100000Y-15525000D01*
X16228033Y-15503033D02*
X16228033Y-15396966D01*
X16121966Y-15396966D01*
X16121966Y-15503033D01*
X16228033Y-15503033D01*
X16600000Y-15375000D02*
X16750000Y-15525000D01*
X16750000Y-15375000D02*
X16600000Y-15525000D01*
X16728033Y-15503033D02*
X16728033Y-15396966D01*
X16621966Y-15396966D01*
X16621966Y-15503033D01*
X16728033Y-15503033D01*
X17100000Y-15375000D02*
X17250000Y-15525000D01*
X17250000Y-15375000D02*
X17100000Y-15525000D01*
X17228034Y-15503033D02*
X17228034Y-15396966D01*
X17121967Y-15396966D01*
X17121967Y-15503033D01*
X17228034Y-15503033D01*
X17600000Y-15375000D02*
X17750000Y-15525000D01*
X17750000Y-15375000D02*
X17600000Y-15525000D01*
X17728034Y-15503033D02*
X17728034Y-15396966D01*
X17621967Y-15396966D01*
X17621967Y-15503033D01*
X17728034Y-15503033D01*
X20425000Y-4348500D02*
X20575000Y-4498500D01*
X20575000Y-4348500D02*
X20425000Y-4498500D01*
X20553034Y-4476534D02*
X20553034Y-4370467D01*
X20446967Y-4370467D01*
X20446967Y-4476534D01*
X20553034Y-4476534D01*
X20425000Y-4848500D02*
X20575000Y-4998500D01*
X20575000Y-4848500D02*
X20425000Y-4998500D01*
X20553034Y-4976534D02*
X20553034Y-4870467D01*
X20446967Y-4870467D01*
X20446967Y-4976534D01*
X20553034Y-4976534D01*
X20425000Y-5348500D02*
X20575000Y-5498500D01*
X20575000Y-5348500D02*
X20425000Y-5498500D01*
X20553034Y-5476534D02*
X20553034Y-5370467D01*
X20446967Y-5370467D01*
X20446967Y-5476534D01*
X20553034Y-5476534D01*
X20425000Y-5848500D02*
X20575000Y-5998500D01*
X20575000Y-5848500D02*
X20425000Y-5998500D01*
X20553034Y-5976533D02*
X20553034Y-5870466D01*
X20446967Y-5870466D01*
X20446967Y-5976533D01*
X20553034Y-5976533D01*
X20425000Y-6348500D02*
X20575000Y-6498500D01*
X20575000Y-6348500D02*
X20425000Y-6498500D01*
X20553034Y-6476533D02*
X20553034Y-6370466D01*
X20446967Y-6370466D01*
X20446967Y-6476533D01*
X20553034Y-6476533D01*
X20425000Y-6848500D02*
X20575000Y-6998500D01*
X20575000Y-6848500D02*
X20425000Y-6998500D01*
X20553034Y-6976533D02*
X20553034Y-6870466D01*
X20446967Y-6870466D01*
X20446967Y-6976533D01*
X20553034Y-6976533D01*
X20425000Y-7348500D02*
X20575000Y-7498500D01*
X20575000Y-7348500D02*
X20425000Y-7498500D01*
X20553034Y-7476533D02*
X20553034Y-7370466D01*
X20446967Y-7370466D01*
X20446967Y-7476533D01*
X20553034Y-7476533D01*
X20425000Y-7848500D02*
X20575000Y-7998500D01*
X20575000Y-7848500D02*
X20425000Y-7998500D01*
X20553034Y-7976533D02*
X20553034Y-7870466D01*
X20446967Y-7870466D01*
X20446967Y-7976533D01*
X20553034Y-7976533D01*
X20425000Y-8348500D02*
X20575000Y-8498500D01*
X20575000Y-8348500D02*
X20425000Y-8498500D01*
X20553034Y-8476534D02*
X20553034Y-8370466D01*
X20446967Y-8370466D01*
X20446967Y-8476534D01*
X20553034Y-8476534D01*
X20425000Y-8848500D02*
X20575000Y-8998500D01*
X20575000Y-8848500D02*
X20425000Y-8998500D01*
X20553034Y-8976534D02*
X20553034Y-8870467D01*
X20446967Y-8870467D01*
X20446967Y-8976534D01*
X20553034Y-8976534D01*
D19*
X19940000Y-12312000D02*
X20100000Y-12472000D01*
X20100000Y-12312000D02*
X19940000Y-12472000D01*
X20020000Y-12472000D02*
X20100000Y-12392000D01*
X20020000Y-12312000D01*
X19940000Y-12392000D01*
X20020000Y-12472000D01*
X19940000Y-12820000D02*
X20100000Y-12980000D01*
X20100000Y-12820000D02*
X19940000Y-12980000D01*
X20020000Y-12980000D02*
X20100000Y-12900000D01*
X20020000Y-12820000D01*
X19940000Y-12900000D01*
X20020000Y-12980000D01*
X19940000Y-13328000D02*
X20100000Y-13488000D01*
X20100000Y-13328000D02*
X19940000Y-13488000D01*
X20020000Y-13488000D02*
X20100000Y-13408000D01*
X20020000Y-13328000D01*
X19940000Y-13408000D01*
X20020000Y-13488000D01*
X19940000Y-13836000D02*
X20100000Y-13996000D01*
X20100000Y-13836000D02*
X19940000Y-13996000D01*
X20020000Y-13996000D02*
X20100000Y-13916000D01*
X20020000Y-13836000D01*
X19940000Y-13916000D01*
X20020000Y-13996000D01*
X19940000Y-14344000D02*
X20100000Y-14504000D01*
X20100000Y-14344000D02*
X19940000Y-14504000D01*
X20020000Y-14504000D02*
X20100000Y-14424000D01*
X20020000Y-14344000D01*
X19940000Y-14424000D01*
X20020000Y-14504000D01*
D11*
X10152619Y-15915476D02*
X10152619Y-15715476D01*
X10200238Y-15715476D01*
X10228810Y-15725000D01*
X10247857Y-15744048D01*
X10257381Y-15763095D01*
X10266905Y-15801190D01*
X10266905Y-15829762D01*
X10257381Y-15867857D01*
X10247857Y-15886905D01*
X10228810Y-15905952D01*
X10200238Y-15915476D01*
X10152619Y-15915476D01*
X10352619Y-15915476D02*
X10352619Y-15782143D01*
X10352619Y-15820238D02*
X10362143Y-15801190D01*
X10371667Y-15791667D01*
X10390714Y-15782143D01*
X10409762Y-15782143D01*
X10476429Y-15915476D02*
X10476429Y-15782143D01*
X10476429Y-15715476D02*
X10466905Y-15725000D01*
X10476429Y-15734524D01*
X10485952Y-15725000D01*
X10476429Y-15715476D01*
X10476429Y-15734524D01*
X10600238Y-15915476D02*
X10581190Y-15905952D01*
X10571667Y-15886905D01*
X10571667Y-15715476D01*
X10705000Y-15915476D02*
X10685952Y-15905952D01*
X10676429Y-15886905D01*
X10676429Y-15715476D01*
X10933571Y-15915476D02*
X10933571Y-15715476D01*
X11000238Y-15858333D01*
X11066905Y-15715476D01*
X11066905Y-15915476D01*
X11247857Y-15915476D02*
X11247857Y-15810714D01*
X11238333Y-15791667D01*
X11219286Y-15782143D01*
X11181190Y-15782143D01*
X11162143Y-15791667D01*
X11247857Y-15905952D02*
X11228809Y-15915476D01*
X11181190Y-15915476D01*
X11162143Y-15905952D01*
X11152619Y-15886905D01*
X11152619Y-15867857D01*
X11162143Y-15848809D01*
X11181190Y-15839286D01*
X11228809Y-15839286D01*
X11247857Y-15829762D01*
X11343095Y-15782143D02*
X11343095Y-15982143D01*
X11343095Y-15791667D02*
X11362143Y-15782143D01*
X11400238Y-15782143D01*
X11419286Y-15791667D01*
X11428809Y-15801190D01*
X11438333Y-15820238D01*
X11438333Y-15877381D01*
X11428809Y-15896428D01*
X11419286Y-15905952D01*
X11400238Y-15915476D01*
X11362143Y-15915476D01*
X11343095Y-15905952D01*
X11524048Y-15896428D02*
X11533571Y-15905952D01*
X11524048Y-15915476D01*
X11514524Y-15905952D01*
X11524048Y-15896428D01*
X11524048Y-15915476D01*
X11524048Y-15791667D02*
X11533571Y-15801190D01*
X11524048Y-15810714D01*
X11514524Y-15801190D01*
X11524048Y-15791667D01*
X11524048Y-15810714D01*
D12*
X9855000Y-16225000D02*
X9895000Y-16265000D01*
X9895000Y-16225000D02*
X9855000Y-16265000D01*
D11*
X10190714Y-16135476D02*
X10209762Y-16135476D01*
X10228810Y-16145000D01*
X10238333Y-16154524D01*
X10247857Y-16173571D01*
X10257381Y-16211667D01*
X10257381Y-16259286D01*
X10247857Y-16297381D01*
X10238333Y-16316428D01*
X10228810Y-16325952D01*
X10209762Y-16335476D01*
X10190714Y-16335476D01*
X10171667Y-16325952D01*
X10162143Y-16316428D01*
X10152619Y-16297381D01*
X10143095Y-16259286D01*
X10143095Y-16211667D01*
X10152619Y-16173571D01*
X10162143Y-16154524D01*
X10171667Y-16145000D01*
X10190714Y-16135476D01*
X10343095Y-16316428D02*
X10352619Y-16325952D01*
X10343095Y-16335476D01*
X10333571Y-16325952D01*
X10343095Y-16316428D01*
X10343095Y-16335476D01*
X10524048Y-16202143D02*
X10524048Y-16335476D01*
X10476429Y-16125952D02*
X10428810Y-16268809D01*
X10552619Y-16268809D01*
X10666905Y-16135476D02*
X10685952Y-16135476D01*
X10705000Y-16145000D01*
X10714524Y-16154524D01*
X10724048Y-16173571D01*
X10733571Y-16211667D01*
X10733571Y-16259286D01*
X10724048Y-16297381D01*
X10714524Y-16316428D01*
X10705000Y-16325952D01*
X10685952Y-16335476D01*
X10666905Y-16335476D01*
X10647857Y-16325952D01*
X10638333Y-16316428D01*
X10628810Y-16297381D01*
X10619286Y-16259286D01*
X10619286Y-16211667D01*
X10628810Y-16173571D01*
X10638333Y-16154524D01*
X10647857Y-16145000D01*
X10666905Y-16135476D01*
X10857381Y-16135476D02*
X10876429Y-16135476D01*
X10895476Y-16145000D01*
X10905000Y-16154524D01*
X10914524Y-16173571D01*
X10924048Y-16211667D01*
X10924048Y-16259286D01*
X10914524Y-16297381D01*
X10905000Y-16316428D01*
X10895476Y-16325952D01*
X10876429Y-16335476D01*
X10857381Y-16335476D01*
X10838333Y-16325952D01*
X10828810Y-16316428D01*
X10819286Y-16297381D01*
X10809762Y-16259286D01*
X10809762Y-16211667D01*
X10819286Y-16173571D01*
X10828810Y-16154524D01*
X10838333Y-16145000D01*
X10857381Y-16135476D01*
X11009762Y-16335476D02*
X11009762Y-16202143D01*
X11009762Y-16221190D02*
X11019286Y-16211667D01*
X11038333Y-16202143D01*
X11066905Y-16202143D01*
X11085952Y-16211667D01*
X11095476Y-16230714D01*
X11095476Y-16335476D01*
X11095476Y-16230714D02*
X11105000Y-16211667D01*
X11124048Y-16202143D01*
X11152619Y-16202143D01*
X11171667Y-16211667D01*
X11181190Y-16230714D01*
X11181190Y-16335476D01*
X11276428Y-16335476D02*
X11276428Y-16202143D01*
X11276428Y-16221190D02*
X11285952Y-16211667D01*
X11305000Y-16202143D01*
X11333571Y-16202143D01*
X11352619Y-16211667D01*
X11362143Y-16230714D01*
X11362143Y-16335476D01*
X11362143Y-16230714D02*
X11371667Y-16211667D01*
X11390714Y-16202143D01*
X11419286Y-16202143D01*
X11438333Y-16211667D01*
X11447857Y-16230714D01*
X11447857Y-16335476D01*
X11838333Y-16125952D02*
X11666905Y-16383095D01*
X12095476Y-16135476D02*
X12114524Y-16135476D01*
X12133571Y-16145000D01*
X12143095Y-16154524D01*
X12152619Y-16173571D01*
X12162143Y-16211667D01*
X12162143Y-16259286D01*
X12152619Y-16297381D01*
X12143095Y-16316428D01*
X12133571Y-16325952D01*
X12114524Y-16335476D01*
X12095476Y-16335476D01*
X12076428Y-16325952D01*
X12066905Y-16316428D01*
X12057381Y-16297381D01*
X12047857Y-16259286D01*
X12047857Y-16211667D01*
X12057381Y-16173571D01*
X12066905Y-16154524D01*
X12076428Y-16145000D01*
X12095476Y-16135476D01*
X12247857Y-16316428D02*
X12257381Y-16325952D01*
X12247857Y-16335476D01*
X12238333Y-16325952D01*
X12247857Y-16316428D01*
X12247857Y-16335476D01*
X12381190Y-16135476D02*
X12400238Y-16135476D01*
X12419286Y-16145000D01*
X12428809Y-16154524D01*
X12438333Y-16173571D01*
X12447857Y-16211667D01*
X12447857Y-16259286D01*
X12438333Y-16297381D01*
X12428809Y-16316428D01*
X12419286Y-16325952D01*
X12400238Y-16335476D01*
X12381190Y-16335476D01*
X12362143Y-16325952D01*
X12352619Y-16316428D01*
X12343095Y-16297381D01*
X12333571Y-16259286D01*
X12333571Y-16211667D01*
X12343095Y-16173571D01*
X12352619Y-16154524D01*
X12362143Y-16145000D01*
X12381190Y-16135476D01*
X12638333Y-16335476D02*
X12524048Y-16335476D01*
X12581190Y-16335476D02*
X12581190Y-16135476D01*
X12562143Y-16164048D01*
X12543095Y-16183095D01*
X12524048Y-16192619D01*
X12819286Y-16135476D02*
X12724048Y-16135476D01*
X12714524Y-16230714D01*
X12724048Y-16221190D01*
X12743095Y-16211667D01*
X12790714Y-16211667D01*
X12809762Y-16221190D01*
X12819286Y-16230714D01*
X12828809Y-16249762D01*
X12828809Y-16297381D01*
X12819286Y-16316428D01*
X12809762Y-16325952D01*
X12790714Y-16335476D01*
X12743095Y-16335476D01*
X12724048Y-16325952D01*
X12714524Y-16316428D01*
X12895476Y-16135476D02*
X13028809Y-16135476D01*
X12943095Y-16335476D01*
X13095476Y-16135476D02*
X13095476Y-16173571D01*
X13171667Y-16135476D02*
X13171667Y-16173571D01*
X13466905Y-16411667D02*
X13457381Y-16402143D01*
X13438333Y-16373571D01*
X13428809Y-16354524D01*
X13419286Y-16325952D01*
X13409762Y-16278333D01*
X13409762Y-16240238D01*
X13419286Y-16192619D01*
X13428809Y-16164048D01*
X13438333Y-16145000D01*
X13457381Y-16116428D01*
X13466905Y-16106905D01*
X13647857Y-16335476D02*
X13533571Y-16335476D01*
X13590714Y-16335476D02*
X13590714Y-16135476D01*
X13571667Y-16164048D01*
X13552619Y-16183095D01*
X13533571Y-16192619D01*
X13771667Y-16135476D02*
X13790714Y-16135476D01*
X13809762Y-16145000D01*
X13819286Y-16154524D01*
X13828809Y-16173571D01*
X13838333Y-16211667D01*
X13838333Y-16259286D01*
X13828809Y-16297381D01*
X13819286Y-16316428D01*
X13809762Y-16325952D01*
X13790714Y-16335476D01*
X13771667Y-16335476D01*
X13752619Y-16325952D01*
X13743095Y-16316428D01*
X13733571Y-16297381D01*
X13724048Y-16259286D01*
X13724048Y-16211667D01*
X13733571Y-16173571D01*
X13743095Y-16154524D01*
X13752619Y-16145000D01*
X13771667Y-16135476D01*
X13905000Y-16135476D02*
X14038333Y-16135476D01*
X13952619Y-16335476D01*
X14266905Y-16335476D02*
X14266905Y-16135476D01*
X14352619Y-16335476D02*
X14352619Y-16230714D01*
X14343095Y-16211667D01*
X14324048Y-16202143D01*
X14295476Y-16202143D01*
X14276428Y-16211667D01*
X14266905Y-16221190D01*
X14476428Y-16335476D02*
X14457381Y-16325952D01*
X14447857Y-16316428D01*
X14438333Y-16297381D01*
X14438333Y-16240238D01*
X14447857Y-16221190D01*
X14457381Y-16211667D01*
X14476428Y-16202143D01*
X14505000Y-16202143D01*
X14524048Y-16211667D01*
X14533571Y-16221190D01*
X14543095Y-16240238D01*
X14543095Y-16297381D01*
X14533571Y-16316428D01*
X14524048Y-16325952D01*
X14505000Y-16335476D01*
X14476428Y-16335476D01*
X14657381Y-16335476D02*
X14638333Y-16325952D01*
X14628809Y-16306905D01*
X14628809Y-16135476D01*
X14809762Y-16325952D02*
X14790714Y-16335476D01*
X14752619Y-16335476D01*
X14733571Y-16325952D01*
X14724048Y-16306905D01*
X14724048Y-16230714D01*
X14733571Y-16211667D01*
X14752619Y-16202143D01*
X14790714Y-16202143D01*
X14809762Y-16211667D01*
X14819286Y-16230714D01*
X14819286Y-16249762D01*
X14724048Y-16268809D01*
X14895476Y-16325952D02*
X14914524Y-16335476D01*
X14952619Y-16335476D01*
X14971667Y-16325952D01*
X14981190Y-16306905D01*
X14981190Y-16297381D01*
X14971667Y-16278333D01*
X14952619Y-16268809D01*
X14924048Y-16268809D01*
X14905000Y-16259286D01*
X14895476Y-16240238D01*
X14895476Y-16230714D01*
X14905000Y-16211667D01*
X14924048Y-16202143D01*
X14952619Y-16202143D01*
X14971667Y-16211667D01*
X15047857Y-16411667D02*
X15057381Y-16402143D01*
X15076428Y-16373571D01*
X15085952Y-16354524D01*
X15095476Y-16325952D01*
X15105000Y-16278333D01*
X15105000Y-16240238D01*
X15095476Y-16192619D01*
X15085952Y-16164048D01*
X15076428Y-16145000D01*
X15057381Y-16116428D01*
X15047857Y-16106905D01*
D13*
X9895000Y-16509000D02*
G75*
G03*
X9895000Y-16509000I-35000J0D01*
G01*
D11*
X10190714Y-16399476D02*
X10209762Y-16399476D01*
X10228810Y-16409000D01*
X10238333Y-16418524D01*
X10247857Y-16437571D01*
X10257381Y-16475667D01*
X10257381Y-16523286D01*
X10247857Y-16561381D01*
X10238333Y-16580428D01*
X10228810Y-16589952D01*
X10209762Y-16599476D01*
X10190714Y-16599476D01*
X10171667Y-16589952D01*
X10162143Y-16580428D01*
X10152619Y-16561381D01*
X10143095Y-16523286D01*
X10143095Y-16475667D01*
X10152619Y-16437571D01*
X10162143Y-16418524D01*
X10171667Y-16409000D01*
X10190714Y-16399476D01*
X10343095Y-16580428D02*
X10352619Y-16589952D01*
X10343095Y-16599476D01*
X10333571Y-16589952D01*
X10343095Y-16580428D01*
X10343095Y-16599476D01*
X10419286Y-16399476D02*
X10552619Y-16399476D01*
X10466905Y-16599476D01*
X10666905Y-16399476D02*
X10685952Y-16399476D01*
X10705000Y-16409000D01*
X10714524Y-16418524D01*
X10724048Y-16437571D01*
X10733571Y-16475667D01*
X10733571Y-16523286D01*
X10724048Y-16561381D01*
X10714524Y-16580428D01*
X10705000Y-16589952D01*
X10685952Y-16599476D01*
X10666905Y-16599476D01*
X10647857Y-16589952D01*
X10638333Y-16580428D01*
X10628810Y-16561381D01*
X10619286Y-16523286D01*
X10619286Y-16475667D01*
X10628810Y-16437571D01*
X10638333Y-16418524D01*
X10647857Y-16409000D01*
X10666905Y-16399476D01*
X10857381Y-16399476D02*
X10876429Y-16399476D01*
X10895476Y-16409000D01*
X10905000Y-16418524D01*
X10914524Y-16437571D01*
X10924048Y-16475667D01*
X10924048Y-16523286D01*
X10914524Y-16561381D01*
X10905000Y-16580428D01*
X10895476Y-16589952D01*
X10876429Y-16599476D01*
X10857381Y-16599476D01*
X10838333Y-16589952D01*
X10828810Y-16580428D01*
X10819286Y-16561381D01*
X10809762Y-16523286D01*
X10809762Y-16475667D01*
X10819286Y-16437571D01*
X10828810Y-16418524D01*
X10838333Y-16409000D01*
X10857381Y-16399476D01*
X11009762Y-16599476D02*
X11009762Y-16466143D01*
X11009762Y-16485190D02*
X11019286Y-16475667D01*
X11038333Y-16466143D01*
X11066905Y-16466143D01*
X11085952Y-16475667D01*
X11095476Y-16494714D01*
X11095476Y-16599476D01*
X11095476Y-16494714D02*
X11105000Y-16475667D01*
X11124048Y-16466143D01*
X11152619Y-16466143D01*
X11171667Y-16475667D01*
X11181190Y-16494714D01*
X11181190Y-16599476D01*
X11276428Y-16599476D02*
X11276428Y-16466143D01*
X11276428Y-16485190D02*
X11285952Y-16475667D01*
X11305000Y-16466143D01*
X11333571Y-16466143D01*
X11352619Y-16475667D01*
X11362143Y-16494714D01*
X11362143Y-16599476D01*
X11362143Y-16494714D02*
X11371667Y-16475667D01*
X11390714Y-16466143D01*
X11419286Y-16466143D01*
X11438333Y-16475667D01*
X11447857Y-16494714D01*
X11447857Y-16599476D01*
X11838333Y-16389952D02*
X11666905Y-16647095D01*
X12095476Y-16399476D02*
X12114524Y-16399476D01*
X12133571Y-16409000D01*
X12143095Y-16418524D01*
X12152619Y-16437571D01*
X12162143Y-16475667D01*
X12162143Y-16523286D01*
X12152619Y-16561381D01*
X12143095Y-16580428D01*
X12133571Y-16589952D01*
X12114524Y-16599476D01*
X12095476Y-16599476D01*
X12076428Y-16589952D01*
X12066905Y-16580428D01*
X12057381Y-16561381D01*
X12047857Y-16523286D01*
X12047857Y-16475667D01*
X12057381Y-16437571D01*
X12066905Y-16418524D01*
X12076428Y-16409000D01*
X12095476Y-16399476D01*
X12247857Y-16580428D02*
X12257381Y-16589952D01*
X12247857Y-16599476D01*
X12238333Y-16589952D01*
X12247857Y-16580428D01*
X12247857Y-16599476D01*
X12381190Y-16399476D02*
X12400238Y-16399476D01*
X12419286Y-16409000D01*
X12428809Y-16418524D01*
X12438333Y-16437571D01*
X12447857Y-16475667D01*
X12447857Y-16523286D01*
X12438333Y-16561381D01*
X12428809Y-16580428D01*
X12419286Y-16589952D01*
X12400238Y-16599476D01*
X12381190Y-16599476D01*
X12362143Y-16589952D01*
X12352619Y-16580428D01*
X12343095Y-16561381D01*
X12333571Y-16523286D01*
X12333571Y-16475667D01*
X12343095Y-16437571D01*
X12352619Y-16418524D01*
X12362143Y-16409000D01*
X12381190Y-16399476D01*
X12524048Y-16418524D02*
X12533571Y-16409000D01*
X12552619Y-16399476D01*
X12600238Y-16399476D01*
X12619286Y-16409000D01*
X12628809Y-16418524D01*
X12638333Y-16437571D01*
X12638333Y-16456619D01*
X12628809Y-16485190D01*
X12514524Y-16599476D01*
X12638333Y-16599476D01*
X12705000Y-16399476D02*
X12838333Y-16399476D01*
X12752619Y-16599476D01*
X13000238Y-16399476D02*
X12962143Y-16399476D01*
X12943095Y-16409000D01*
X12933571Y-16418524D01*
X12914524Y-16447095D01*
X12905000Y-16485190D01*
X12905000Y-16561381D01*
X12914524Y-16580428D01*
X12924048Y-16589952D01*
X12943095Y-16599476D01*
X12981190Y-16599476D01*
X13000238Y-16589952D01*
X13009762Y-16580428D01*
X13019286Y-16561381D01*
X13019286Y-16513762D01*
X13009762Y-16494714D01*
X13000238Y-16485190D01*
X12981190Y-16475667D01*
X12943095Y-16475667D01*
X12924048Y-16485190D01*
X12914524Y-16494714D01*
X12905000Y-16513762D01*
X13095476Y-16399476D02*
X13095476Y-16437571D01*
X13171667Y-16399476D02*
X13171667Y-16437571D01*
X13466905Y-16675667D02*
X13457381Y-16666143D01*
X13438333Y-16637571D01*
X13428809Y-16618524D01*
X13419286Y-16589952D01*
X13409762Y-16542333D01*
X13409762Y-16504238D01*
X13419286Y-16456619D01*
X13428809Y-16428048D01*
X13438333Y-16409000D01*
X13457381Y-16380428D01*
X13466905Y-16370905D01*
X13533571Y-16418524D02*
X13543095Y-16409000D01*
X13562143Y-16399476D01*
X13609762Y-16399476D01*
X13628809Y-16409000D01*
X13638333Y-16418524D01*
X13647857Y-16437571D01*
X13647857Y-16456619D01*
X13638333Y-16485190D01*
X13524048Y-16599476D01*
X13647857Y-16599476D01*
X13885952Y-16599476D02*
X13885952Y-16399476D01*
X13971667Y-16599476D02*
X13971667Y-16494714D01*
X13962143Y-16475667D01*
X13943095Y-16466143D01*
X13914524Y-16466143D01*
X13895476Y-16475667D01*
X13885952Y-16485190D01*
X14095476Y-16599476D02*
X14076428Y-16589952D01*
X14066905Y-16580428D01*
X14057381Y-16561381D01*
X14057381Y-16504238D01*
X14066905Y-16485190D01*
X14076428Y-16475667D01*
X14095476Y-16466143D01*
X14124048Y-16466143D01*
X14143095Y-16475667D01*
X14152619Y-16485190D01*
X14162143Y-16504238D01*
X14162143Y-16561381D01*
X14152619Y-16580428D01*
X14143095Y-16589952D01*
X14124048Y-16599476D01*
X14095476Y-16599476D01*
X14276428Y-16599476D02*
X14257381Y-16589952D01*
X14247857Y-16570905D01*
X14247857Y-16399476D01*
X14428809Y-16589952D02*
X14409762Y-16599476D01*
X14371667Y-16599476D01*
X14352619Y-16589952D01*
X14343095Y-16570905D01*
X14343095Y-16494714D01*
X14352619Y-16475667D01*
X14371667Y-16466143D01*
X14409762Y-16466143D01*
X14428809Y-16475667D01*
X14438333Y-16494714D01*
X14438333Y-16513762D01*
X14343095Y-16532809D01*
X14514524Y-16589952D02*
X14533571Y-16599476D01*
X14571667Y-16599476D01*
X14590714Y-16589952D01*
X14600238Y-16570905D01*
X14600238Y-16561381D01*
X14590714Y-16542333D01*
X14571667Y-16532809D01*
X14543095Y-16532809D01*
X14524048Y-16523286D01*
X14514524Y-16504238D01*
X14514524Y-16494714D01*
X14524048Y-16475667D01*
X14543095Y-16466143D01*
X14571667Y-16466143D01*
X14590714Y-16475667D01*
X14666905Y-16675667D02*
X14676428Y-16666143D01*
X14695476Y-16637571D01*
X14705000Y-16618524D01*
X14714524Y-16589952D01*
X14724048Y-16542333D01*
X14724048Y-16504238D01*
X14714524Y-16456619D01*
X14705000Y-16428048D01*
X14695476Y-16409000D01*
X14676428Y-16380428D01*
X14666905Y-16370905D01*
D14*
X9855000Y-16733000D02*
X9855000Y-16813000D01*
X9815000Y-16773000D02*
X9895000Y-16773000D01*
D11*
X10190714Y-16663476D02*
X10209762Y-16663476D01*
X10228810Y-16673000D01*
X10238333Y-16682524D01*
X10247857Y-16701571D01*
X10257381Y-16739667D01*
X10257381Y-16787286D01*
X10247857Y-16825381D01*
X10238333Y-16844429D01*
X10228810Y-16853952D01*
X10209762Y-16863476D01*
X10190714Y-16863476D01*
X10171667Y-16853952D01*
X10162143Y-16844429D01*
X10152619Y-16825381D01*
X10143095Y-16787286D01*
X10143095Y-16739667D01*
X10152619Y-16701571D01*
X10162143Y-16682524D01*
X10171667Y-16673000D01*
X10190714Y-16663476D01*
X10343095Y-16844429D02*
X10352619Y-16853952D01*
X10343095Y-16863476D01*
X10333571Y-16853952D01*
X10343095Y-16844429D01*
X10343095Y-16863476D01*
X10466905Y-16749190D02*
X10447857Y-16739667D01*
X10438333Y-16730143D01*
X10428810Y-16711095D01*
X10428810Y-16701571D01*
X10438333Y-16682524D01*
X10447857Y-16673000D01*
X10466905Y-16663476D01*
X10505000Y-16663476D01*
X10524048Y-16673000D01*
X10533571Y-16682524D01*
X10543095Y-16701571D01*
X10543095Y-16711095D01*
X10533571Y-16730143D01*
X10524048Y-16739667D01*
X10505000Y-16749190D01*
X10466905Y-16749190D01*
X10447857Y-16758714D01*
X10438333Y-16768238D01*
X10428810Y-16787286D01*
X10428810Y-16825381D01*
X10438333Y-16844429D01*
X10447857Y-16853952D01*
X10466905Y-16863476D01*
X10505000Y-16863476D01*
X10524048Y-16853952D01*
X10533571Y-16844429D01*
X10543095Y-16825381D01*
X10543095Y-16787286D01*
X10533571Y-16768238D01*
X10524048Y-16758714D01*
X10505000Y-16749190D01*
X10666905Y-16663476D02*
X10685952Y-16663476D01*
X10705000Y-16673000D01*
X10714524Y-16682524D01*
X10724048Y-16701571D01*
X10733571Y-16739667D01*
X10733571Y-16787286D01*
X10724048Y-16825381D01*
X10714524Y-16844429D01*
X10705000Y-16853952D01*
X10685952Y-16863476D01*
X10666905Y-16863476D01*
X10647857Y-16853952D01*
X10638333Y-16844429D01*
X10628810Y-16825381D01*
X10619286Y-16787286D01*
X10619286Y-16739667D01*
X10628810Y-16701571D01*
X10638333Y-16682524D01*
X10647857Y-16673000D01*
X10666905Y-16663476D01*
X10857381Y-16663476D02*
X10876429Y-16663476D01*
X10895476Y-16673000D01*
X10905000Y-16682524D01*
X10914524Y-16701571D01*
X10924048Y-16739667D01*
X10924048Y-16787286D01*
X10914524Y-16825381D01*
X10905000Y-16844429D01*
X10895476Y-16853952D01*
X10876429Y-16863476D01*
X10857381Y-16863476D01*
X10838333Y-16853952D01*
X10828810Y-16844429D01*
X10819286Y-16825381D01*
X10809762Y-16787286D01*
X10809762Y-16739667D01*
X10819286Y-16701571D01*
X10828810Y-16682524D01*
X10838333Y-16673000D01*
X10857381Y-16663476D01*
X11009762Y-16863476D02*
X11009762Y-16730143D01*
X11009762Y-16749190D02*
X11019286Y-16739667D01*
X11038333Y-16730143D01*
X11066905Y-16730143D01*
X11085952Y-16739667D01*
X11095476Y-16758714D01*
X11095476Y-16863476D01*
X11095476Y-16758714D02*
X11105000Y-16739667D01*
X11124048Y-16730143D01*
X11152619Y-16730143D01*
X11171667Y-16739667D01*
X11181190Y-16758714D01*
X11181190Y-16863476D01*
X11276428Y-16863476D02*
X11276428Y-16730143D01*
X11276428Y-16749190D02*
X11285952Y-16739667D01*
X11305000Y-16730143D01*
X11333571Y-16730143D01*
X11352619Y-16739667D01*
X11362143Y-16758714D01*
X11362143Y-16863476D01*
X11362143Y-16758714D02*
X11371667Y-16739667D01*
X11390714Y-16730143D01*
X11419286Y-16730143D01*
X11438333Y-16739667D01*
X11447857Y-16758714D01*
X11447857Y-16863476D01*
X11838333Y-16653952D02*
X11666905Y-16911095D01*
X12095476Y-16663476D02*
X12114524Y-16663476D01*
X12133571Y-16673000D01*
X12143095Y-16682524D01*
X12152619Y-16701571D01*
X12162143Y-16739667D01*
X12162143Y-16787286D01*
X12152619Y-16825381D01*
X12143095Y-16844429D01*
X12133571Y-16853952D01*
X12114524Y-16863476D01*
X12095476Y-16863476D01*
X12076428Y-16853952D01*
X12066905Y-16844429D01*
X12057381Y-16825381D01*
X12047857Y-16787286D01*
X12047857Y-16739667D01*
X12057381Y-16701571D01*
X12066905Y-16682524D01*
X12076428Y-16673000D01*
X12095476Y-16663476D01*
X12247857Y-16844429D02*
X12257381Y-16853952D01*
X12247857Y-16863476D01*
X12238333Y-16853952D01*
X12247857Y-16844429D01*
X12247857Y-16863476D01*
X12381190Y-16663476D02*
X12400238Y-16663476D01*
X12419286Y-16673000D01*
X12428809Y-16682524D01*
X12438333Y-16701571D01*
X12447857Y-16739667D01*
X12447857Y-16787286D01*
X12438333Y-16825381D01*
X12428809Y-16844429D01*
X12419286Y-16853952D01*
X12400238Y-16863476D01*
X12381190Y-16863476D01*
X12362143Y-16853952D01*
X12352619Y-16844429D01*
X12343095Y-16825381D01*
X12333571Y-16787286D01*
X12333571Y-16739667D01*
X12343095Y-16701571D01*
X12352619Y-16682524D01*
X12362143Y-16673000D01*
X12381190Y-16663476D01*
X12514524Y-16663476D02*
X12638333Y-16663476D01*
X12571667Y-16739667D01*
X12600238Y-16739667D01*
X12619286Y-16749190D01*
X12628809Y-16758714D01*
X12638333Y-16777762D01*
X12638333Y-16825381D01*
X12628809Y-16844429D01*
X12619286Y-16853952D01*
X12600238Y-16863476D01*
X12543095Y-16863476D01*
X12524048Y-16853952D01*
X12514524Y-16844429D01*
X12828809Y-16863476D02*
X12714524Y-16863476D01*
X12771667Y-16863476D02*
X12771667Y-16663476D01*
X12752619Y-16692048D01*
X12733571Y-16711095D01*
X12714524Y-16720619D01*
X13009762Y-16663476D02*
X12914524Y-16663476D01*
X12905000Y-16758714D01*
X12914524Y-16749190D01*
X12933571Y-16739667D01*
X12981190Y-16739667D01*
X13000238Y-16749190D01*
X13009762Y-16758714D01*
X13019286Y-16777762D01*
X13019286Y-16825381D01*
X13009762Y-16844429D01*
X13000238Y-16853952D01*
X12981190Y-16863476D01*
X12933571Y-16863476D01*
X12914524Y-16853952D01*
X12905000Y-16844429D01*
X13095476Y-16663476D02*
X13095476Y-16701571D01*
X13171667Y-16663476D02*
X13171667Y-16701571D01*
X13466905Y-16939667D02*
X13457381Y-16930143D01*
X13438333Y-16901571D01*
X13428809Y-16882524D01*
X13419286Y-16853952D01*
X13409762Y-16806333D01*
X13409762Y-16768238D01*
X13419286Y-16720619D01*
X13428809Y-16692048D01*
X13438333Y-16673000D01*
X13457381Y-16644428D01*
X13466905Y-16634905D01*
X13581190Y-16663476D02*
X13600238Y-16663476D01*
X13619286Y-16673000D01*
X13628809Y-16682524D01*
X13638333Y-16701571D01*
X13647857Y-16739667D01*
X13647857Y-16787286D01*
X13638333Y-16825381D01*
X13628809Y-16844429D01*
X13619286Y-16853952D01*
X13600238Y-16863476D01*
X13581190Y-16863476D01*
X13562143Y-16853952D01*
X13552619Y-16844429D01*
X13543095Y-16825381D01*
X13533571Y-16787286D01*
X13533571Y-16739667D01*
X13543095Y-16701571D01*
X13552619Y-16682524D01*
X13562143Y-16673000D01*
X13581190Y-16663476D01*
X13885952Y-16863476D02*
X13885952Y-16663476D01*
X13971667Y-16863476D02*
X13971667Y-16758714D01*
X13962143Y-16739667D01*
X13943095Y-16730143D01*
X13914524Y-16730143D01*
X13895476Y-16739667D01*
X13885952Y-16749190D01*
X14095476Y-16863476D02*
X14076428Y-16853952D01*
X14066905Y-16844429D01*
X14057381Y-16825381D01*
X14057381Y-16768238D01*
X14066905Y-16749190D01*
X14076428Y-16739667D01*
X14095476Y-16730143D01*
X14124048Y-16730143D01*
X14143095Y-16739667D01*
X14152619Y-16749190D01*
X14162143Y-16768238D01*
X14162143Y-16825381D01*
X14152619Y-16844429D01*
X14143095Y-16853952D01*
X14124048Y-16863476D01*
X14095476Y-16863476D01*
X14276428Y-16863476D02*
X14257381Y-16853952D01*
X14247857Y-16834905D01*
X14247857Y-16663476D01*
X14428809Y-16853952D02*
X14409762Y-16863476D01*
X14371667Y-16863476D01*
X14352619Y-16853952D01*
X14343095Y-16834905D01*
X14343095Y-16758714D01*
X14352619Y-16739667D01*
X14371667Y-16730143D01*
X14409762Y-16730143D01*
X14428809Y-16739667D01*
X14438333Y-16758714D01*
X14438333Y-16777762D01*
X14343095Y-16796810D01*
X14514524Y-16853952D02*
X14533571Y-16863476D01*
X14571667Y-16863476D01*
X14590714Y-16853952D01*
X14600238Y-16834905D01*
X14600238Y-16825381D01*
X14590714Y-16806333D01*
X14571667Y-16796810D01*
X14543095Y-16796810D01*
X14524048Y-16787286D01*
X14514524Y-16768238D01*
X14514524Y-16758714D01*
X14524048Y-16739667D01*
X14543095Y-16730143D01*
X14571667Y-16730143D01*
X14590714Y-16739667D01*
X14838333Y-16787286D02*
X14990714Y-16787286D01*
X14914524Y-16863476D02*
X14914524Y-16711095D01*
X15324048Y-16730143D02*
X15324048Y-16863476D01*
X15276428Y-16653952D02*
X15228809Y-16796810D01*
X15352619Y-16796810D01*
X15571667Y-16853952D02*
X15590714Y-16863476D01*
X15628809Y-16863476D01*
X15647857Y-16853952D01*
X15657381Y-16834905D01*
X15657381Y-16825381D01*
X15647857Y-16806333D01*
X15628809Y-16796810D01*
X15600238Y-16796810D01*
X15581190Y-16787286D01*
X15571667Y-16768238D01*
X15571667Y-16758714D01*
X15581190Y-16739667D01*
X15600238Y-16730143D01*
X15628809Y-16730143D01*
X15647857Y-16739667D01*
X15771667Y-16863476D02*
X15752619Y-16853952D01*
X15743095Y-16834905D01*
X15743095Y-16663476D01*
X15876428Y-16863476D02*
X15857381Y-16853952D01*
X15847857Y-16844429D01*
X15838333Y-16825381D01*
X15838333Y-16768238D01*
X15847857Y-16749190D01*
X15857381Y-16739667D01*
X15876428Y-16730143D01*
X15905000Y-16730143D01*
X15924048Y-16739667D01*
X15933571Y-16749190D01*
X15943095Y-16768238D01*
X15943095Y-16825381D01*
X15933571Y-16844429D01*
X15924048Y-16853952D01*
X15905000Y-16863476D01*
X15876428Y-16863476D01*
X16000238Y-16730143D02*
X16076428Y-16730143D01*
X16028809Y-16663476D02*
X16028809Y-16834905D01*
X16038333Y-16853952D01*
X16057381Y-16863476D01*
X16076428Y-16863476D01*
X16133571Y-16853952D02*
X16152619Y-16863476D01*
X16190714Y-16863476D01*
X16209762Y-16853952D01*
X16219286Y-16834905D01*
X16219286Y-16825381D01*
X16209762Y-16806333D01*
X16190714Y-16796810D01*
X16162143Y-16796810D01*
X16143095Y-16787286D01*
X16133571Y-16768238D01*
X16133571Y-16758714D01*
X16143095Y-16739667D01*
X16162143Y-16730143D01*
X16190714Y-16730143D01*
X16209762Y-16739667D01*
X16285952Y-16939667D02*
X16295476Y-16930143D01*
X16314524Y-16901571D01*
X16324048Y-16882524D01*
X16333571Y-16853952D01*
X16343095Y-16806333D01*
X16343095Y-16768238D01*
X16333571Y-16720619D01*
X16324048Y-16692048D01*
X16314524Y-16673000D01*
X16295476Y-16644428D01*
X16285952Y-16634905D01*
D15*
X9881820Y-17068820D02*
X9881820Y-17005180D01*
X9818180Y-17005180D01*
X9818180Y-17068820D01*
X9881820Y-17068820D01*
D11*
X10190714Y-16927476D02*
X10209762Y-16927476D01*
X10228810Y-16937000D01*
X10238333Y-16946524D01*
X10247857Y-16965571D01*
X10257381Y-17003667D01*
X10257381Y-17051286D01*
X10247857Y-17089381D01*
X10238333Y-17108429D01*
X10228810Y-17117952D01*
X10209762Y-17127476D01*
X10190714Y-17127476D01*
X10171667Y-17117952D01*
X10162143Y-17108429D01*
X10152619Y-17089381D01*
X10143095Y-17051286D01*
X10143095Y-17003667D01*
X10152619Y-16965571D01*
X10162143Y-16946524D01*
X10171667Y-16937000D01*
X10190714Y-16927476D01*
X10343095Y-17108429D02*
X10352619Y-17117952D01*
X10343095Y-17127476D01*
X10333571Y-17117952D01*
X10343095Y-17108429D01*
X10343095Y-17127476D01*
X10447857Y-17127476D02*
X10485952Y-17127476D01*
X10505000Y-17117952D01*
X10514524Y-17108429D01*
X10533571Y-17079857D01*
X10543095Y-17041762D01*
X10543095Y-16965571D01*
X10533571Y-16946524D01*
X10524048Y-16937000D01*
X10505000Y-16927476D01*
X10466905Y-16927476D01*
X10447857Y-16937000D01*
X10438333Y-16946524D01*
X10428810Y-16965571D01*
X10428810Y-17013190D01*
X10438333Y-17032238D01*
X10447857Y-17041762D01*
X10466905Y-17051286D01*
X10505000Y-17051286D01*
X10524048Y-17041762D01*
X10533571Y-17032238D01*
X10543095Y-17013190D01*
X10666905Y-16927476D02*
X10685952Y-16927476D01*
X10705000Y-16937000D01*
X10714524Y-16946524D01*
X10724048Y-16965571D01*
X10733571Y-17003667D01*
X10733571Y-17051286D01*
X10724048Y-17089381D01*
X10714524Y-17108429D01*
X10705000Y-17117952D01*
X10685952Y-17127476D01*
X10666905Y-17127476D01*
X10647857Y-17117952D01*
X10638333Y-17108429D01*
X10628810Y-17089381D01*
X10619286Y-17051286D01*
X10619286Y-17003667D01*
X10628810Y-16965571D01*
X10638333Y-16946524D01*
X10647857Y-16937000D01*
X10666905Y-16927476D01*
X10857381Y-16927476D02*
X10876429Y-16927476D01*
X10895476Y-16937000D01*
X10905000Y-16946524D01*
X10914524Y-16965571D01*
X10924048Y-17003667D01*
X10924048Y-17051286D01*
X10914524Y-17089381D01*
X10905000Y-17108429D01*
X10895476Y-17117952D01*
X10876429Y-17127476D01*
X10857381Y-17127476D01*
X10838333Y-17117952D01*
X10828810Y-17108429D01*
X10819286Y-17089381D01*
X10809762Y-17051286D01*
X10809762Y-17003667D01*
X10819286Y-16965571D01*
X10828810Y-16946524D01*
X10838333Y-16937000D01*
X10857381Y-16927476D01*
X11009762Y-17127476D02*
X11009762Y-16994143D01*
X11009762Y-17013190D02*
X11019286Y-17003667D01*
X11038333Y-16994143D01*
X11066905Y-16994143D01*
X11085952Y-17003667D01*
X11095476Y-17022714D01*
X11095476Y-17127476D01*
X11095476Y-17022714D02*
X11105000Y-17003667D01*
X11124048Y-16994143D01*
X11152619Y-16994143D01*
X11171667Y-17003667D01*
X11181190Y-17022714D01*
X11181190Y-17127476D01*
X11276428Y-17127476D02*
X11276428Y-16994143D01*
X11276428Y-17013190D02*
X11285952Y-17003667D01*
X11305000Y-16994143D01*
X11333571Y-16994143D01*
X11352619Y-17003667D01*
X11362143Y-17022714D01*
X11362143Y-17127476D01*
X11362143Y-17022714D02*
X11371667Y-17003667D01*
X11390714Y-16994143D01*
X11419286Y-16994143D01*
X11438333Y-17003667D01*
X11447857Y-17022714D01*
X11447857Y-17127476D01*
X11838333Y-16917952D02*
X11666905Y-17175095D01*
X12095476Y-16927476D02*
X12114524Y-16927476D01*
X12133571Y-16937000D01*
X12143095Y-16946524D01*
X12152619Y-16965571D01*
X12162143Y-17003667D01*
X12162143Y-17051286D01*
X12152619Y-17089381D01*
X12143095Y-17108429D01*
X12133571Y-17117952D01*
X12114524Y-17127476D01*
X12095476Y-17127476D01*
X12076428Y-17117952D01*
X12066905Y-17108429D01*
X12057381Y-17089381D01*
X12047857Y-17051286D01*
X12047857Y-17003667D01*
X12057381Y-16965571D01*
X12066905Y-16946524D01*
X12076428Y-16937000D01*
X12095476Y-16927476D01*
X12247857Y-17108429D02*
X12257381Y-17117952D01*
X12247857Y-17127476D01*
X12238333Y-17117952D01*
X12247857Y-17108429D01*
X12247857Y-17127476D01*
X12381190Y-16927476D02*
X12400238Y-16927476D01*
X12419286Y-16937000D01*
X12428809Y-16946524D01*
X12438333Y-16965571D01*
X12447857Y-17003667D01*
X12447857Y-17051286D01*
X12438333Y-17089381D01*
X12428809Y-17108429D01*
X12419286Y-17117952D01*
X12400238Y-17127476D01*
X12381190Y-17127476D01*
X12362143Y-17117952D01*
X12352619Y-17108429D01*
X12343095Y-17089381D01*
X12333571Y-17051286D01*
X12333571Y-17003667D01*
X12343095Y-16965571D01*
X12352619Y-16946524D01*
X12362143Y-16937000D01*
X12381190Y-16927476D01*
X12514524Y-16927476D02*
X12638333Y-16927476D01*
X12571667Y-17003667D01*
X12600238Y-17003667D01*
X12619286Y-17013190D01*
X12628809Y-17022714D01*
X12638333Y-17041762D01*
X12638333Y-17089381D01*
X12628809Y-17108429D01*
X12619286Y-17117952D01*
X12600238Y-17127476D01*
X12543095Y-17127476D01*
X12524048Y-17117952D01*
X12514524Y-17108429D01*
X12819286Y-16927476D02*
X12724048Y-16927476D01*
X12714524Y-17022714D01*
X12724048Y-17013190D01*
X12743095Y-17003667D01*
X12790714Y-17003667D01*
X12809762Y-17013190D01*
X12819286Y-17022714D01*
X12828809Y-17041762D01*
X12828809Y-17089381D01*
X12819286Y-17108429D01*
X12809762Y-17117952D01*
X12790714Y-17127476D01*
X12743095Y-17127476D01*
X12724048Y-17117952D01*
X12714524Y-17108429D01*
X13000238Y-16994143D02*
X13000238Y-17127476D01*
X12952619Y-16917952D02*
X12905000Y-17060810D01*
X13028809Y-17060810D01*
X13095476Y-16927476D02*
X13095476Y-16965571D01*
X13171667Y-16927476D02*
X13171667Y-16965571D01*
X13466905Y-17203667D02*
X13457381Y-17194143D01*
X13438333Y-17165571D01*
X13428809Y-17146524D01*
X13419286Y-17117952D01*
X13409762Y-17070333D01*
X13409762Y-17032238D01*
X13419286Y-16984619D01*
X13428809Y-16956048D01*
X13438333Y-16937000D01*
X13457381Y-16908429D01*
X13466905Y-16898905D01*
X13524048Y-16927476D02*
X13647857Y-16927476D01*
X13581190Y-17003667D01*
X13609762Y-17003667D01*
X13628809Y-17013190D01*
X13638333Y-17022714D01*
X13647857Y-17041762D01*
X13647857Y-17089381D01*
X13638333Y-17108429D01*
X13628809Y-17117952D01*
X13609762Y-17127476D01*
X13552619Y-17127476D01*
X13533571Y-17117952D01*
X13524048Y-17108429D01*
X13724048Y-16946524D02*
X13733571Y-16937000D01*
X13752619Y-16927476D01*
X13800238Y-16927476D01*
X13819286Y-16937000D01*
X13828809Y-16946524D01*
X13838333Y-16965571D01*
X13838333Y-16984619D01*
X13828809Y-17013190D01*
X13714524Y-17127476D01*
X13838333Y-17127476D01*
X14076428Y-17127476D02*
X14076428Y-16927476D01*
X14162143Y-17127476D02*
X14162143Y-17022714D01*
X14152619Y-17003667D01*
X14133571Y-16994143D01*
X14105000Y-16994143D01*
X14085952Y-17003667D01*
X14076428Y-17013190D01*
X14285952Y-17127476D02*
X14266905Y-17117952D01*
X14257381Y-17108429D01*
X14247857Y-17089381D01*
X14247857Y-17032238D01*
X14257381Y-17013190D01*
X14266905Y-17003667D01*
X14285952Y-16994143D01*
X14314524Y-16994143D01*
X14333571Y-17003667D01*
X14343095Y-17013190D01*
X14352619Y-17032238D01*
X14352619Y-17089381D01*
X14343095Y-17108429D01*
X14333571Y-17117952D01*
X14314524Y-17127476D01*
X14285952Y-17127476D01*
X14466905Y-17127476D02*
X14447857Y-17117952D01*
X14438333Y-17098905D01*
X14438333Y-16927476D01*
X14619286Y-17117952D02*
X14600238Y-17127476D01*
X14562143Y-17127476D01*
X14543095Y-17117952D01*
X14533571Y-17098905D01*
X14533571Y-17022714D01*
X14543095Y-17003667D01*
X14562143Y-16994143D01*
X14600238Y-16994143D01*
X14619286Y-17003667D01*
X14628809Y-17022714D01*
X14628809Y-17041762D01*
X14533571Y-17060810D01*
X14705000Y-17117952D02*
X14724048Y-17127476D01*
X14762143Y-17127476D01*
X14781190Y-17117952D01*
X14790714Y-17098905D01*
X14790714Y-17089381D01*
X14781190Y-17070333D01*
X14762143Y-17060810D01*
X14733571Y-17060810D01*
X14714524Y-17051286D01*
X14705000Y-17032238D01*
X14705000Y-17022714D01*
X14714524Y-17003667D01*
X14733571Y-16994143D01*
X14762143Y-16994143D01*
X14781190Y-17003667D01*
X14857381Y-17203667D02*
X14866905Y-17194143D01*
X14885952Y-17165571D01*
X14895476Y-17146524D01*
X14905000Y-17117952D01*
X14914524Y-17070333D01*
X14914524Y-17032238D01*
X14905000Y-16984619D01*
X14895476Y-16956048D01*
X14885952Y-16937000D01*
X14866905Y-16908429D01*
X14857381Y-16898905D01*
D10*
X9845000Y-17351000D02*
X9895000Y-17301000D01*
X9845000Y-17251000D01*
X9795000Y-17301000D01*
X9845000Y-17351000D01*
D11*
X10257381Y-17391476D02*
X10143095Y-17391476D01*
X10200238Y-17391476D02*
X10200238Y-17191476D01*
X10181190Y-17220048D01*
X10162143Y-17239095D01*
X10143095Y-17248619D01*
X10343095Y-17372429D02*
X10352619Y-17381952D01*
X10343095Y-17391476D01*
X10333571Y-17381952D01*
X10343095Y-17372429D01*
X10343095Y-17391476D01*
X10476429Y-17191476D02*
X10495476Y-17191476D01*
X10514524Y-17201000D01*
X10524048Y-17210524D01*
X10533571Y-17229571D01*
X10543095Y-17267667D01*
X10543095Y-17315286D01*
X10533571Y-17353381D01*
X10524048Y-17372429D01*
X10514524Y-17381952D01*
X10495476Y-17391476D01*
X10476429Y-17391476D01*
X10457381Y-17381952D01*
X10447857Y-17372429D01*
X10438333Y-17353381D01*
X10428810Y-17315286D01*
X10428810Y-17267667D01*
X10438333Y-17229571D01*
X10447857Y-17210524D01*
X10457381Y-17201000D01*
X10476429Y-17191476D01*
X10666905Y-17191476D02*
X10685952Y-17191476D01*
X10705000Y-17201000D01*
X10714524Y-17210524D01*
X10724048Y-17229571D01*
X10733571Y-17267667D01*
X10733571Y-17315286D01*
X10724048Y-17353381D01*
X10714524Y-17372429D01*
X10705000Y-17381952D01*
X10685952Y-17391476D01*
X10666905Y-17391476D01*
X10647857Y-17381952D01*
X10638333Y-17372429D01*
X10628810Y-17353381D01*
X10619286Y-17315286D01*
X10619286Y-17267667D01*
X10628810Y-17229571D01*
X10638333Y-17210524D01*
X10647857Y-17201000D01*
X10666905Y-17191476D01*
X10857381Y-17191476D02*
X10876429Y-17191476D01*
X10895476Y-17201000D01*
X10905000Y-17210524D01*
X10914524Y-17229571D01*
X10924048Y-17267667D01*
X10924048Y-17315286D01*
X10914524Y-17353381D01*
X10905000Y-17372429D01*
X10895476Y-17381952D01*
X10876429Y-17391476D01*
X10857381Y-17391476D01*
X10838333Y-17381952D01*
X10828810Y-17372429D01*
X10819286Y-17353381D01*
X10809762Y-17315286D01*
X10809762Y-17267667D01*
X10819286Y-17229571D01*
X10828810Y-17210524D01*
X10838333Y-17201000D01*
X10857381Y-17191476D01*
X11009762Y-17391476D02*
X11009762Y-17258143D01*
X11009762Y-17277190D02*
X11019286Y-17267667D01*
X11038333Y-17258143D01*
X11066905Y-17258143D01*
X11085952Y-17267667D01*
X11095476Y-17286714D01*
X11095476Y-17391476D01*
X11095476Y-17286714D02*
X11105000Y-17267667D01*
X11124048Y-17258143D01*
X11152619Y-17258143D01*
X11171667Y-17267667D01*
X11181190Y-17286714D01*
X11181190Y-17391476D01*
X11276428Y-17391476D02*
X11276428Y-17258143D01*
X11276428Y-17277190D02*
X11285952Y-17267667D01*
X11305000Y-17258143D01*
X11333571Y-17258143D01*
X11352619Y-17267667D01*
X11362143Y-17286714D01*
X11362143Y-17391476D01*
X11362143Y-17286714D02*
X11371667Y-17267667D01*
X11390714Y-17258143D01*
X11419286Y-17258143D01*
X11438333Y-17267667D01*
X11447857Y-17286714D01*
X11447857Y-17391476D01*
X11838333Y-17181952D02*
X11666905Y-17439095D01*
X12095476Y-17191476D02*
X12114524Y-17191476D01*
X12133571Y-17201000D01*
X12143095Y-17210524D01*
X12152619Y-17229571D01*
X12162143Y-17267667D01*
X12162143Y-17315286D01*
X12152619Y-17353381D01*
X12143095Y-17372429D01*
X12133571Y-17381952D01*
X12114524Y-17391476D01*
X12095476Y-17391476D01*
X12076428Y-17381952D01*
X12066905Y-17372429D01*
X12057381Y-17353381D01*
X12047857Y-17315286D01*
X12047857Y-17267667D01*
X12057381Y-17229571D01*
X12066905Y-17210524D01*
X12076428Y-17201000D01*
X12095476Y-17191476D01*
X12247857Y-17372429D02*
X12257381Y-17381952D01*
X12247857Y-17391476D01*
X12238333Y-17381952D01*
X12247857Y-17372429D01*
X12247857Y-17391476D01*
X12381190Y-17191476D02*
X12400238Y-17191476D01*
X12419286Y-17201000D01*
X12428809Y-17210524D01*
X12438333Y-17229571D01*
X12447857Y-17267667D01*
X12447857Y-17315286D01*
X12438333Y-17353381D01*
X12428809Y-17372429D01*
X12419286Y-17381952D01*
X12400238Y-17391476D01*
X12381190Y-17391476D01*
X12362143Y-17381952D01*
X12352619Y-17372429D01*
X12343095Y-17353381D01*
X12333571Y-17315286D01*
X12333571Y-17267667D01*
X12343095Y-17229571D01*
X12352619Y-17210524D01*
X12362143Y-17201000D01*
X12381190Y-17191476D01*
X12514524Y-17191476D02*
X12638333Y-17191476D01*
X12571667Y-17267667D01*
X12600238Y-17267667D01*
X12619286Y-17277190D01*
X12628809Y-17286714D01*
X12638333Y-17305762D01*
X12638333Y-17353381D01*
X12628809Y-17372429D01*
X12619286Y-17381952D01*
X12600238Y-17391476D01*
X12543095Y-17391476D01*
X12524048Y-17381952D01*
X12514524Y-17372429D01*
X12733571Y-17391476D02*
X12771667Y-17391476D01*
X12790714Y-17381952D01*
X12800238Y-17372429D01*
X12819286Y-17343857D01*
X12828809Y-17305762D01*
X12828809Y-17229571D01*
X12819286Y-17210524D01*
X12809762Y-17201000D01*
X12790714Y-17191476D01*
X12752619Y-17191476D01*
X12733571Y-17201000D01*
X12724048Y-17210524D01*
X12714524Y-17229571D01*
X12714524Y-17277190D01*
X12724048Y-17296238D01*
X12733571Y-17305762D01*
X12752619Y-17315286D01*
X12790714Y-17315286D01*
X12809762Y-17305762D01*
X12819286Y-17296238D01*
X12828809Y-17277190D01*
X13000238Y-17258143D02*
X13000238Y-17391476D01*
X12952619Y-17181952D02*
X12905000Y-17324810D01*
X13028809Y-17324810D01*
X13095476Y-17191476D02*
X13095476Y-17229571D01*
X13171667Y-17191476D02*
X13171667Y-17229571D01*
X13466905Y-17467667D02*
X13457381Y-17458143D01*
X13438333Y-17429571D01*
X13428809Y-17410524D01*
X13419286Y-17381952D01*
X13409762Y-17334333D01*
X13409762Y-17296238D01*
X13419286Y-17248619D01*
X13428809Y-17220048D01*
X13438333Y-17201000D01*
X13457381Y-17172429D01*
X13466905Y-17162905D01*
X13581190Y-17191476D02*
X13600238Y-17191476D01*
X13619286Y-17201000D01*
X13628809Y-17210524D01*
X13638333Y-17229571D01*
X13647857Y-17267667D01*
X13647857Y-17315286D01*
X13638333Y-17353381D01*
X13628809Y-17372429D01*
X13619286Y-17381952D01*
X13600238Y-17391476D01*
X13581190Y-17391476D01*
X13562143Y-17381952D01*
X13552619Y-17372429D01*
X13543095Y-17353381D01*
X13533571Y-17315286D01*
X13533571Y-17267667D01*
X13543095Y-17229571D01*
X13552619Y-17210524D01*
X13562143Y-17201000D01*
X13581190Y-17191476D01*
X13885952Y-17391476D02*
X13885952Y-17191476D01*
X13971667Y-17391476D02*
X13971667Y-17286714D01*
X13962143Y-17267667D01*
X13943095Y-17258143D01*
X13914524Y-17258143D01*
X13895476Y-17267667D01*
X13885952Y-17277190D01*
X14095476Y-17391476D02*
X14076428Y-17381952D01*
X14066905Y-17372429D01*
X14057381Y-17353381D01*
X14057381Y-17296238D01*
X14066905Y-17277190D01*
X14076428Y-17267667D01*
X14095476Y-17258143D01*
X14124048Y-17258143D01*
X14143095Y-17267667D01*
X14152619Y-17277190D01*
X14162143Y-17296238D01*
X14162143Y-17353381D01*
X14152619Y-17372429D01*
X14143095Y-17381952D01*
X14124048Y-17391476D01*
X14095476Y-17391476D01*
X14276428Y-17391476D02*
X14257381Y-17381952D01*
X14247857Y-17362905D01*
X14247857Y-17191476D01*
X14428809Y-17381952D02*
X14409762Y-17391476D01*
X14371667Y-17391476D01*
X14352619Y-17381952D01*
X14343095Y-17362905D01*
X14343095Y-17286714D01*
X14352619Y-17267667D01*
X14371667Y-17258143D01*
X14409762Y-17258143D01*
X14428809Y-17267667D01*
X14438333Y-17286714D01*
X14438333Y-17305762D01*
X14343095Y-17324810D01*
X14514524Y-17381952D02*
X14533571Y-17391476D01*
X14571667Y-17391476D01*
X14590714Y-17381952D01*
X14600238Y-17362905D01*
X14600238Y-17353381D01*
X14590714Y-17334333D01*
X14571667Y-17324810D01*
X14543095Y-17324810D01*
X14524048Y-17315286D01*
X14514524Y-17296238D01*
X14514524Y-17286714D01*
X14524048Y-17267667D01*
X14543095Y-17258143D01*
X14571667Y-17258143D01*
X14590714Y-17267667D01*
X14838333Y-17315286D02*
X14990714Y-17315286D01*
X14914524Y-17391476D02*
X14914524Y-17239095D01*
X15228809Y-17210524D02*
X15238333Y-17201000D01*
X15257381Y-17191476D01*
X15305000Y-17191476D01*
X15324048Y-17201000D01*
X15333571Y-17210524D01*
X15343095Y-17229571D01*
X15343095Y-17248619D01*
X15333571Y-17277190D01*
X15219286Y-17391476D01*
X15343095Y-17391476D01*
X15571667Y-17381952D02*
X15590714Y-17391476D01*
X15628809Y-17391476D01*
X15647857Y-17381952D01*
X15657381Y-17362905D01*
X15657381Y-17353381D01*
X15647857Y-17334333D01*
X15628809Y-17324810D01*
X15600238Y-17324810D01*
X15581190Y-17315286D01*
X15571667Y-17296238D01*
X15571667Y-17286714D01*
X15581190Y-17267667D01*
X15600238Y-17258143D01*
X15628809Y-17258143D01*
X15647857Y-17267667D01*
X15771667Y-17391476D02*
X15752619Y-17381952D01*
X15743095Y-17362905D01*
X15743095Y-17191476D01*
X15876428Y-17391476D02*
X15857381Y-17381952D01*
X15847857Y-17372429D01*
X15838333Y-17353381D01*
X15838333Y-17296238D01*
X15847857Y-17277190D01*
X15857381Y-17267667D01*
X15876428Y-17258143D01*
X15905000Y-17258143D01*
X15924048Y-17267667D01*
X15933571Y-17277190D01*
X15943095Y-17296238D01*
X15943095Y-17353381D01*
X15933571Y-17372429D01*
X15924048Y-17381952D01*
X15905000Y-17391476D01*
X15876428Y-17391476D01*
X16000238Y-17258143D02*
X16076428Y-17258143D01*
X16028809Y-17191476D02*
X16028809Y-17362905D01*
X16038333Y-17381952D01*
X16057381Y-17391476D01*
X16076428Y-17391476D01*
X16133571Y-17381952D02*
X16152619Y-17391476D01*
X16190714Y-17391476D01*
X16209762Y-17381952D01*
X16219286Y-17362905D01*
X16219286Y-17353381D01*
X16209762Y-17334333D01*
X16190714Y-17324810D01*
X16162143Y-17324810D01*
X16143095Y-17315286D01*
X16133571Y-17296238D01*
X16133571Y-17286714D01*
X16143095Y-17267667D01*
X16162143Y-17258143D01*
X16190714Y-17258143D01*
X16209762Y-17267667D01*
X16285952Y-17467667D02*
X16295476Y-17458143D01*
X16314524Y-17429571D01*
X16324048Y-17410524D01*
X16333571Y-17381952D01*
X16343095Y-17334333D01*
X16343095Y-17296238D01*
X16333571Y-17248619D01*
X16324048Y-17220048D01*
X16314524Y-17201000D01*
X16295476Y-17172429D01*
X16285952Y-17162905D01*
D16*
X9793400Y-17514200D02*
X9895000Y-17615800D01*
X9895000Y-17514200D02*
X9793400Y-17615800D01*
X9895000Y-17565000D02*
G75*
G03*
X9895000Y-17565000I-50800J0D01*
G01*
D11*
X10257381Y-17655476D02*
X10143095Y-17655476D01*
X10200238Y-17655476D02*
X10200238Y-17455476D01*
X10181190Y-17484048D01*
X10162143Y-17503095D01*
X10143095Y-17512619D01*
X10343095Y-17636429D02*
X10352619Y-17645952D01*
X10343095Y-17655476D01*
X10333571Y-17645952D01*
X10343095Y-17636429D01*
X10343095Y-17655476D01*
X10476429Y-17455476D02*
X10495476Y-17455476D01*
X10514524Y-17465000D01*
X10524048Y-17474524D01*
X10533571Y-17493571D01*
X10543095Y-17531667D01*
X10543095Y-17579286D01*
X10533571Y-17617381D01*
X10524048Y-17636429D01*
X10514524Y-17645952D01*
X10495476Y-17655476D01*
X10476429Y-17655476D01*
X10457381Y-17645952D01*
X10447857Y-17636429D01*
X10438333Y-17617381D01*
X10428810Y-17579286D01*
X10428810Y-17531667D01*
X10438333Y-17493571D01*
X10447857Y-17474524D01*
X10457381Y-17465000D01*
X10476429Y-17455476D01*
X10733571Y-17655476D02*
X10619286Y-17655476D01*
X10676429Y-17655476D02*
X10676429Y-17455476D01*
X10657381Y-17484048D01*
X10638333Y-17503095D01*
X10619286Y-17512619D01*
X10905000Y-17455476D02*
X10866905Y-17455476D01*
X10847857Y-17465000D01*
X10838333Y-17474524D01*
X10819286Y-17503095D01*
X10809762Y-17541190D01*
X10809762Y-17617381D01*
X10819286Y-17636429D01*
X10828810Y-17645952D01*
X10847857Y-17655476D01*
X10885952Y-17655476D01*
X10905000Y-17645952D01*
X10914524Y-17636429D01*
X10924048Y-17617381D01*
X10924048Y-17569762D01*
X10914524Y-17550714D01*
X10905000Y-17541190D01*
X10885952Y-17531667D01*
X10847857Y-17531667D01*
X10828810Y-17541190D01*
X10819286Y-17550714D01*
X10809762Y-17569762D01*
X11009762Y-17655476D02*
X11009762Y-17522143D01*
X11009762Y-17541190D02*
X11019286Y-17531667D01*
X11038333Y-17522143D01*
X11066905Y-17522143D01*
X11085952Y-17531667D01*
X11095476Y-17550714D01*
X11095476Y-17655476D01*
X11095476Y-17550714D02*
X11105000Y-17531667D01*
X11124048Y-17522143D01*
X11152619Y-17522143D01*
X11171667Y-17531667D01*
X11181190Y-17550714D01*
X11181190Y-17655476D01*
X11276428Y-17655476D02*
X11276428Y-17522143D01*
X11276428Y-17541190D02*
X11285952Y-17531667D01*
X11305000Y-17522143D01*
X11333571Y-17522143D01*
X11352619Y-17531667D01*
X11362143Y-17550714D01*
X11362143Y-17655476D01*
X11362143Y-17550714D02*
X11371667Y-17531667D01*
X11390714Y-17522143D01*
X11419286Y-17522143D01*
X11438333Y-17531667D01*
X11447857Y-17550714D01*
X11447857Y-17655476D01*
X11838333Y-17445952D02*
X11666905Y-17703095D01*
X12095476Y-17455476D02*
X12114524Y-17455476D01*
X12133571Y-17465000D01*
X12143095Y-17474524D01*
X12152619Y-17493571D01*
X12162143Y-17531667D01*
X12162143Y-17579286D01*
X12152619Y-17617381D01*
X12143095Y-17636429D01*
X12133571Y-17645952D01*
X12114524Y-17655476D01*
X12095476Y-17655476D01*
X12076428Y-17645952D01*
X12066905Y-17636429D01*
X12057381Y-17617381D01*
X12047857Y-17579286D01*
X12047857Y-17531667D01*
X12057381Y-17493571D01*
X12066905Y-17474524D01*
X12076428Y-17465000D01*
X12095476Y-17455476D01*
X12247857Y-17636429D02*
X12257381Y-17645952D01*
X12247857Y-17655476D01*
X12238333Y-17645952D01*
X12247857Y-17636429D01*
X12247857Y-17655476D01*
X12381190Y-17455476D02*
X12400238Y-17455476D01*
X12419286Y-17465000D01*
X12428809Y-17474524D01*
X12438333Y-17493571D01*
X12447857Y-17531667D01*
X12447857Y-17579286D01*
X12438333Y-17617381D01*
X12428809Y-17636429D01*
X12419286Y-17645952D01*
X12400238Y-17655476D01*
X12381190Y-17655476D01*
X12362143Y-17645952D01*
X12352619Y-17636429D01*
X12343095Y-17617381D01*
X12333571Y-17579286D01*
X12333571Y-17531667D01*
X12343095Y-17493571D01*
X12352619Y-17474524D01*
X12362143Y-17465000D01*
X12381190Y-17455476D01*
X12619286Y-17522143D02*
X12619286Y-17655476D01*
X12571667Y-17445952D02*
X12524048Y-17588810D01*
X12647857Y-17588810D01*
X12762143Y-17455476D02*
X12781190Y-17455476D01*
X12800238Y-17465000D01*
X12809762Y-17474524D01*
X12819286Y-17493571D01*
X12828809Y-17531667D01*
X12828809Y-17579286D01*
X12819286Y-17617381D01*
X12809762Y-17636429D01*
X12800238Y-17645952D01*
X12781190Y-17655476D01*
X12762143Y-17655476D01*
X12743095Y-17645952D01*
X12733571Y-17636429D01*
X12724048Y-17617381D01*
X12714524Y-17579286D01*
X12714524Y-17531667D01*
X12724048Y-17493571D01*
X12733571Y-17474524D01*
X12743095Y-17465000D01*
X12762143Y-17455476D01*
X12952619Y-17455476D02*
X12971667Y-17455476D01*
X12990714Y-17465000D01*
X13000238Y-17474524D01*
X13009762Y-17493571D01*
X13019286Y-17531667D01*
X13019286Y-17579286D01*
X13009762Y-17617381D01*
X13000238Y-17636429D01*
X12990714Y-17645952D01*
X12971667Y-17655476D01*
X12952619Y-17655476D01*
X12933571Y-17645952D01*
X12924048Y-17636429D01*
X12914524Y-17617381D01*
X12905000Y-17579286D01*
X12905000Y-17531667D01*
X12914524Y-17493571D01*
X12924048Y-17474524D01*
X12933571Y-17465000D01*
X12952619Y-17455476D01*
X13095476Y-17455476D02*
X13095476Y-17493571D01*
X13171667Y-17455476D02*
X13171667Y-17493571D01*
X13466905Y-17731667D02*
X13457381Y-17722143D01*
X13438333Y-17693571D01*
X13428809Y-17674524D01*
X13419286Y-17645952D01*
X13409762Y-17598333D01*
X13409762Y-17560238D01*
X13419286Y-17512619D01*
X13428809Y-17484048D01*
X13438333Y-17465000D01*
X13457381Y-17436429D01*
X13466905Y-17426905D01*
X13552619Y-17655476D02*
X13590714Y-17655476D01*
X13609762Y-17645952D01*
X13619286Y-17636429D01*
X13638333Y-17607857D01*
X13647857Y-17569762D01*
X13647857Y-17493571D01*
X13638333Y-17474524D01*
X13628809Y-17465000D01*
X13609762Y-17455476D01*
X13571667Y-17455476D01*
X13552619Y-17465000D01*
X13543095Y-17474524D01*
X13533571Y-17493571D01*
X13533571Y-17541190D01*
X13543095Y-17560238D01*
X13552619Y-17569762D01*
X13571667Y-17579286D01*
X13609762Y-17579286D01*
X13628809Y-17569762D01*
X13638333Y-17560238D01*
X13647857Y-17541190D01*
X13724048Y-17474524D02*
X13733571Y-17465000D01*
X13752619Y-17455476D01*
X13800238Y-17455476D01*
X13819286Y-17465000D01*
X13828809Y-17474524D01*
X13838333Y-17493571D01*
X13838333Y-17512619D01*
X13828809Y-17541190D01*
X13714524Y-17655476D01*
X13838333Y-17655476D01*
X14076428Y-17655476D02*
X14076428Y-17455476D01*
X14162143Y-17655476D02*
X14162143Y-17550714D01*
X14152619Y-17531667D01*
X14133571Y-17522143D01*
X14105000Y-17522143D01*
X14085952Y-17531667D01*
X14076428Y-17541190D01*
X14285952Y-17655476D02*
X14266905Y-17645952D01*
X14257381Y-17636429D01*
X14247857Y-17617381D01*
X14247857Y-17560238D01*
X14257381Y-17541190D01*
X14266905Y-17531667D01*
X14285952Y-17522143D01*
X14314524Y-17522143D01*
X14333571Y-17531667D01*
X14343095Y-17541190D01*
X14352619Y-17560238D01*
X14352619Y-17617381D01*
X14343095Y-17636429D01*
X14333571Y-17645952D01*
X14314524Y-17655476D01*
X14285952Y-17655476D01*
X14466905Y-17655476D02*
X14447857Y-17645952D01*
X14438333Y-17626905D01*
X14438333Y-17455476D01*
X14619286Y-17645952D02*
X14600238Y-17655476D01*
X14562143Y-17655476D01*
X14543095Y-17645952D01*
X14533571Y-17626905D01*
X14533571Y-17550714D01*
X14543095Y-17531667D01*
X14562143Y-17522143D01*
X14600238Y-17522143D01*
X14619286Y-17531667D01*
X14628809Y-17550714D01*
X14628809Y-17569762D01*
X14533571Y-17588810D01*
X14705000Y-17645952D02*
X14724048Y-17655476D01*
X14762143Y-17655476D01*
X14781190Y-17645952D01*
X14790714Y-17626905D01*
X14790714Y-17617381D01*
X14781190Y-17598333D01*
X14762143Y-17588810D01*
X14733571Y-17588810D01*
X14714524Y-17579286D01*
X14705000Y-17560238D01*
X14705000Y-17550714D01*
X14714524Y-17531667D01*
X14733571Y-17522143D01*
X14762143Y-17522143D01*
X14781190Y-17531667D01*
X14857381Y-17731667D02*
X14866905Y-17722143D01*
X14885952Y-17693571D01*
X14895476Y-17674524D01*
X14905000Y-17645952D01*
X14914524Y-17598333D01*
X14914524Y-17560238D01*
X14905000Y-17512619D01*
X14895476Y-17484048D01*
X14885952Y-17465000D01*
X14866905Y-17436429D01*
X14857381Y-17426905D01*
D17*
X9785000Y-17774000D02*
X9895000Y-17884000D01*
X9895000Y-17774000D02*
X9785000Y-17884000D01*
X9840000Y-17774000D02*
X9840000Y-17884000D01*
X9785000Y-17829000D02*
X9895000Y-17829000D01*
D11*
X10257381Y-17919476D02*
X10143095Y-17919476D01*
X10200238Y-17919476D02*
X10200238Y-17719476D01*
X10181190Y-17748048D01*
X10162143Y-17767095D01*
X10143095Y-17776619D01*
X10343095Y-17900429D02*
X10352619Y-17909952D01*
X10343095Y-17919476D01*
X10333571Y-17909952D01*
X10343095Y-17900429D01*
X10343095Y-17919476D01*
X10543095Y-17919476D02*
X10428810Y-17919476D01*
X10485952Y-17919476D02*
X10485952Y-17719476D01*
X10466905Y-17748048D01*
X10447857Y-17767095D01*
X10428810Y-17776619D01*
X10666905Y-17719476D02*
X10685952Y-17719476D01*
X10705000Y-17729000D01*
X10714524Y-17738524D01*
X10724048Y-17757571D01*
X10733571Y-17795667D01*
X10733571Y-17843286D01*
X10724048Y-17881381D01*
X10714524Y-17900429D01*
X10705000Y-17909952D01*
X10685952Y-17919476D01*
X10666905Y-17919476D01*
X10647857Y-17909952D01*
X10638333Y-17900429D01*
X10628810Y-17881381D01*
X10619286Y-17843286D01*
X10619286Y-17795667D01*
X10628810Y-17757571D01*
X10638333Y-17738524D01*
X10647857Y-17729000D01*
X10666905Y-17719476D01*
X10857381Y-17719476D02*
X10876429Y-17719476D01*
X10895476Y-17729000D01*
X10905000Y-17738524D01*
X10914524Y-17757571D01*
X10924048Y-17795667D01*
X10924048Y-17843286D01*
X10914524Y-17881381D01*
X10905000Y-17900429D01*
X10895476Y-17909952D01*
X10876429Y-17919476D01*
X10857381Y-17919476D01*
X10838333Y-17909952D01*
X10828810Y-17900429D01*
X10819286Y-17881381D01*
X10809762Y-17843286D01*
X10809762Y-17795667D01*
X10819286Y-17757571D01*
X10828810Y-17738524D01*
X10838333Y-17729000D01*
X10857381Y-17719476D01*
X11009762Y-17919476D02*
X11009762Y-17786143D01*
X11009762Y-17805190D02*
X11019286Y-17795667D01*
X11038333Y-17786143D01*
X11066905Y-17786143D01*
X11085952Y-17795667D01*
X11095476Y-17814714D01*
X11095476Y-17919476D01*
X11095476Y-17814714D02*
X11105000Y-17795667D01*
X11124048Y-17786143D01*
X11152619Y-17786143D01*
X11171667Y-17795667D01*
X11181190Y-17814714D01*
X11181190Y-17919476D01*
X11276428Y-17919476D02*
X11276428Y-17786143D01*
X11276428Y-17805190D02*
X11285952Y-17795667D01*
X11305000Y-17786143D01*
X11333571Y-17786143D01*
X11352619Y-17795667D01*
X11362143Y-17814714D01*
X11362143Y-17919476D01*
X11362143Y-17814714D02*
X11371667Y-17795667D01*
X11390714Y-17786143D01*
X11419286Y-17786143D01*
X11438333Y-17795667D01*
X11447857Y-17814714D01*
X11447857Y-17919476D01*
X11838333Y-17709952D02*
X11666905Y-17967095D01*
X12095476Y-17719476D02*
X12114524Y-17719476D01*
X12133571Y-17729000D01*
X12143095Y-17738524D01*
X12152619Y-17757571D01*
X12162143Y-17795667D01*
X12162143Y-17843286D01*
X12152619Y-17881381D01*
X12143095Y-17900429D01*
X12133571Y-17909952D01*
X12114524Y-17919476D01*
X12095476Y-17919476D01*
X12076428Y-17909952D01*
X12066905Y-17900429D01*
X12057381Y-17881381D01*
X12047857Y-17843286D01*
X12047857Y-17795667D01*
X12057381Y-17757571D01*
X12066905Y-17738524D01*
X12076428Y-17729000D01*
X12095476Y-17719476D01*
X12247857Y-17900429D02*
X12257381Y-17909952D01*
X12247857Y-17919476D01*
X12238333Y-17909952D01*
X12247857Y-17900429D01*
X12247857Y-17919476D01*
X12381190Y-17719476D02*
X12400238Y-17719476D01*
X12419286Y-17729000D01*
X12428809Y-17738524D01*
X12438333Y-17757571D01*
X12447857Y-17795667D01*
X12447857Y-17843286D01*
X12438333Y-17881381D01*
X12428809Y-17900429D01*
X12419286Y-17909952D01*
X12400238Y-17919476D01*
X12381190Y-17919476D01*
X12362143Y-17909952D01*
X12352619Y-17900429D01*
X12343095Y-17881381D01*
X12333571Y-17843286D01*
X12333571Y-17795667D01*
X12343095Y-17757571D01*
X12352619Y-17738524D01*
X12362143Y-17729000D01*
X12381190Y-17719476D01*
X12619286Y-17786143D02*
X12619286Y-17919476D01*
X12571667Y-17709952D02*
X12524048Y-17852810D01*
X12647857Y-17852810D01*
X12705000Y-17719476D02*
X12828809Y-17719476D01*
X12762143Y-17795667D01*
X12790714Y-17795667D01*
X12809762Y-17805190D01*
X12819286Y-17814714D01*
X12828809Y-17833762D01*
X12828809Y-17881381D01*
X12819286Y-17900429D01*
X12809762Y-17909952D01*
X12790714Y-17919476D01*
X12733571Y-17919476D01*
X12714524Y-17909952D01*
X12705000Y-17900429D01*
X12895476Y-17719476D02*
X13019286Y-17719476D01*
X12952619Y-17795667D01*
X12981190Y-17795667D01*
X13000238Y-17805190D01*
X13009762Y-17814714D01*
X13019286Y-17833762D01*
X13019286Y-17881381D01*
X13009762Y-17900429D01*
X13000238Y-17909952D01*
X12981190Y-17919476D01*
X12924048Y-17919476D01*
X12905000Y-17909952D01*
X12895476Y-17900429D01*
X13095476Y-17719476D02*
X13095476Y-17757571D01*
X13171667Y-17719476D02*
X13171667Y-17757571D01*
X13466905Y-17995667D02*
X13457381Y-17986143D01*
X13438333Y-17957571D01*
X13428809Y-17938524D01*
X13419286Y-17909952D01*
X13409762Y-17862333D01*
X13409762Y-17824238D01*
X13419286Y-17776619D01*
X13428809Y-17748048D01*
X13438333Y-17729000D01*
X13457381Y-17700429D01*
X13466905Y-17690905D01*
X13628809Y-17719476D02*
X13590714Y-17719476D01*
X13571667Y-17729000D01*
X13562143Y-17738524D01*
X13543095Y-17767095D01*
X13533571Y-17805190D01*
X13533571Y-17881381D01*
X13543095Y-17900429D01*
X13552619Y-17909952D01*
X13571667Y-17919476D01*
X13609762Y-17919476D01*
X13628809Y-17909952D01*
X13638333Y-17900429D01*
X13647857Y-17881381D01*
X13647857Y-17833762D01*
X13638333Y-17814714D01*
X13628809Y-17805190D01*
X13609762Y-17795667D01*
X13571667Y-17795667D01*
X13552619Y-17805190D01*
X13543095Y-17814714D01*
X13533571Y-17833762D01*
X13819286Y-17719476D02*
X13781190Y-17719476D01*
X13762143Y-17729000D01*
X13752619Y-17738524D01*
X13733571Y-17767095D01*
X13724048Y-17805190D01*
X13724048Y-17881381D01*
X13733571Y-17900429D01*
X13743095Y-17909952D01*
X13762143Y-17919476D01*
X13800238Y-17919476D01*
X13819286Y-17909952D01*
X13828809Y-17900429D01*
X13838333Y-17881381D01*
X13838333Y-17833762D01*
X13828809Y-17814714D01*
X13819286Y-17805190D01*
X13800238Y-17795667D01*
X13762143Y-17795667D01*
X13743095Y-17805190D01*
X13733571Y-17814714D01*
X13724048Y-17833762D01*
X14076428Y-17919476D02*
X14076428Y-17719476D01*
X14162143Y-17919476D02*
X14162143Y-17814714D01*
X14152619Y-17795667D01*
X14133571Y-17786143D01*
X14105000Y-17786143D01*
X14085952Y-17795667D01*
X14076428Y-17805190D01*
X14285952Y-17919476D02*
X14266905Y-17909952D01*
X14257381Y-17900429D01*
X14247857Y-17881381D01*
X14247857Y-17824238D01*
X14257381Y-17805190D01*
X14266905Y-17795667D01*
X14285952Y-17786143D01*
X14314524Y-17786143D01*
X14333571Y-17795667D01*
X14343095Y-17805190D01*
X14352619Y-17824238D01*
X14352619Y-17881381D01*
X14343095Y-17900429D01*
X14333571Y-17909952D01*
X14314524Y-17919476D01*
X14285952Y-17919476D01*
X14466905Y-17919476D02*
X14447857Y-17909952D01*
X14438333Y-17890905D01*
X14438333Y-17719476D01*
X14619286Y-17909952D02*
X14600238Y-17919476D01*
X14562143Y-17919476D01*
X14543095Y-17909952D01*
X14533571Y-17890905D01*
X14533571Y-17814714D01*
X14543095Y-17795667D01*
X14562143Y-17786143D01*
X14600238Y-17786143D01*
X14619286Y-17795667D01*
X14628809Y-17814714D01*
X14628809Y-17833762D01*
X14533571Y-17852810D01*
X14705000Y-17909952D02*
X14724048Y-17919476D01*
X14762143Y-17919476D01*
X14781190Y-17909952D01*
X14790714Y-17890905D01*
X14790714Y-17881381D01*
X14781190Y-17862333D01*
X14762143Y-17852810D01*
X14733571Y-17852810D01*
X14714524Y-17843286D01*
X14705000Y-17824238D01*
X14705000Y-17814714D01*
X14714524Y-17795667D01*
X14733571Y-17786143D01*
X14762143Y-17786143D01*
X14781190Y-17795667D01*
X14857381Y-17995667D02*
X14866905Y-17986143D01*
X14885952Y-17957571D01*
X14895476Y-17938524D01*
X14905000Y-17909952D01*
X14914524Y-17862333D01*
X14914524Y-17824238D01*
X14905000Y-17776619D01*
X14895476Y-17748048D01*
X14885952Y-17729000D01*
X14866905Y-17700429D01*
X14857381Y-17690905D01*
D18*
X9745000Y-18018000D02*
X9895000Y-18168000D01*
X9895000Y-18018000D02*
X9745000Y-18168000D01*
X9873034Y-18146034D02*
X9873034Y-18039967D01*
X9766967Y-18039967D01*
X9766967Y-18146034D01*
X9873034Y-18146034D01*
D11*
X10257381Y-18183476D02*
X10143095Y-18183476D01*
X10200238Y-18183476D02*
X10200238Y-17983476D01*
X10181190Y-18012048D01*
X10162143Y-18031095D01*
X10143095Y-18040619D01*
X10343095Y-18164429D02*
X10352619Y-18173952D01*
X10343095Y-18183476D01*
X10333571Y-18173952D01*
X10343095Y-18164429D01*
X10343095Y-18183476D01*
X10533571Y-17983476D02*
X10438333Y-17983476D01*
X10428810Y-18078714D01*
X10438333Y-18069190D01*
X10457381Y-18059667D01*
X10505000Y-18059667D01*
X10524048Y-18069190D01*
X10533571Y-18078714D01*
X10543095Y-18097762D01*
X10543095Y-18145381D01*
X10533571Y-18164429D01*
X10524048Y-18173952D01*
X10505000Y-18183476D01*
X10457381Y-18183476D01*
X10438333Y-18173952D01*
X10428810Y-18164429D01*
X10666905Y-17983476D02*
X10685952Y-17983476D01*
X10705000Y-17993000D01*
X10714524Y-18002524D01*
X10724048Y-18021571D01*
X10733571Y-18059667D01*
X10733571Y-18107286D01*
X10724048Y-18145381D01*
X10714524Y-18164429D01*
X10705000Y-18173952D01*
X10685952Y-18183476D01*
X10666905Y-18183476D01*
X10647857Y-18173952D01*
X10638333Y-18164429D01*
X10628810Y-18145381D01*
X10619286Y-18107286D01*
X10619286Y-18059667D01*
X10628810Y-18021571D01*
X10638333Y-18002524D01*
X10647857Y-17993000D01*
X10666905Y-17983476D01*
X10857381Y-17983476D02*
X10876429Y-17983476D01*
X10895476Y-17993000D01*
X10905000Y-18002524D01*
X10914524Y-18021571D01*
X10924048Y-18059667D01*
X10924048Y-18107286D01*
X10914524Y-18145381D01*
X10905000Y-18164429D01*
X10895476Y-18173952D01*
X10876429Y-18183476D01*
X10857381Y-18183476D01*
X10838333Y-18173952D01*
X10828810Y-18164429D01*
X10819286Y-18145381D01*
X10809762Y-18107286D01*
X10809762Y-18059667D01*
X10819286Y-18021571D01*
X10828810Y-18002524D01*
X10838333Y-17993000D01*
X10857381Y-17983476D01*
X11009762Y-18183476D02*
X11009762Y-18050143D01*
X11009762Y-18069190D02*
X11019286Y-18059667D01*
X11038333Y-18050143D01*
X11066905Y-18050143D01*
X11085952Y-18059667D01*
X11095476Y-18078714D01*
X11095476Y-18183476D01*
X11095476Y-18078714D02*
X11105000Y-18059667D01*
X11124048Y-18050143D01*
X11152619Y-18050143D01*
X11171667Y-18059667D01*
X11181190Y-18078714D01*
X11181190Y-18183476D01*
X11276428Y-18183476D02*
X11276428Y-18050143D01*
X11276428Y-18069190D02*
X11285952Y-18059667D01*
X11305000Y-18050143D01*
X11333571Y-18050143D01*
X11352619Y-18059667D01*
X11362143Y-18078714D01*
X11362143Y-18183476D01*
X11362143Y-18078714D02*
X11371667Y-18059667D01*
X11390714Y-18050143D01*
X11419286Y-18050143D01*
X11438333Y-18059667D01*
X11447857Y-18078714D01*
X11447857Y-18183476D01*
X11838333Y-17973952D02*
X11666905Y-18231095D01*
X12095476Y-17983476D02*
X12114524Y-17983476D01*
X12133571Y-17993000D01*
X12143095Y-18002524D01*
X12152619Y-18021571D01*
X12162143Y-18059667D01*
X12162143Y-18107286D01*
X12152619Y-18145381D01*
X12143095Y-18164429D01*
X12133571Y-18173952D01*
X12114524Y-18183476D01*
X12095476Y-18183476D01*
X12076428Y-18173952D01*
X12066905Y-18164429D01*
X12057381Y-18145381D01*
X12047857Y-18107286D01*
X12047857Y-18059667D01*
X12057381Y-18021571D01*
X12066905Y-18002524D01*
X12076428Y-17993000D01*
X12095476Y-17983476D01*
X12247857Y-18164429D02*
X12257381Y-18173952D01*
X12247857Y-18183476D01*
X12238333Y-18173952D01*
X12247857Y-18164429D01*
X12247857Y-18183476D01*
X12381190Y-17983476D02*
X12400238Y-17983476D01*
X12419286Y-17993000D01*
X12428809Y-18002524D01*
X12438333Y-18021571D01*
X12447857Y-18059667D01*
X12447857Y-18107286D01*
X12438333Y-18145381D01*
X12428809Y-18164429D01*
X12419286Y-18173952D01*
X12400238Y-18183476D01*
X12381190Y-18183476D01*
X12362143Y-18173952D01*
X12352619Y-18164429D01*
X12343095Y-18145381D01*
X12333571Y-18107286D01*
X12333571Y-18059667D01*
X12343095Y-18021571D01*
X12352619Y-18002524D01*
X12362143Y-17993000D01*
X12381190Y-17983476D01*
X12628809Y-17983476D02*
X12533571Y-17983476D01*
X12524048Y-18078714D01*
X12533571Y-18069190D01*
X12552619Y-18059667D01*
X12600238Y-18059667D01*
X12619286Y-18069190D01*
X12628809Y-18078714D01*
X12638333Y-18097762D01*
X12638333Y-18145381D01*
X12628809Y-18164429D01*
X12619286Y-18173952D01*
X12600238Y-18183476D01*
X12552619Y-18183476D01*
X12533571Y-18173952D01*
X12524048Y-18164429D01*
X12733571Y-18183476D02*
X12771667Y-18183476D01*
X12790714Y-18173952D01*
X12800238Y-18164429D01*
X12819286Y-18135857D01*
X12828809Y-18097762D01*
X12828809Y-18021571D01*
X12819286Y-18002524D01*
X12809762Y-17993000D01*
X12790714Y-17983476D01*
X12752619Y-17983476D01*
X12733571Y-17993000D01*
X12724048Y-18002524D01*
X12714524Y-18021571D01*
X12714524Y-18069190D01*
X12724048Y-18088238D01*
X12733571Y-18097762D01*
X12752619Y-18107286D01*
X12790714Y-18107286D01*
X12809762Y-18097762D01*
X12819286Y-18088238D01*
X12828809Y-18069190D01*
X13019286Y-18183476D02*
X12905000Y-18183476D01*
X12962143Y-18183476D02*
X12962143Y-17983476D01*
X12943095Y-18012048D01*
X12924048Y-18031095D01*
X12905000Y-18040619D01*
X13095476Y-17983476D02*
X13095476Y-18021571D01*
X13171667Y-17983476D02*
X13171667Y-18021571D01*
X13466905Y-18259667D02*
X13457381Y-18250143D01*
X13438333Y-18221571D01*
X13428809Y-18202524D01*
X13419286Y-18173952D01*
X13409762Y-18126333D01*
X13409762Y-18088238D01*
X13419286Y-18040619D01*
X13428809Y-18012048D01*
X13438333Y-17993000D01*
X13457381Y-17964429D01*
X13466905Y-17954905D01*
X13524048Y-17983476D02*
X13647857Y-17983476D01*
X13581190Y-18059667D01*
X13609762Y-18059667D01*
X13628809Y-18069190D01*
X13638333Y-18078714D01*
X13647857Y-18097762D01*
X13647857Y-18145381D01*
X13638333Y-18164429D01*
X13628809Y-18173952D01*
X13609762Y-18183476D01*
X13552619Y-18183476D01*
X13533571Y-18173952D01*
X13524048Y-18164429D01*
X13771667Y-17983476D02*
X13790714Y-17983476D01*
X13809762Y-17993000D01*
X13819286Y-18002524D01*
X13828809Y-18021571D01*
X13838333Y-18059667D01*
X13838333Y-18107286D01*
X13828809Y-18145381D01*
X13819286Y-18164429D01*
X13809762Y-18173952D01*
X13790714Y-18183476D01*
X13771667Y-18183476D01*
X13752619Y-18173952D01*
X13743095Y-18164429D01*
X13733571Y-18145381D01*
X13724048Y-18107286D01*
X13724048Y-18059667D01*
X13733571Y-18021571D01*
X13743095Y-18002524D01*
X13752619Y-17993000D01*
X13771667Y-17983476D01*
X14076428Y-18183476D02*
X14076428Y-17983476D01*
X14162143Y-18183476D02*
X14162143Y-18078714D01*
X14152619Y-18059667D01*
X14133571Y-18050143D01*
X14105000Y-18050143D01*
X14085952Y-18059667D01*
X14076428Y-18069190D01*
X14285952Y-18183476D02*
X14266905Y-18173952D01*
X14257381Y-18164429D01*
X14247857Y-18145381D01*
X14247857Y-18088238D01*
X14257381Y-18069190D01*
X14266905Y-18059667D01*
X14285952Y-18050143D01*
X14314524Y-18050143D01*
X14333571Y-18059667D01*
X14343095Y-18069190D01*
X14352619Y-18088238D01*
X14352619Y-18145381D01*
X14343095Y-18164429D01*
X14333571Y-18173952D01*
X14314524Y-18183476D01*
X14285952Y-18183476D01*
X14466905Y-18183476D02*
X14447857Y-18173952D01*
X14438333Y-18154905D01*
X14438333Y-17983476D01*
X14619286Y-18173952D02*
X14600238Y-18183476D01*
X14562143Y-18183476D01*
X14543095Y-18173952D01*
X14533571Y-18154905D01*
X14533571Y-18078714D01*
X14543095Y-18059667D01*
X14562143Y-18050143D01*
X14600238Y-18050143D01*
X14619286Y-18059667D01*
X14628809Y-18078714D01*
X14628809Y-18097762D01*
X14533571Y-18116810D01*
X14705000Y-18173952D02*
X14724048Y-18183476D01*
X14762143Y-18183476D01*
X14781190Y-18173952D01*
X14790714Y-18154905D01*
X14790714Y-18145381D01*
X14781190Y-18126333D01*
X14762143Y-18116810D01*
X14733571Y-18116810D01*
X14714524Y-18107286D01*
X14705000Y-18088238D01*
X14705000Y-18078714D01*
X14714524Y-18059667D01*
X14733571Y-18050143D01*
X14762143Y-18050143D01*
X14781190Y-18059667D01*
X14857381Y-18259667D02*
X14866905Y-18250143D01*
X14885952Y-18221571D01*
X14895476Y-18202524D01*
X14905000Y-18173952D01*
X14914524Y-18126333D01*
X14914524Y-18088238D01*
X14905000Y-18040619D01*
X14895476Y-18012048D01*
X14885952Y-17993000D01*
X14866905Y-17964429D01*
X14857381Y-17954905D01*
D19*
X9735000Y-18283000D02*
X9895000Y-18443000D01*
X9895000Y-18283000D02*
X9735000Y-18443000D01*
X9815000Y-18443000D02*
X9895000Y-18363000D01*
X9815000Y-18283000D01*
X9735000Y-18363000D01*
X9815000Y-18443000D01*
D11*
X10257381Y-18453476D02*
X10143095Y-18453476D01*
X10200238Y-18453476D02*
X10200238Y-18253476D01*
X10181190Y-18282048D01*
X10162143Y-18301095D01*
X10143095Y-18310619D01*
X10343095Y-18434429D02*
X10352619Y-18443952D01*
X10343095Y-18453476D01*
X10333571Y-18443952D01*
X10343095Y-18434429D01*
X10343095Y-18453476D01*
X10524048Y-18253476D02*
X10485952Y-18253476D01*
X10466905Y-18263000D01*
X10457381Y-18272524D01*
X10438333Y-18301095D01*
X10428810Y-18339190D01*
X10428810Y-18415381D01*
X10438333Y-18434429D01*
X10447857Y-18443952D01*
X10466905Y-18453476D01*
X10505000Y-18453476D01*
X10524048Y-18443952D01*
X10533571Y-18434429D01*
X10543095Y-18415381D01*
X10543095Y-18367762D01*
X10533571Y-18348714D01*
X10524048Y-18339190D01*
X10505000Y-18329667D01*
X10466905Y-18329667D01*
X10447857Y-18339190D01*
X10438333Y-18348714D01*
X10428810Y-18367762D01*
X10666905Y-18253476D02*
X10685952Y-18253476D01*
X10705000Y-18263000D01*
X10714524Y-18272524D01*
X10724048Y-18291571D01*
X10733571Y-18329667D01*
X10733571Y-18377286D01*
X10724048Y-18415381D01*
X10714524Y-18434429D01*
X10705000Y-18443952D01*
X10685952Y-18453476D01*
X10666905Y-18453476D01*
X10647857Y-18443952D01*
X10638333Y-18434429D01*
X10628810Y-18415381D01*
X10619286Y-18377286D01*
X10619286Y-18329667D01*
X10628810Y-18291571D01*
X10638333Y-18272524D01*
X10647857Y-18263000D01*
X10666905Y-18253476D01*
X10857381Y-18253476D02*
X10876429Y-18253476D01*
X10895476Y-18263000D01*
X10905000Y-18272524D01*
X10914524Y-18291571D01*
X10924048Y-18329667D01*
X10924048Y-18377286D01*
X10914524Y-18415381D01*
X10905000Y-18434429D01*
X10895476Y-18443952D01*
X10876429Y-18453476D01*
X10857381Y-18453476D01*
X10838333Y-18443952D01*
X10828810Y-18434429D01*
X10819286Y-18415381D01*
X10809762Y-18377286D01*
X10809762Y-18329667D01*
X10819286Y-18291571D01*
X10828810Y-18272524D01*
X10838333Y-18263000D01*
X10857381Y-18253476D01*
X11009762Y-18453476D02*
X11009762Y-18320143D01*
X11009762Y-18339190D02*
X11019286Y-18329667D01*
X11038333Y-18320143D01*
X11066905Y-18320143D01*
X11085952Y-18329667D01*
X11095476Y-18348714D01*
X11095476Y-18453476D01*
X11095476Y-18348714D02*
X11105000Y-18329667D01*
X11124048Y-18320143D01*
X11152619Y-18320143D01*
X11171667Y-18329667D01*
X11181190Y-18348714D01*
X11181190Y-18453476D01*
X11276428Y-18453476D02*
X11276428Y-18320143D01*
X11276428Y-18339190D02*
X11285952Y-18329667D01*
X11305000Y-18320143D01*
X11333571Y-18320143D01*
X11352619Y-18329667D01*
X11362143Y-18348714D01*
X11362143Y-18453476D01*
X11362143Y-18348714D02*
X11371667Y-18329667D01*
X11390714Y-18320143D01*
X11419286Y-18320143D01*
X11438333Y-18329667D01*
X11447857Y-18348714D01*
X11447857Y-18453476D01*
X11838333Y-18243952D02*
X11666905Y-18501095D01*
X12095476Y-18253476D02*
X12114524Y-18253476D01*
X12133571Y-18263000D01*
X12143095Y-18272524D01*
X12152619Y-18291571D01*
X12162143Y-18329667D01*
X12162143Y-18377286D01*
X12152619Y-18415381D01*
X12143095Y-18434429D01*
X12133571Y-18443952D01*
X12114524Y-18453476D01*
X12095476Y-18453476D01*
X12076428Y-18443952D01*
X12066905Y-18434429D01*
X12057381Y-18415381D01*
X12047857Y-18377286D01*
X12047857Y-18329667D01*
X12057381Y-18291571D01*
X12066905Y-18272524D01*
X12076428Y-18263000D01*
X12095476Y-18253476D01*
X12247857Y-18434429D02*
X12257381Y-18443952D01*
X12247857Y-18453476D01*
X12238333Y-18443952D01*
X12247857Y-18434429D01*
X12247857Y-18453476D01*
X12381190Y-18253476D02*
X12400238Y-18253476D01*
X12419286Y-18263000D01*
X12428809Y-18272524D01*
X12438333Y-18291571D01*
X12447857Y-18329667D01*
X12447857Y-18377286D01*
X12438333Y-18415381D01*
X12428809Y-18434429D01*
X12419286Y-18443952D01*
X12400238Y-18453476D01*
X12381190Y-18453476D01*
X12362143Y-18443952D01*
X12352619Y-18434429D01*
X12343095Y-18415381D01*
X12333571Y-18377286D01*
X12333571Y-18329667D01*
X12343095Y-18291571D01*
X12352619Y-18272524D01*
X12362143Y-18263000D01*
X12381190Y-18253476D01*
X12619286Y-18253476D02*
X12581190Y-18253476D01*
X12562143Y-18263000D01*
X12552619Y-18272524D01*
X12533571Y-18301095D01*
X12524048Y-18339190D01*
X12524048Y-18415381D01*
X12533571Y-18434429D01*
X12543095Y-18443952D01*
X12562143Y-18453476D01*
X12600238Y-18453476D01*
X12619286Y-18443952D01*
X12628809Y-18434429D01*
X12638333Y-18415381D01*
X12638333Y-18367762D01*
X12628809Y-18348714D01*
X12619286Y-18339190D01*
X12600238Y-18329667D01*
X12562143Y-18329667D01*
X12543095Y-18339190D01*
X12533571Y-18348714D01*
X12524048Y-18367762D01*
X12705000Y-18253476D02*
X12828809Y-18253476D01*
X12762143Y-18329667D01*
X12790714Y-18329667D01*
X12809762Y-18339190D01*
X12819286Y-18348714D01*
X12828809Y-18367762D01*
X12828809Y-18415381D01*
X12819286Y-18434429D01*
X12809762Y-18443952D01*
X12790714Y-18453476D01*
X12733571Y-18453476D01*
X12714524Y-18443952D01*
X12705000Y-18434429D01*
X12952619Y-18253476D02*
X12971667Y-18253476D01*
X12990714Y-18263000D01*
X13000238Y-18272524D01*
X13009762Y-18291571D01*
X13019286Y-18329667D01*
X13019286Y-18377286D01*
X13009762Y-18415381D01*
X13000238Y-18434429D01*
X12990714Y-18443952D01*
X12971667Y-18453476D01*
X12952619Y-18453476D01*
X12933571Y-18443952D01*
X12924048Y-18434429D01*
X12914524Y-18415381D01*
X12905000Y-18377286D01*
X12905000Y-18329667D01*
X12914524Y-18291571D01*
X12924048Y-18272524D01*
X12933571Y-18263000D01*
X12952619Y-18253476D01*
X13095476Y-18253476D02*
X13095476Y-18291571D01*
X13171667Y-18253476D02*
X13171667Y-18291571D01*
X13466905Y-18529667D02*
X13457381Y-18520143D01*
X13438333Y-18491571D01*
X13428809Y-18472524D01*
X13419286Y-18443952D01*
X13409762Y-18396333D01*
X13409762Y-18358238D01*
X13419286Y-18310619D01*
X13428809Y-18282048D01*
X13438333Y-18263000D01*
X13457381Y-18234429D01*
X13466905Y-18224905D01*
X13638333Y-18253476D02*
X13543095Y-18253476D01*
X13533571Y-18348714D01*
X13543095Y-18339190D01*
X13562143Y-18329667D01*
X13609762Y-18329667D01*
X13628809Y-18339190D01*
X13638333Y-18348714D01*
X13647857Y-18367762D01*
X13647857Y-18415381D01*
X13638333Y-18434429D01*
X13628809Y-18443952D01*
X13609762Y-18453476D01*
X13562143Y-18453476D01*
X13543095Y-18443952D01*
X13533571Y-18434429D01*
X13885952Y-18453476D02*
X13885952Y-18253476D01*
X13971667Y-18453476D02*
X13971667Y-18348714D01*
X13962143Y-18329667D01*
X13943095Y-18320143D01*
X13914524Y-18320143D01*
X13895476Y-18329667D01*
X13885952Y-18339190D01*
X14095476Y-18453476D02*
X14076428Y-18443952D01*
X14066905Y-18434429D01*
X14057381Y-18415381D01*
X14057381Y-18358238D01*
X14066905Y-18339190D01*
X14076428Y-18329667D01*
X14095476Y-18320143D01*
X14124048Y-18320143D01*
X14143095Y-18329667D01*
X14152619Y-18339190D01*
X14162143Y-18358238D01*
X14162143Y-18415381D01*
X14152619Y-18434429D01*
X14143095Y-18443952D01*
X14124048Y-18453476D01*
X14095476Y-18453476D01*
X14276428Y-18453476D02*
X14257381Y-18443952D01*
X14247857Y-18424905D01*
X14247857Y-18253476D01*
X14428809Y-18443952D02*
X14409762Y-18453476D01*
X14371667Y-18453476D01*
X14352619Y-18443952D01*
X14343095Y-18424905D01*
X14343095Y-18348714D01*
X14352619Y-18329667D01*
X14371667Y-18320143D01*
X14409762Y-18320143D01*
X14428809Y-18329667D01*
X14438333Y-18348714D01*
X14438333Y-18367762D01*
X14343095Y-18386810D01*
X14514524Y-18443952D02*
X14533571Y-18453476D01*
X14571667Y-18453476D01*
X14590714Y-18443952D01*
X14600238Y-18424905D01*
X14600238Y-18415381D01*
X14590714Y-18396333D01*
X14571667Y-18386810D01*
X14543095Y-18386810D01*
X14524048Y-18377286D01*
X14514524Y-18358238D01*
X14514524Y-18348714D01*
X14524048Y-18329667D01*
X14543095Y-18320143D01*
X14571667Y-18320143D01*
X14590714Y-18329667D01*
X14666905Y-18529667D02*
X14676428Y-18520143D01*
X14695476Y-18491571D01*
X14705000Y-18472524D01*
X14714524Y-18443952D01*
X14724048Y-18396333D01*
X14724048Y-18358238D01*
X14714524Y-18310619D01*
X14705000Y-18282048D01*
X14695476Y-18263000D01*
X14676428Y-18234429D01*
X14666905Y-18224905D01*
M02*
